<?xml version="1.0" encoding="utf-8"?>
<!-- Generator: Adobe Illustrator 25.0.0, SVG Export Plug-In . SVG Version: 6.00 Build 0)  -->
<svg version="1.1" id="Layer_1" xmlns="http://www.w3.org/2000/svg" xmlns:xlink="http://www.w3.org/1999/xlink" x="0px" y="0px"
	 viewBox="0 0 1146.7 248.2" style="enable-background:new 0 0 1146.7 248.2;" xml:space="preserve">
<style type="text/css">
	.st0{fill:#3B4C5D;}
	.st1{fill:#FCB017;}
	.st2{fill:none;}
</style>
<g>
	<g>
		<g>
			<path class="st0" d="M137.9,54.6V0h-27.8v35.9h-42l19.1,23.2h23v55.3c0,10,1.4,17.8,4.1,23.4s6.1,9.8,10.1,12.5s8.2,4.4,12.6,5
				c4.4,0.6,8.3,0.9,11.7,0.9c4.1,0,8-0.2,11.7-0.5s6.7-0.7,8.9-1v-24.5c-1.4,0.5-3.5,0.8-6.4,0.8s-5.4,0-7.6,0
				c-2.7,0-5.1-0.3-7.3-0.8c-2.1-0.5-3.9-1.6-5.5-3.2c-1.5-1.6-2.7-3.9-3.4-7c-0.8-3-1.1-7.1-1.1-12.2V59.1h40l19-23.2h-43.7
				L137.9,54.6z"/>
			<path class="st0" d="M388.1,97.3c0,10.2-2.3,18.7-6.9,25.6s-11.6,10.3-21.1,10.3c-4.8,0-8.9-0.9-12.1-2.8
				c-3.2-1.9-5.8-4.4-7.7-7.5c-1.9-3.1-3.3-6.9-4.1-11.3c-0.8-4.4-1.2-9.2-1.2-14.3V35.9h-27.2v70.6c0,8.2,0.5,14.9,1.6,20.4
				c1.1,5.4,3,10.4,5.9,14.8c3.3,4.9,7.9,8.8,13.6,11.7s12.8,4.3,21.3,4.3c8.6,0,16.2-1.7,22.7-5s11.6-8.2,15.2-14.6v16.6h27.2V35.9
				h-27.2L388.1,97.3L388.1,97.3z"/>
			<path class="st0" d="M527.4,98.9c-3.4-2.6-7.2-4.7-11.5-6.4c-4.3-1.7-8.7-3.3-13.2-4.9c-6-2-12.4-3.8-16.8-5.2
				c-4.5-1.4-8.2-2.8-11.2-4.1c-3-1.3-5.2-2.7-6.7-4.4c-1.5-1.6-2.2-3.7-2.2-6.3c0-4.3,1.8-7.5,5.5-9.7s8.1-3.3,13.3-3.3
				c7.5,0,14,1.7,17.3,5s4.9,7.8,4.9,13.4h29.8c0-5.8-1.3-11.2-3.9-16.1c-2.6-4.9-6.2-9.2-10.7-12.8s-9.8-6.4-15.9-8.4
				c-6.1-2-12.6-3.1-19.5-3.1c-6.7,0-13.1,0.7-19,2.2s-11.1,3.7-15.6,6.7s-8,6.6-10.7,10.9c-2.6,4.3-3.9,9.2-3.9,14.8
				c0,5.1,0.7,9.5,2.2,13.1s3.7,6.6,6.5,9s6.1,4.5,10,6.3c3.8,1.8,8,3.5,12.5,5c6.9,2.4,14,4.4,19.1,5.9s9.3,3,12.6,4.5
				c3.4,1.5,5.9,3,7.6,4.7s2.5,3.9,2.5,6.7c0,5.1-2.1,8.7-6.2,10.8c-4.1,2-9.2,3.1-15.2,3.1c-7.3,0-14.5-1.6-19.2-4.7
				c-4.8-3.2-7.2-8.7-7.2-16.5h-29.8c0,7,1.4,13.2,4.4,18.6c2.9,5.4,6.8,9.9,11.8,13.6c5,3.7,10.6,6.4,17,8.3
				c6.4,1.9,13.1,2.8,20.2,2.8s13.8-0.7,20.2-2.2c6.4-1.4,11.9-3.7,16.7-6.7s8.5-6.8,11.2-11.4c2.7-4.6,4.1-10,4.1-16.1
				c0-5.5-1-10-2.9-13.6C533.4,104.5,530.8,101.4,527.4,98.9z"/>
			<path class="st0" d="M748.4,127.9c-3.7,3.4-9.4,5.1-17.3,5.1c-5.7,0-10.6-1-14.7-3.1c-4.1-2-7.4-4.8-10-8.2
				c-2.6-3.4-4.5-7.4-5.8-12c-1.2-4.6-1.8-9.4-1.8-14.5s0.6-9.9,1.8-14.4s3.1-8.5,5.8-12c2.6-3.5,5.8-6.2,9.6-8.3
				c3.8-2,8.2-3.1,13.5-3.1c9.1,0,15.7,2,19.7,6s6.4,9.2,7.2,15.7h26.7c-0.5-5.8-1.8-11.4-4-16.9s-5.5-10.4-9.8-14.8
				c-4.3-4.3-9.8-7.9-16.4-10.6c-6.6-2.7-14.6-4.1-23.9-4.1s-17.5,1.7-24.5,5.2s-12.9,8.1-17.8,13.9c-4.8,5.8-8.5,12.4-10.9,20
				c-2.5,7.6-3.7,15.3-3.7,23.3c0,8.2,1.2,16,3.7,23.4c2.4,7.5,6.1,14.1,10.9,19.9c4.8,5.8,10.8,10.4,17.9,13.9
				c7.1,3.5,15.3,5.2,24.6,5.2c8.3,0,15.6-1.1,21.9-3.3c6.3-2.2,11.7-5.3,16.2-9.3s8-8.7,10.7-14c2.6-5.3,4.4-11.1,5.4-17.2h-26.7
				C754.8,119.8,752.1,124.5,748.4,127.9z"/>
			<path class="st0" d="M905.8,51.5c-5.5-5.8-12.1-10.3-19.9-13.6c-7.7-3.3-16.3-5-25.9-5c-9.5,0-18.1,1.7-25.7,5
				c-7.6,3.3-14.2,7.9-19.6,13.6c-5.4,5.8-9.6,12.4-12.6,20s-4.5,15.5-4.5,23.8c0,8.5,1.5,16.5,4.5,23.9c3,7.5,7.2,14.1,12.6,19.9
				c5.4,5.8,12,10.3,19.6,13.6s16.2,5,25.7,5s18.1-1.7,25.9-5c7.7-3.3,14.4-7.9,19.9-13.6c5.5-5.8,9.8-12.4,12.7-19.9
				c3-7.5,4.5-15.5,4.5-23.9c0-8.3-1.5-16.3-4.5-23.8C915.6,63.9,911.3,57.2,905.8,51.5z M892.7,109.8c-1.7,4.6-4.1,8.6-7.1,12
				c-3.1,3.4-6.8,6.1-11.1,8.2c-4.3,2-9.1,3.1-14.4,3.1c-5.3,0-10-1-14.3-3.1c-4.2-2-7.9-4.8-11-8.2c-3.1-3.4-5.4-7.4-7-12
				s-2.4-9.4-2.4-14.5s0.8-9.9,2.4-14.5c1.6-4.6,3.9-8.6,7-12s6.7-6.1,11-8.2c4.2-2,9-3.1,14.3-3.1s10.1,1,14.4,3.1
				c4.3,2,8,4.8,11.1,8.2s5.4,7.4,7.1,12c1.7,4.6,2.5,9.4,2.5,14.5S894.4,105.2,892.7,109.8z"/>
			<path class="st0" d="M1136.9,93.6c0.1-2.8,0.1-5.2,0.1-7.3c0-7.6-1.4-14.7-4.2-21.1c-2.8-6.5-6.7-12.1-11.7-16.9
				s-10.9-8.6-17.6-11.3s-13.9-4.1-21.5-4.1c-9.3,0-17.7,1.6-25,4.7c-7.3,3.1-13.4,7.5-18.3,13.1s-8.7,12.2-11.3,19.9
				c-2.6,7.6-3.9,15.9-3.9,24.7c0,8.7,1.2,16.8,3.7,24.5c2.5,7.6,6.2,14.3,11.1,19.9c4.9,5.6,11.1,10,18.5,13.2s16.1,4.8,26.1,4.8
				c7.6,0,14.5-1.1,20.6-3.2c6.1-2.1,11.5-5,16-8.5c4.6-3.6,8.3-7.7,11.1-12.4c2.8-4.7,4.6-9.6,5.5-14.6h-28
				c-1.7,4.2-4.3,7.9-7.9,11c-3.6,3.1-9.3,4.6-17.3,4.6c-5.8,0-10.6-0.8-14.5-2.4c-3.9-1.6-7.1-3.8-9.6-6.6
				c-2.5-2.8-4.3-6.1-5.5-9.8c-1.2-3.7-2-7.7-2.3-12h84.8C1136.4,99.8,1136.8,96.4,1136.9,93.6z M1050.9,83.1c0-9.7,2.9-17,8.7-21.9
				c5.8-4.9,13-7.4,21.7-7.4c8.5,0,15.4,2.6,20.8,7.8c5.3,5.2,8,12.4,8,21.5C1110.1,83.1,1050.9,83.1,1050.9,83.1z"/>
			<polygon class="st0" points="234.5,55.2 234.5,35.9 206.7,35.9 206.7,154.6 234.5,154.6 234.5,59.1 279.1,59.1 298.2,35.9 
				250.4,35.9 			"/>
			<polygon class="st0" points="1031.2,35.9 983.4,35.9 967.5,55.2 967.5,35.9 939.7,35.9 939.7,154.6 967.5,154.6 967.5,59.1 
				1012.1,59.1 			"/>
			<path class="st0" d="M647.8,98.9c-3.4-2.6-7.2-4.7-11.5-6.4c-4.3-1.7-8.7-3.3-13.2-4.9c-6-2-12.4-3.8-16.8-5.2
				c-4.5-1.4-8.2-2.8-11.2-4.1c-3-1.3-5.2-2.7-6.7-4.4c-1.5-1.6-2.2-3.7-2.2-6.3c0-4.3,1.8-7.5,5.5-9.7s8.1-3.3,13.3-3.3
				c7.5,0,14,1.7,17.3,5s4.9,7.8,4.9,13.4H657c0-5.8-1.3-11.2-3.9-16.1c-2.6-4.9-6.2-9.2-10.7-12.8s-9.8-6.4-15.9-8.4
				c-6.1-2-12.6-3.1-19.5-3.1c-6.7,0-13.1,0.7-19,2.2s-11.1,3.7-15.6,6.7s-8,6.6-10.7,10.9c-2.6,4.3-3.9,9.2-3.9,14.8
				c0,5.1,0.7,9.5,2.2,13.1s3.7,6.6,6.5,9s6.1,4.5,10,6.3c3.8,1.8,8,3.5,12.5,5c6.9,2.4,14,4.4,19.1,5.9s9.3,3,12.6,4.5
				c3.4,1.5,5.9,3,7.6,4.7c1.7,1.7,2.5,3.9,2.5,6.7c0,5.1-2.1,8.7-6.2,10.8c-4.1,2-9.2,3.1-15.2,3.1c-7.3,0-14.5-1.6-19.2-4.7
				c-4.8-3.2-7.2-8.7-7.2-16.5h-29.8c0,7,1.4,13.2,4.4,18.6c2.9,5.4,6.8,9.9,11.8,13.6c5,3.7,10.6,6.4,17,8.3
				c6.4,1.9,13.1,2.8,20.2,2.8c7.1,0,13.9-0.7,20.2-2.2c6.4-1.4,11.9-3.7,16.7-6.7s8.5-6.8,11.2-11.4c2.7-4.6,4.1-10,4.1-16.1
				c0-5.5-1-10-2.9-13.6C653.8,104.5,651.2,101.4,647.8,98.9z"/>
		</g>
		<g>
			<polygon class="st1" points="43.7,59.1 62.8,35.9 19.1,35.9 0,59.1 			"/>
		</g>
	</g>
	<g>
		<path class="st0" d="M503.8,247v-38.6h7.2v5.1c2.4-4.3,7.2-6.3,11.7-6.3c4.8,0,9.5,2.3,11.5,7.3c3-5.5,8-7.3,12.9-7.3
			c6.7,0,13.3,4.6,13.3,14.7v25H553v-24.2c0-5.1-2.5-8.8-8.2-8.8c-5.3,0-8.9,4.2-8.9,9.7V247h-7.5v-24.2c0-5-2.4-8.8-8.2-8.8
			c-5.4,0-9,4-9,9.8V247H503.8z"/>
		<path class="st0" d="M580.5,224.9l10.4-1.5c2.3-0.3,3-1.5,3-2.9c0-3.8-2.5-6.9-8.3-6.9c-5.3,0-8.3,3.3-8.7,7.8l-7.2-1.7
			c0.8-7.4,7.5-12.5,15.8-12.5c11.5,0,16,6.6,16,14.1v19.3c0,3.4,0.3,5.4,0.5,6.3h-7.4c-0.2-1-0.4-2.4-0.4-5.2
			c-1.7,2.7-5.5,6.4-12.4,6.4c-7.9,0-12.9-5.5-12.9-11.5C568.8,229.7,573.9,225.9,580.5,224.9z M593.9,230.4v-1.8l-11.8,1.8
			c-3.2,0.5-5.6,2.3-5.6,5.8c0,2.9,2.4,5.6,6.3,5.6C589,241.8,593.9,238.9,593.9,230.4z"/>
		<path class="st0" d="M622.1,208.4h8.3v6.8h-8.3v20c0,3.5,1.4,5.3,5.4,5.3c1,0,2.3-0.2,3-0.3v6.4c-0.6,0.2-2.6,0.7-5.1,0.7
			c-6.6,0-10.7-4-10.7-11v-21.2h-7.4v-6.8h2.1c4.2,0,5.9-2.6,5.9-5.9v-6.3h6.9v12.3H622.1z"/>
		<path class="st0" d="M671.7,236c-2.2,6.8-8.3,12.2-17.3,12.2c-10.3,0-19.4-7.5-19.4-20.6c0-12.1,8.7-20.4,18.4-20.4
			c11.9,0,18.5,8.2,18.5,20.2c0,1-0.1,1.9-0.2,2.4h-29c0.2,6.9,5.1,11.7,11.6,11.7c6.3,0,9.4-3.4,10.8-7.8L671.7,236z M664.1,223.7
			c-0.2-5.5-3.8-9.9-10.6-9.9c-6.3,0-10.2,4.9-10.5,9.9H664.1z"/>
		<path class="st0" d="M701.9,216c-1.1-0.2-2.2-0.2-3.3-0.2c-6.3,0-10.6,3.4-10.6,11.9V247h-7.5v-38.6h7.4v6.7
			c2.8-5.9,7.6-7.4,11.5-7.4c1,0,2.1,0.2,2.5,0.2L701.9,216L701.9,216z"/>
		<path class="st0" d="M712.2,188.3c3,0,5.5,2.4,5.5,5.5c0,3-2.4,5.4-5.5,5.4c-3,0-5.4-2.4-5.4-5.4
			C706.8,190.7,709.2,188.3,712.2,188.3z M708.5,247v-38.6h7.5V247H708.5z"/>
		<path class="st0" d="M736.1,224.9l10.4-1.5c2.3-0.3,3-1.5,3-2.9c0-3.8-2.5-6.9-8.3-6.9c-5.3,0-8.3,3.3-8.7,7.8l-7.2-1.7
			c0.8-7.4,7.5-12.5,15.8-12.5c11.5,0,16,6.6,16,14.1v19.3c0,3.4,0.3,5.4,0.5,6.3h-7.4c-0.2-1-0.4-2.4-0.4-5.2
			c-1.7,2.7-5.5,6.4-12.4,6.4c-7.9,0-12.9-5.5-12.9-11.5C724.4,229.7,729.5,225.9,736.1,224.9z M749.5,230.4v-1.8l-11.8,1.8
			c-3.2,0.5-5.6,2.3-5.6,5.8c0,2.9,2.4,5.6,6.3,5.6C744.6,241.8,749.5,238.9,749.5,230.4z"/>
		<path class="st0" d="M767.3,247v-58.1h7.5V247H767.3z"/>
		<path class="st0" d="M875.1,234.5c0.5,4,3.5,7.2,9,7.2c4.2,0,6.6-2.4,6.6-5.1c0-2.4-1.8-4.3-5-5l-6.6-1.4c-6-1.3-9.6-5.4-9.6-10.8
			c0-6.6,6.2-12.2,13.7-12.2c10.6,0,13.9,6.9,14.7,10.3l-6.7,2.5c-0.3-2-1.9-6.4-8-6.4c-3.8,0-6.4,2.5-6.4,5.1c0,2.3,1.4,4,4.4,4.7
			l6.3,1.4c7,1.5,10.7,5.8,10.7,11.5c0,5.5-4.6,11.9-14.1,11.9c-10.6,0-15.1-6.8-15.7-11.2L875.1,234.5z"/>
		<path class="st0" d="M911.4,227.6c0,8.8,5.5,13.6,11.8,13.6c7.2,0,9.9-4.9,10.7-7.9l6.7,2.9c-1.8,5.5-7.4,12-17.4,12
			c-11.2,0-19.5-8.8-19.5-20.5c0-12,8.4-20.4,19.4-20.4c10.3,0,15.6,6.4,17.2,12.3l-6.8,2.9c-1-3.8-3.8-8.2-10.3-8.2
			C917,214.2,911.4,218.6,911.4,227.6z"/>
		<path class="st0" d="M951.8,188.3c3,0,5.5,2.4,5.5,5.5c0,3-2.4,5.4-5.5,5.4c-3,0-5.4-2.4-5.4-5.4
			C946.4,190.7,948.8,188.3,951.8,188.3z M948.1,247v-38.6h7.5V247H948.1z"/>
		<path class="st0" d="M1000.4,236c-2.2,6.8-8.3,12.2-17.3,12.2c-10.3,0-19.4-7.5-19.4-20.6c0-12.1,8.7-20.4,18.4-20.4
			c11.9,0,18.5,8.2,18.5,20.2c0,1-0.1,1.9-0.2,2.4h-29c0.2,6.9,5.1,11.7,11.6,11.7c6.3,0,9.4-3.4,10.8-7.8L1000.4,236z M992.8,223.7
			c-0.2-5.5-3.8-9.9-10.6-9.9c-6.3,0-10.2,4.9-10.5,9.9H992.8z"/>
		<path class="st0" d="M1016.8,247h-7.5v-38.6h7.4v5.5c2.8-4.8,7.4-6.7,11.9-6.7c9.2,0,13.8,6.7,13.8,15.2V247h-7.5v-23.2
			c0-5.4-2.2-9.7-9-9.7c-5.9,0-9,4.7-9,10.6V247H1016.8z"/>
		<path class="st0" d="M1057.8,227.6c0,8.8,5.5,13.6,11.8,13.6c7.2,0,9.9-4.9,10.7-7.9l6.7,2.9c-1.8,5.5-7.4,12-17.4,12
			c-11.2,0-19.5-8.8-19.5-20.5c0-12,8.4-20.4,19.4-20.4c10.3,0,15.6,6.4,17.2,12.3l-6.8,2.9c-1-3.8-3.8-8.2-10.3-8.2
			C1063.4,214.2,1057.8,218.6,1057.8,227.6z"/>
		<path class="st0" d="M1128.6,236c-2.2,6.8-8.3,12.2-17.3,12.2c-10.3,0-19.4-7.5-19.4-20.6c0-12.1,8.7-20.4,18.4-20.4
			c11.9,0,18.5,8.2,18.5,20.2c0,1-0.1,1.9-0.2,2.4h-29c0.2,6.9,5.1,11.7,11.6,11.7c6.3,0,9.4-3.4,10.8-7.8L1128.6,236z M1121,223.7
			c-0.2-5.5-3.8-9.9-10.6-9.9c-6.3,0-10.2,4.9-10.5,9.9H1121z"/>
		<polygon class="st0" points="846,220.7 832.6,220.7 828.3,225.9 828.3,205.1 821.7,205.1 821.7,220.7 805.8,220.7 811,227.1 
			821.7,227.1 821.7,237.8 821.7,242.9 828.3,242.9 828.3,227.1 840.8,227.1 		"/>
	</g>
</g>
<rect x="-9.5" y="0.5" class="st2" width="1156.2" height="247.3"/>
</svg>
