<svg id="Layer_1" data-name="Layer 1" xmlns="http://www.w3.org/2000/svg" viewBox="0 0 249.49463 93.04799"><rect width="92.68036" height="93.04799" style="fill:#0f0708"/><path d="M68.11385,36.06484s-.78186-.06861-.78186,1.44877l.005,5.70178c0,1.01163.31228,1.29791.96516,1.37952.22063.02716-.043.319-.09165.36789a25.35636,25.35636,0,0,0-2.85082,0c-.1833.01673-.04673-.13812-.04673-.32207s.82808-.04582.82808-.96593l-.00386-5.95446c0-1.70107-1.28813-1.56359-1.28813-1.56359s-.18343-.41372.55235-.41372c.32116,0,1.9078.04583,2.71244,0,.20673-.012.20673.04583.13851.13786C68.18285,35.9728,68.25236,36.04167,68.11385,36.06484Z" transform="translate(-0.02854 -0.01012)" style="fill:#fff"/><path d="M37.2827,46.15837l-3.0237-8.185c-.69-1.83945-1.42547-1.88553-1.42547-1.88553s-.13787-.32168.59766-.32168H36.374l-.14919.41359c-.45992,0-.96593.368-.552,1.60968l1.8854,5.33388s1.28723-3.12706,1.74716-4.55228c.45979-1.42535.27585-1.97718-.36789-2.29925-.64349-.3218-.13748-.50562-.13748-.50562h2.66649v.32168c-.68918.09191-1.138,1.79748-1.425,2.57548-.94289,2.55129-2.39141,7.08078-2.48332,7.31107C37.473,46.18759,37.46639,46.25041,37.2827,46.15837Z" transform="translate(-0.02854 -0.01012)" style="fill:#fff"/><path d="M47.40378,49.96316c-.1201.414-.53343.42543-1.1549.42543a13.345,13.345,0,0,0-1.60929.13722v-2.7593h2.529a1.41612,1.41612,0,0,1,1.28826.96593c.22887.92037.73462.27688.50575-.32052a5.68294,5.68294,0,0,1-.23015-1.61058l-.66743.06913H42.54759c-.73578,0-.45993.46057-.45993.46057s1.19545-.04609,1.19545,1.51712l.00437,5.81673c0,.91972-.74079.89565-.82743,1.05745-.23041.42929-.0771.36854.22978.36854,0,0,3.4674-.09165,5.49028,0,.27559.012.64348.23015.82807-.09165a8.99882,8.99882,0,0,0,.32232-2.02468s-.074-.74145-.50691,0c-.41732.71685-.41346,1.33434-2.02275,1.33434-1.60916,0-2.11517-.09217-2.16125-.644-.04583-.5512,0-3.31037,0-3.31037s.18433-.27572.7816-.27572h.91973a1.16665,1.16665,0,0,1,1.0124.96593c.04544.22952.36776-.09293.36776-.09293V50.113a.22371.22371,0,0,0-.3173-.14983" transform="translate(-0.02854 -0.01012)" style="fill:#fff"/><path d="M54.689,35.68549a2.03477,2.03477,0,0,1,1.90587,2.05763,2.59021,2.59021,0,0,1-2.48293,2.29964,9.82537,9.82537,0,0,1,2.48293,2.85043c1.44877,2.20747,2.80525,2.71348,4.2073,2.78234a5.40842,5.40842,0,0,0,2.89768-.7816c.804-.46842.32168.18394.23.2756a5.91651,5.91651,0,0,1-3.70168,1.31065c-2.62067,0-4.32238-2.16151-5.15046-3.44874a19.21783,19.21783,0,0,0-1.92916-2.44882.96923.96923,0,0,0-1.05759-.368v3.54078a.73921.73921,0,0,0,.64155.70141c.72072.17725.23016.45992.23016.45992L50.00308,44.905c-.1833,0,0-.092,0-.27572,0-.184.87351-.04609.87351-.96581L50.87221,37.617a1.3409,1.3409,0,0,0-1.19532-1.60968c0-.36789.20364-.41307.665-.379C51.5372,35.71548,54.09157,35.7317,54.689,35.68549Zm-.80464.71313-1.79337.09165v2.85082a4.75017,4.75017,0,0,0,1.47092.13812,2.03643,2.03643,0,0,0,1.29456-.47126A3.0629,3.0629,0,0,0,55.17,37.8815,1.67608,1.67608,0,0,0,53.88433,36.39862Z" transform="translate(-0.02854 -0.01012)" style="fill:#fff"/><path d="M64.32052,35.58187a1.08654,1.08654,0,0,1-.64348.092,15.70719,15.70719,0,0,0-1.93175-.18408c-1.60942.0466-3.081,1.288-3.081,2.57562,0,1.28735,1.01137,2.11478,2.48293,2.43672,1.47169.32219,2.29976.69008,2.29976,1.97731,0,1.10341-1.196,1.56359-2.06961,1.56359a3.438,3.438,0,0,1-2.48293-1.42547,1.55462,1.55462,0,0,1-.27559-1.05746l-.483.18394a6.289,6.289,0,0,1,.02278,1.70133c-.10246.41153,1.10367,1.51739,2.94312,1.51739,2.2529,0,3.72446-1.05746,3.72446-3.26518,0-1.83881-2.2529-2.25291-2.89639-2.39064-.64477-.13812-1.93174-.59779-1.93174-1.65589,0-1.0572,1.10367-1.28736,1.88489-1.28736a2.01767,2.01767,0,0,1,1.70171.782,1.67047,1.67047,0,0,1,.32245.87326l.41333-.13748s-.13773-.96593-.13773-1.28761A7.58236,7.58236,0,0,1,64.32052,35.58187Z" transform="translate(-0.02854 -0.01012)" style="fill:#fff"/><path d="M69.42425,35.85785h5.33388c.27676,0,.73565-.276.92024-.09165,0,0,.09165.09165.09165.45941v1.70172c0,.18394-.36467.40483-.414.09165-.19025-1.20266-.41346-1.3328-1.287-1.3328-.5064,0-1.10431-.1842-1.10431.41333V43.8133c0,.64349.7054.69755.9658.82743.0923.04621-.091.32207-.091.32207H70.57413s-.13851-.36789.13838-.4141c.27559-.04609.87364-.55145.87364-.96581V37.14572c0,.36789.09216-.45954-.46032-.45954-1.10354,0-1.78692-.22282-2.02326,1.19532-.04621.2756-.45967.59766-.45967,0,0-.23041.03167-1.42419,0-1.74754C68.59746,35.67391,68.8262,35.62834,69.42425,35.85785Z" transform="translate(-0.02854 -0.01012)" style="fill:#fff"/><path d="M22.93552,46.89415l.4141-.04608v1.65486c-.55158,0-.598-.45954-.55158-.78122.04544-.32181-1.24346.23955-2.20772,1.14975A4.33414,4.33414,0,0,0,19.487,50.52581c0,.04737,1.19532.09293,1.33369-.36673.01275-.0448.22952.091.22952.091v1.61007s-.26208.32927-.36789.27624c-.10723-.05561.32232-1.05759-.82756-1.012-.55145.02149-.59792-.04557-.59792,0a9.03469,9.03469,0,0,1-1.83919,3.5866c-1.31027,1.44877-3.21858,1.885-4.32238.96529v-.45954a3.59226,3.59226,0,0,0,1.37927.32232,3.24867,3.24867,0,0,0,2.75917-1.83945,8.30306,8.30306,0,0,0,1.058-2.57522c0-.09165-.299-.04557-.299-.04557l-.16091-.50562h.71274a4.48242,4.48242,0,0,1,1.49434-2.16126A6.28633,6.28633,0,0,1,22.93552,46.89415Z" transform="translate(-0.02854 -0.01012)" style="fill:#fff"/><path d="M31.85626,46.80134,31.76461,50.113l-.41371.13709s-.36789-2.06819-1.70172-2.20669c-1.33344-.13786-2.94311-.1833-3.77054.78263a6.67311,6.67311,0,0,0-1.42535,4.22945c0,2.48357.45941,4.96663,3.86245,4.96663,2.0234,0,1.97731-1.564,1.97731-1.2871V54.29815c0-.3236-.782-.69085-1.37926-.69085l.13773-.50562H33.1897l-.04557.41461s-1.01163.22874-1.01163.82679v3.35657a22.6872,22.6872,0,0,0-2.57523,1.10367,2.62758,2.62758,0,0,1-2.16125.69021c-.91947,0-3.67864-.644-4.414-3.03541a8.65687,8.65687,0,0,1,1.10328-7.67895,5.06586,5.06586,0,0,1,4.46063-2.06948,19.26279,19.26279,0,0,1,2.06922.23,3.66782,3.66782,0,0,0,.91934-.2756C31.67232,46.61869,31.85626,46.80134,31.85626,46.80134Z" transform="translate(-0.02854 -0.01012)" style="fill:#fff"/><path d="M33.14413,46.89415h3.03451l-.04582.46031s-.82743.18266-.82743.78058v5.38125a2.068,2.068,0,0,0,2.02275,1.7926c.82781,0,2.57535-.59792,2.57535-2.25342V48.09024c0-.32373-.368-.78263-1.24153-.78263-.22977,0,.36751-.45954.36751-.45954h2.48331l-.09165.45954a.96921.96921,0,0,0-.64374.82743c0,.665-.04621,4.15427-.04621,4.55189a3.59027,3.59027,0,0,1-3.403,3.58789c-2.16113,0-3.44848-.96593-3.44848-2.66752V47.86009c0-.323-.8739-.55248-.8739-.55248C32.63825,47.35446,33.14413,46.89415,33.14413,46.89415Z" transform="translate(-0.02854 -0.01012)" style="fill:#fff"/><path d="M49.83625,46.93972H53.055l-.13787.36789s-.92036-.13773-.92036,1.14988v6.2074c0,.27559-.23.36853.55183.59856a7.25764,7.25764,0,0,0,2.52914-.13838,2.16191,2.16191,0,0,0,1.10367-1.42548l.2756-.04672a15.38355,15.38355,0,0,1-.23,2.25342c-.13786.27624-.42234.19218-1.10367.13786-1.14923-.09165-5.287.04673-5.287.04673l-.09242-.27624s.87364-.04544.87364-1.93174V48.135c0-.96516-.66562-.6422-1.01137-.87351C49.46824,47.16988,49.83625,46.93972,49.83625,46.93972Z" transform="translate(-0.02854 -0.01012)" style="fill:#fff"/><path d="M56.91716,47.0781a27.491,27.491,0,0,0,2.75853-.0923,4.4439,4.4439,0,0,1,3.081.4141A2.361,2.361,0,0,1,63.677,49.101a2.43876,2.43876,0,0,1-1.1504,2.16113c-.82691.59805-1.56269.6897-3.30985.50575-.22874-.02407-.18458.36854-.18458.59856v2.48242a1.12236,1.12236,0,0,0,1.196.82743c.04557,0-.18459.36789-.18459.36789h-3.1725s-.13851-.22951.09165-.32181c.23-.09165.64477-.1833.69021-.73513.04557-.55248,0-6.25477,0-6.75988a.79134.79134,0,0,0-.87351-.73578Zm2.1619,3.7251s-.04685.5158,1.60929.4589c1.05759-.036,1.5627-1.19532,1.5627-1.9311a1.69657,1.69657,0,0,0-1.19481-1.51764,9.10729,9.10729,0,0,0-1.97718,0Z" transform="translate(-0.02854 -0.01012)" style="fill:#fff"/><path d="M72.2725,56.10285l.00386-.32168c-.1909-.00193-.823-.05316-.82048-1.06454.00129-.505.00386-6.359.00759-6.806.00374-.51464.92423-.68146.92423-.68146l.04918-.27753-3.12642-.0215-.05.36854s.85395.07787.85395.62958v2.69043H66.11324c-.22887,0-.13786-.1385-.13786-.36866V47.99731c0-.55119.64413-.59741.64413-.59741l.1385-.46018H63.86034l-.0923.36789s.8748-.09165.92037.59792c.03283.504,0,6.43755,0,6.80544,0,.32245-.27045,1.01137-.82807,1.05823l-.04557.32168h2.85095c.04544,0,.41333-.32168-.09229-.46019a.86183.86183,0,0,1-.64349-.9658V51.44617c0-.18407.04544-.13721.2756-.13721h3.86219v3.402c0,.91972-.44821.89-.64348,1.01137-.2756.17262-.25037.32876,0,.36854C69.64231,56.12563,72.2725,56.10285,72.2725,56.10285Z" transform="translate(-0.02854 -0.01012)" style="fill:#fff"/><path d="M17.28382,37.86979c0-1.26483-.59521-1.73042-1.90844-1.83945-.32966-.02716.18394-.39093.18394-.39093,1.76646-.02665,3.93145,0,3.93145,0,.18395.04608.16116.09229.02343.3451-.11057.202-1.12671-.207-1.12671,1.816l-.00386.03449v6.3459a3.6294,3.6294,0,0,1-.96594,2.34482,4.4083,4.4083,0,0,1-3.67851,1.56449c-4.59836,0-4.46024-3.49533-4.46024-3.49533V38.06545c0-1.26458-.04325-1.89133-1.35648-2.00061-.32966-.02755.18394-.39093.18394-.39093a35.105,35.105,0,0,0,4.02336,0c.184.04647.16091.09229.023.34536-.11031.20171-1.12671-.16142-1.12671,1.86223v5.74786a2.97038,2.97038,0,0,0,3.12719,3.21871c1.83906,0,3.12629-1.012,3.12629-2.66714V37.8815Z" transform="translate(-0.02854 -0.01012)" style="fill:#fff"/><path d="M27.75194,37.95269c-.02459-2.02314.78984-1.62461.89758-1.82787.13465-.25474.15743-.30082-.02716-.34446a13.40912,13.40912,0,0,1-2.62144.02111s-.5091.36944-.17879.39325c1.31451.09294,1.225.56728,1.24076,1.83185l-.01172,4.591c-.2066.11508-4.48315-6.27691-4.48315-6.27691l-.41-.59766a7.20636,7.20636,0,0,1-1.93148-.04582s-.5136.36351-.1842.39067c1.31348.10941,1.196.57487,1.196,1.83945l-.00412,1.31.00785,3.58325c-.02214,2.0234-.94212,1.60324-1.05436,1.804-.1407.25153-.16464.29709.0193.34511a15.64343,15.64343,0,0,1,2.7817.043s.5176-.35811.18794-.38874c-1.31194-.124-1.2118-.59586-1.19815-1.8603L21.97,38.1571s4.403,5.56391,4.8746,7.17359c0,0,.115.402.36776.11469.18717-.21291.24316-.16593.37935-.25281.16052-.10363.16052-.17262.17223-.36789Z" transform="translate(-0.02854 -0.01012)" style="fill:#fff"/><path d="M44.86974,40.08858a6.88947,6.88947,0,0,1,1.70133-.27624c.55209-.04557.92.644.96555,1.012.04544.36789.40316.09345.36776-.13786a12.8393,12.8393,0,0,1,0-1.88566c0-.32168-.27546-.22977-.36776-.09165a1.22738,1.22738,0,0,1-.91908.55158c-.50639.092-1.7478.18394-1.7478.18394l-.04582-.13773V36.54781h2.5294a1.58363,1.58363,0,0,1,1.37914.9658c.23015.73552.50575.184.41345-.32206-.11443-.62984-.23015-1.60968-.23015-1.60968l-.66614.06951H42.73153a.46325.46325,0,0,0-.45993.41346s1.19545-.04557,1.19545,1.51764l.00438,5.86293c0,.91934-.96555.82743-.96555,1.01138a.44239.44239,0,0,0,.36815.4141H48.3647c.27559,0,.78121.27585.82678-.092.05432-.4307.32232-2.02339.32232-2.02339s.00824-.4728-.41333,0a1.98293,1.98293,0,0,1-2.11517,1.33382c-1.60929.03978-2.11556-.092-2.16138-.64387-.04621-.55222,0-3.311,0-3.311Z" transform="translate(-0.02854 -0.01012)" style="fill:#fff"/><path d="M81.79347,45.009c.43753,0,.29967-.04621.43753-.20737.13709-.16091,0-.23016-.25359-.20673-.25216.02278-.66678-.1147-.68956-.80478-.02279-.68957,0-2.64409,0-2.64409.13773-.23,1.37926-2.391,1.88553-3.35657l.275-.47435c.26878-.464.3509-.89758.85086-.96555.1385-.01892.13284-.05947.368-.13786.13774-.04608.27547-.36776.09166-.36776H81.97677c-.09229,0-.50369.12731-.16116.29889.09229.04519.42672-.02806.69034.184a.89142.89142,0,0,1,.16116.95679l-1.8388,2.989s-1.471-2.62144-1.7478-3.081c-.2756-.4598-.22321-.80568.27676-.87364.13786-.01893.13284-.05973.36737-.13812.13838-.04583.27624-.36751.09165-.36751H76.62023c-.09165,0-.50382.12667-.16051.29864.09165.04583.55247.184.66691.36763.11508.1842,2.43672,4.32277,2.73639,4.98955a11.7643,11.7643,0,0,1,.09165,2.29873c-.02343.66692-.22257.73578-.529.82808-.22.06577-.32117.16051-.34511.299-.02214.13773.04673.11315.57578.11508C80.53057,45.0112,81.79347,45.009,81.79347,45.009Z" transform="translate(-0.02854 -0.01012)" style="fill:#fff"/><path d="M84.59821,34.6624H7.62344l.36789-.36789H84.9661Z" transform="translate(-0.02854 -0.01012)" style="fill:#fff"/><path d="M31.53446,37.5364c0-1.51713.759-1.35661.759-1.35661.13773-.023.0919-.16052.1609-.25281.06848-.09165.06848-.14816-.13786-.13812-.46019.02342-2.23012,0-2.55258,0l-.22719-.01133c-.73578,0-.48284.41371-.48284.41371s1.28723-.13786,1.28723,1.56347l.0045,5.95484c0,.91973-.82781.78161-.82781.96594,0,.18394-.13684.33854.04647.32142a25.58787,25.58787,0,0,1,2.85017,0c.04956-.04892.31357-.34035.0923-.36763-.65288-.08174-.96529-.36777-.96529-1.37914Z" transform="translate(-0.02854 -0.01012)" style="fill:#fff"/><path d="M72.13734,57.47078H33.14413l.36764-.3684h38.9941Z" transform="translate(-0.02854 -0.01012)" style="fill:#fff"/><path d="M14.31406,51.19323a3.85979,3.85979,0,0,0-.82769,1.60942c-.31576,1.89442.86309,1.97912,1.56321,1.8401a3.65284,3.65284,0,0,0,2.34507-2.85211C17.75816,49.53709,15.53564,49.66607,14.31406,51.19323Zm1.83919,1.7478c-.45967.5974-.73578,1.01138-1.4713.91921-.73578-.09242-.52275-1.265.18356-2.20618.552-.73578,1.33382-.96581,1.56359-.50755A1.55436,1.55436,0,0,1,16.15325,52.941Z" transform="translate(-0.02854 -0.01012)" style="fill:#fff"/><path d="M121.07926,39.45243c5.42167,0,9.1621,3.23815,9.1621,7.932,0,4.51778-3.61467,8.48385-9.26263,8.48385-5.24635,0-9.06157-3.28719-9.06157-7.78116C111.91716,43.06645,115.75748,39.45243,121.07926,39.45243Zm.30108,15.61381c3.4889,0,5.82393-2.83717,5.82393-7.05452,0-4.543-2.636-7.75606-6.32608-7.75606-3.61479,0-5.92394,2.76046-5.92394,7.1539C114.95425,52.45536,118.1924,55.06624,121.38034,55.06624Z" transform="translate(-0.02854 -0.01012)" style="fill:#ce1141"/><path d="M132.12315,54.9921c1.21309-.05278,1.47645-.29787,1.47645-1.86288V46.8715c0-1.70584-.29863-1.86417-1.68768-1.86417v-.474c.51039,0,1.389-.03514,1.81087-.05278.844-.03514,2.00434-.08792,2.33813-.08792,3.32233,0,5.11556.75548,5.11556,3.164,0,2.05647-1.70519,3.48079-4.18413,3.48079a8.11474,8.11474,0,0,1-1.44118-.12319v2.40853c0,1.35378.35128,1.65177,1.98606,1.66928v.47524h-5.41408Zm3.428-4.60454a5.13056,5.13056,0,0,0,.75612.08676,2.73659,2.73659,0,0,0,2.74231-2.9529,2.40814,2.40814,0,0,0-2.6374-2.63727,6.29072,6.29072,0,0,0-.861.05277Z" transform="translate(-0.02854 -0.01012)" style="fill:#ce1141"/><path d="M141.57617,55.46734V54.9921c1.42367,0,1.7756-.22745,1.7756-1.21308V46.20278c0-1.1603-.58-1.19545-1.7756-1.19545v-.474h8.983l.15769,2.63611h-.47448l-.088-.3684c-.35129-1.44183-.63229-1.477-1.75733-1.477h-3.09423v4.09544h2.72467c1.01949,0,1.213-.12318,1.31864-1.335h.47447V51.617h-.47447c-.12319-1.24707-.35206-1.4054-1.31864-1.4054h-2.72467v3.19915c0,1.0899.1407,1.26586,1.037,1.26586h1.95156c1.7756,0,2.127-.24638,2.60149-1.96984h.4746l-.26337,2.76058Z" transform="translate(-0.02854 -0.01012)" style="fill:#ce1141"/><path d="M154.40391,46.51957v6.75035c0,1.37154.176,1.81023,1.758,1.72218v.47524H151.9601V54.9921c1.26586.03527,1.4771-.36828,1.4771-1.511V45.5705a2.23725,2.23725,0,0,0-1.4771-.56317v-.474h3.18228l7.84025,8.27906V46.51957c0-1.31864-.21111-1.52987-1.74034-1.51224v-.474h4.2539v.474c-1.17794,0-1.54686.21124-1.54686,1.54738V55.5729h-.94907Z" transform="translate(-0.02854 -0.01012)" style="fill:#ce1141"/><path d="M166.53074,55.46734v-.67759c2.0333,0,2.53545-.32683,2.53545-1.73223V42.238c0-1.6555-.82845-1.70583-2.53545-1.70583v-.67875h12.827l.2263,3.76616h-.6776l-.12563-.528c-.50228-2.05776-.90389-2.10809-2.51035-2.10809h-4.418v5.84916H175.743c1.45637,0,1.73222-.17609,1.88308-1.90831h.6776v5.04593h-.6776c-.176-1.78255-.50214-2.00885-1.88308-2.00885h-3.89065v4.5694c0,1.55626.2012,1.80637,1.48083,1.80637h2.787c2.5348,0,3.03709-.35064,3.71455-2.81079h.67824l-.37652,3.941Z" transform="translate(-0.02854 -0.01012)" style="fill:#ce1141"/><path d="M182.8121,46.55471c0-1.28337-.33377-1.565-1.67-1.54738v-.474c.50974,0,2.022-.07041,2.76-.10556.94971-.03514,1.846-.03514,2.51407-.03514,2.65427,0,4.57069.47383,5.643,1.54609a5.15821,5.15821,0,0,1,1.51159,3.7448c0,2.5845-1.81074,5.78377-6.96094,5.78377h-5.46762V54.9921c1.49472,0,1.67-.24509,1.67-1.4229Zm1.95157,7.15518c0,1.10753.15846,1.2647,1.30113,1.2647,2.10925,0,3.19915-.45632,4.0074-1.2647A5.26594,5.26594,0,0,0,191.44374,49.93a5.15616,5.15616,0,0,0-1.35391-3.76231c-.87866-.87879-1.98619-1.28349-4.04267-1.28349-.29915,0-.84416,0-1.28349.03514Z" transform="translate(-0.02854 -0.01012)" style="fill:#ce1141"/><line x1="111.21643" y1="62.86277" x2="249.49463" y2="62.86277" style="fill:none;stroke:#0f0708;stroke-miterlimit:10;stroke-width:0.6075px"/><path d="M116.02715,69.76638c2.60393,0,3.9227,2.06407,3.9227,4.289,0,2.22626-1.31877,4.29033-3.9227,4.29033-2.60406,0-3.9227-2.06407-3.9227-4.29033C112.10445,71.83045,113.42309,69.76638,116.02715,69.76638Zm0,7.6617c1.99559,0,2.83344-1.72089,2.83344-3.37266s-.83785-3.37138-2.83344-3.37138-2.83344,1.71961-2.83344,3.37138S114.03156,77.42808,116.02715,77.42808Z" transform="translate(-0.02854 -0.01012)" style="fill:#0f0708"/><path d="M121.39412,69.96114H124.985a2.42217,2.42217,0,1,1,0,4.841h-2.501v3.34872h-1.08989Zm1.08989,3.92334h2.13384c1.2275.01132,1.7895-.528,1.7895-1.50349s-.562-1.50219-1.7895-1.50219H122.484Z" transform="translate(-0.02854 -0.01012)" style="fill:#0f0708"/><path d="M128.94023,69.96114h5.65556v.91766h-4.56567v2.60342H134.286v.91766h-4.25583V77.2332h4.59965v.91766h-5.68954Z" transform="translate(-0.02854 -0.01012)" style="fill:#0f0708"/><path d="M136.05139,69.96114h1.159l4.313,6.64106h.02265V69.96114h1.03211v8.18972h-1.193l-4.27836-6.5731h-.02265v6.5731h-1.03274Z" transform="translate(-0.02854 -0.01012)" style="fill:#0f0708"/><path d="M147.76091,69.96114h1.0899V77.2332h4.33627v.91766h-5.42617Z" transform="translate(-0.02854 -0.01012)" style="fill:#0f0708"/><path d="M154.25368,69.96114h5.65479v.91766h-4.56554v2.60342h4.2557v.91766h-4.2557V77.2332h4.60017v.91766h-5.68942Z" transform="translate(-0.02854 -0.01012)" style="fill:#0f0708"/><path d="M163.82988,69.96114h1.20433l3.20043,8.18972h-1.2042l-.89514-2.46633h-3.4638l-.91766,2.46633h-1.12439Zm-.81456,4.80573h2.77629l-1.36523-3.819h-.02329Z" transform="translate(-0.02854 -0.01012)" style="fill:#0f0708"/><path d="M169.151,69.96114h3.85422c1.53734,0,2.48949.83721,2.48949,2.14452a1.965,1.965,0,0,1-1.42225,2.07668V74.205c.95152.18355,1.147.88368,1.22685,1.68575a4.196,4.196,0,0,0,.48207,2.26011h-1.21617c-.30932-.33313-.13709-1.21553-.298-2.01876-.1143-.80323-.30983-1.47954-1.3651-1.47954h-2.66122v3.4983H169.151Zm3.36134,3.77376c1.02077,0,1.89261-.264,1.89261-1.457a1.29526,1.29526,0,0,0-1.457-1.39909h-2.707v2.8561Z" transform="translate(-0.02854 -0.01012)" style="fill:#0f0708"/><path d="M177.11072,69.96114h1.159l4.313,6.64106h.02266V69.96114h1.032v8.18972h-1.19288l-4.27848-6.5731h-.02253v6.5731h-1.03274Z" transform="translate(-0.02854 -0.01012)" style="fill:#0f0708"/><path d="M185.56317,69.96114h1.08989v8.18972h-1.08989Z" transform="translate(-0.02854 -0.01012)" style="fill:#0f0708"/><path d="M188.5915,69.96114h1.15889l4.313,6.64106h.02265V69.96114h1.0321v8.18972h-1.193l-4.27835-6.5731h-.02266v6.5731H188.5915Z" transform="translate(-0.02854 -0.01012)" style="fill:#0f0708"/><path d="M203.12365,77.13022a3.20719,3.20719,0,0,1-2.62659,1.21553,3.92489,3.92489,0,0,1-3.9-4.12943c0-2.38587,1.30731-4.44994,3.9-4.44994,1.78938,0,3.21176.80194,3.521,2.71772h-1.08926a2.21808,2.21808,0,0,0-2.4317-1.80006c-1.9849,0-2.81079,1.71961-2.81079,3.47449,0,1.70956.98679,3.26955,2.81079,3.26955a2.46752,2.46752,0,0,0,2.62659-2.67254h-2.61526V73.838h3.59008v4.31285h-.68815Z" transform="translate(-0.02854 -0.01012)" style="fill:#0f0708"/><path d="M211.34607,69.96114h1.2042l3.20056,8.18972H214.5465l-.895-2.46633h-3.4638L209.27,78.15086h-1.12439Zm-.81456,4.80573h2.77617l-1.36511-3.819h-.02265Z" transform="translate(-0.02854 -0.01012)" style="fill:#0f0708"/><path d="M216.65588,69.96114h1.15838l4.313,6.64106h.0233V69.96114h1.03262v8.18972h-1.193l-4.279-6.5731h-.02265v6.5731h-1.03262Z" transform="translate(-0.02854 -0.01012)" style="fill:#0f0708"/><path d="M225.06251,69.96114h2.81079c2.52348,0,3.93454,1.26083,3.93454,3.89939,0,2.74167-1.20485,4.29033-3.93454,4.29033h-2.81079Zm1.08976,7.27206H227.965c.74544,0,2.753-.20609,2.753-3.22309,0-1.94964-.72278-3.13131-2.73034-3.13131h-1.83533Z" transform="translate(-0.02854 -0.01012)" style="fill:#0f0708"/><path d="M112.56335,84.55816h5.65479v.91767H113.6526v2.60329h4.2557v.91766h-4.2557v2.83345h4.60017v.91766h-5.68942Z" transform="translate(-0.02854 -0.01012)" style="fill:#0f0708"/><path d="M119.68584,84.55816H122.496c2.52348,0,3.9339,1.26084,3.9339,3.8994,0,2.74167-1.2042,4.29033-3.9339,4.29033h-2.81014Zm1.08925,7.27207h1.81267c.74543,0,2.75287-.20622,2.75287-3.22309,0-1.94977-.72278-3.13131-2.73021-3.13131h-1.83533Z" transform="translate(-0.02854 -0.01012)" style="fill:#0f0708"/><path d="M134.41223,89.78881a2.87923,2.87923,0,0,1-3.22309,3.15384c-2.11054,0-3.36133-.97418-3.36133-3.15384V84.55816h1.08989v5.23065a2.04,2.04,0,0,0,2.27144,2.2363,1.97022,1.97022,0,0,0,2.1332-2.2363V84.55816h1.08989Z" transform="translate(-0.02854 -0.01012)" style="fill:#0f0708"/><path d="M142.02747,87.02449a2.157,2.157,0,0,0-2.29409-1.74355c-1.94964,0-2.77553,1.6053-2.77553,3.31487,0,1.86918.82589,3.4293,2.78685,3.4293a2.3171,2.3171,0,0,0,2.36322-2.36335h1.08989a3.33417,3.33417,0,0,1-3.54489,3.28089c-2.54614,0-3.785-1.88051-3.785-4.26639,0-2.37455,1.35313-4.313,3.87674-4.313a3.13442,3.13442,0,0,1,3.37266,2.66121Z" transform="translate(-0.02854 -0.01012)" style="fill:#0f0708"/><path d="M146.88984,84.55816h1.2042l3.20043,8.18973h-1.2042l-.895-2.46633h-3.4638l-.91766,2.46633h-1.12452Zm-.81456,4.80574h2.77617l-1.36524-3.819H147.463Z" transform="translate(-0.02854 -0.01012)" style="fill:#0f0708"/><path d="M153.24359,85.47583H150.5139v-.91767h6.54928v.91767h-2.72969v7.27206h-1.0899Z" transform="translate(-0.02854 -0.01012)" style="fill:#0f0708"/><path d="M158.12914,84.55816H159.219v8.18973h-1.08989Z" transform="translate(-0.02854 -0.01012)" style="fill:#0f0708"/><path d="M164.63259,84.36328c2.60394,0,3.92257,2.06407,3.92257,4.289,0,2.22626-1.31863,4.29033-3.92257,4.29033-2.60406,0-3.92269-2.06407-3.92269-4.29033C160.7099,86.42735,162.02853,84.36328,164.63259,84.36328Zm0,7.66183c1.99559,0,2.83332-1.721,2.83332-3.37279s-.83773-3.37138-2.83332-3.37138-2.83344,1.71961-2.83344,3.37138S162.637,92.02511,164.63259,92.02511Z" transform="translate(-0.02854 -0.01012)" style="fill:#0f0708"/><path d="M169.98823,84.55816h1.159l4.313,6.64107h.02266V84.55816h1.032v8.18973H175.322l-4.27849-6.57323H171.021v6.57323h-1.03274Z" transform="translate(-0.02854 -0.01012)" style="fill:#0f0708"/><path d="M180.62047,84.55816h1.2042l3.20044,8.18973h-1.2042l-.895-2.46633h-3.4638l-.91767,2.46633h-1.12452Zm-.81456,4.80574h2.77617L181.217,85.545h-.02329Z" transform="translate(-0.02854 -0.01012)" style="fill:#0f0708"/><path d="M185.94161,84.55816h1.08977v7.27207h4.33628v.91766h-5.42605Z" transform="translate(-0.02854 -0.01012)" style="fill:#0f0708"/><path d="M200.47377,86.95537a1.78979,1.78979,0,0,0-2.03074-1.67443c-.91766,0-1.83532.33185-1.83532,1.39909,0,1.00944,1.308,1.15773,2.62723,1.45688,1.3073.298,2.61526.75676,2.61526,2.36335,0,1.74226-1.70893,2.44239-3.20043,2.44239-1.83534,0-3.384-.895-3.384-2.89h1.03274c0,1.37656,1.14705,1.97242,2.38588,1.97242.98615,0,2.076-.30932,2.076-1.49086,0-1.12388-1.308-1.31877-2.61539-1.60659-1.30731-.28654-2.62659-.665-2.62659-2.16718,0-1.6631,1.47954-2.3972,2.971-2.3972,1.67443,0,2.94775.79074,3.01636,2.59209Z" transform="translate(-0.02854 -0.01012)" style="fill:#0f0708"/><path d="M209.82122,89.78881a2.87918,2.87918,0,0,1-3.22309,3.15384c-2.11053,0-3.36068-.97418-3.36068-3.15384V84.55816h1.08924v5.23065a2.04,2.04,0,0,0,2.27144,2.2363,1.97025,1.97025,0,0,0,2.13333-2.2363V84.55816h1.08976Z" transform="translate(-0.02854 -0.01012)" style="fill:#0f0708"/><path d="M211.67856,84.55816h3.59021a2.42209,2.42209,0,1,1,0,4.84088h-2.501v3.34885h-1.08925Zm1.08925,3.92322h2.13384c1.22686.01132,1.78938-.5279,1.78938-1.50336,0-.97559-.56252-1.50219-1.78938-1.50219h-2.13384Z" transform="translate(-0.02854 -0.01012)" style="fill:#0f0708"/><path d="M219.22467,84.55816h3.59085a2.42211,2.42211,0,1,1,0,4.84088h-2.50095v3.34885h-1.0899Zm1.0899,3.92322h2.13384c1.2275.01132,1.78937-.5279,1.78937-1.50336,0-.97559-.56187-1.50219-1.78937-1.50219h-2.13384Z" transform="translate(-0.02854 -0.01012)" style="fill:#0f0708"/><path d="M230.23587,84.36328c2.60406,0,3.9227,2.06407,3.9227,4.289,0,2.22626-1.31864,4.29033-3.9227,4.29033-2.60393,0-3.92269-2.06407-3.92269-4.29033C226.31318,86.42735,227.63194,84.36328,230.23587,84.36328Zm0,7.66183c1.99559,0,2.83345-1.721,2.83345-3.37279s-.83786-3.37138-2.83345-3.37138-2.83344,1.71961-2.83344,3.37138S228.24029,92.02511,230.23587,92.02511Z" transform="translate(-0.02854 -0.01012)" style="fill:#0f0708"/><path d="M235.60284,84.55816h3.85422c1.53734,0,2.48962.83722,2.48962,2.14452a1.96515,1.96515,0,0,1-1.42238,2.07669V88.802c.95152.18343,1.147.88369,1.22685,1.68563a4.19776,4.19776,0,0,0,.48207,2.26024h-1.21617c-.3092-.33313-.13709-1.21566-.298-2.01889-.1143-.80323-.30983-1.47954-1.3651-1.47954h-2.66122v3.49843h-1.08989Zm3.36146,3.77364c1.02065,0,1.89249-.264,1.89249-1.45688a1.29526,1.29526,0,0,0-1.457-1.39909h-2.707v2.856Z" transform="translate(-0.02854 -0.01012)" style="fill:#0f0708"/><path d="M245.22757,85.47583h-2.72969v-.91767h6.54928v.91767h-2.7297v7.27206h-1.08989Z" transform="translate(-0.02854 -0.01012)" style="fill:#0f0708"/></svg>