<svg id="Layer_1" data-name="Layer 1" xmlns="http://www.w3.org/2000/svg" viewBox="0 0 139.37205 24.79"><rect width="139.37205" height="24.79" style="fill:none"/><path d="M31.69338,10.2166l.5936-.57843a1.39612,1.39612,0,0,0,1.08833.54035c.46429,0,.66222-.175.66222-.45665,0-.22828-.137-.37286-.48709-.41857l-.39577-.05325c-.85242-.10661-1.32434-.47957-1.32434-1.20257,0-.76863.60133-1.25572,1.507-1.25572a1.89388,1.89388,0,0,1,1.55262.624l-.57079.57079a1.31236,1.31236,0,0,0-.95139-.42621c-.41867,0-.60133.16749-.60133.411,0,.26635.14468.38813.51764.449l.4033.05325c.86769.12178,1.28627.51,1.28627,1.17213,0,.76862-.64695,1.30144-1.63632,1.30144A2.017,2.017,0,0,1,31.69338,10.2166Z" style="fill:#e21936"/><path d="M35.48976,8.86192c0-1.2711.66212-2.07016,1.83425-2.07016a1.53588,1.53588,0,0,1,1.56025,1.00453l-.79916.35779a.74169.74169,0,0,0-.76109-.57843c-.54035,0-.81434.38049-.81434.93611v.723c0,.55562.274.92858.81434.92858a.84951.84951,0,0,0,.83714-.62414l.74592.35779A1.55235,1.55235,0,0,1,37.324,10.94725C36.15188,10.94725,35.48976,10.14054,35.48976,8.86192Z" style="fill:#e21936"/><path d="M39.51594,5.22386h.9742V7.54521h.038a1.09606,1.09606,0,0,1,1.11124-.75345c.81434,0,1.271.56315,1.271,1.55251v2.51165h-.9742V8.44324c0-.56315-.19029-.85242-.65448-.85242-.4034,0-.79153.21311-.79153.63932v2.62578h-.9742Z" style="fill:#e21936"/><path d="M43.62439,8.86192a1.85783,1.85783,0,1,1,3.69131,0,1.85943,1.85943,0,1,1-3.69131,0Zm2.6714.37285V8.49659c0-.5937-.31961-.92094-.82951-.92094-.50237,0-.822.32724-.822.92094v.73818c0,.60134.31961.92858.822.92858C45.97618,10.16335,46.29579,9.83611,46.29579,9.23477Z" style="fill:#e21936"/><path d="M47.85228,8.86192a1.85782,1.85782,0,1,1,3.6913,0,1.85942,1.85942,0,1,1-3.6913,0Zm2.67139.37285V8.49659c0-.5937-.3196-.92094-.82951-.92094-.50237,0-.822.32724-.822.92094v.73818c0,.60134.3196.92858.822.92858C50.20407,10.16335,50.52367,9.83611,50.52367,9.23477Z" style="fill:#e21936"/><path d="M53.25219,10.85592A.86145.86145,0,0,1,52.278,9.897V5.22386h.9742v4.8558h.52507v.77626Z" style="fill:#e21936"/><path d="M56.19757,8.86192a1.85783,1.85783,0,1,1,3.69131,0,1.85943,1.85943,0,1,1-3.69131,0Zm2.6715.37285V8.49659c0-.5937-.31971-.92094-.82961-.92094-.50237,0-.822.32724-.822.92094v.73818c0,.60134.31961.92858.822.92858C58.54936,10.16335,58.86907,9.83611,58.86907,9.23477Z" style="fill:#e21936"/><path d="M60.8311,7.65171H60.245V6.883h.58607V6.31219a.98212.98212,0,0,1,1.096-1.08833h.69256v.77636h-.81434V6.883h.81434v.76873h-.81434v3.20421H60.8311Z" style="fill:#e21936"/><path d="M.01867,16.16022c0-1.2711.66212-2.07016,1.83425-2.07016a1.53588,1.53588,0,0,1,1.56025,1.00453l-.79916.35779a.7417.7417,0,0,0-.76109-.57843c-.54035,0-.81434.38049-.81434.93611v.723c0,.55562.274.92858.81434.92858a.84951.84951,0,0,0,.83714-.62414l.74592.35779a1.55235,1.55235,0,0,1-1.58306,1.05025C.68079,18.24555.01867,17.43884.01867,16.16022Z" style="fill:#e21936"/><path d="M3.84091,16.16022a1.827,1.827,0,0,1,1.84188-2.07016,1.82847,1.82847,0,0,1,1.84942,2.07016,1.85942,1.85942,0,1,1-3.6913,0Zm2.67139.37285v-.73818c0-.5937-.3196-.92094-.82951-.92094-.50236,0-.822.32724-.822.92094v.73818c0,.60134.31961.92858.822.92858C6.1927,17.46165,6.5123,17.13441,6.5123,16.53307Z" style="fill:#e21936"/><path d="M8.27966,18.15422V14.18129h.97419v.66222h.038a1.096,1.096,0,0,1,1.11124-.75345c.81434,0,1.271.56315,1.271,1.55251v2.51165h-.97419V15.74154c0-.56315-.1903-.85242-.65449-.85242-.4034,0-.79153.21311-.79153.63932v2.62578Z" style="fill:#e21936"/><path d="M12.815,17.14194V14.95765h-.586v-.77636h.30444c.28916,0,.38049-.137.38049-.41094V13.093h.87522v1.08834h.81445v.77636h-.81445V17.378h.75356v.77626h-.7002A.91948.91948,0,0,1,12.815,17.14194Z" style="fill:#e21936"/><path d="M15.16611,13.11586v-.15232c0-.28152.16749-.48709.57089-.48709.39566,0,.57079.20557.57079.48709v.15232c0,.28153-.17513.4871-.57079.4871C15.3336,13.603,15.16611,13.39739,15.16611,13.11586Zm.08379,1.06543h.9742v3.97293h-.9742Z" style="fill:#e21936"/><path d="M17.18139,18.15422V14.18129h.97419v.66222h.038a1.096,1.096,0,0,1,1.11124-.75345c.81434,0,1.271.56315,1.271,1.55251v2.51165H19.6016V15.74154c0-.56315-.1903-.85242-.65449-.85242-.4034,0-.79153.21311-.79153.63932v2.62578Z" style="fill:#e21936"/><path d="M23.88894,17.49209h-.03808a1.078,1.078,0,0,1-1.11124.75346c-.81434,0-1.271-.56316-1.271-1.55262V14.18129h.97419V16.594c0,.548.20547.84488.66976.84488.38813,0,.77636-.20557.77636-.63178V14.18129h.9742v3.97293h-.9742Z" style="fill:#e21936"/><path d="M25.74529,13.11586v-.15232c0-.28152.16749-.48709.57079-.48709.39586,0,.57089.20557.57089.48709v.15232c0,.28153-.175.4871-.57089.4871C25.91278,13.603,25.74529,13.39739,25.74529,13.11586Zm.08369,1.06543h.97419v3.97293H25.829Z" style="fill:#e21936"/><path d="M27.76067,18.15422V14.18129h.97419v.66222h.038a1.096,1.096,0,0,1,1.11124-.75345c.81434,0,1.271.56315,1.271,1.55251v2.51165h-.97419V15.74154c0-.56315-.1903-.85242-.65449-.85242-.4034,0-.79153.21311-.79153.63932v2.62578Z" style="fill:#e21936"/><path d="M33.58455,19.76772c-1.33952,0-1.84942-.35015-1.84942-.93611a.73179.73179,0,0,1,.70783-.76109v-.08369a.653.653,0,0,1-.51-.66223c0-.41093.35015-.6164.73064-.7002V16.594a1.19878,1.19878,0,0,1-.723-1.15685c0-.80671.5709-1.34705,1.644-1.34705a2.20775,2.20775,0,0,1,.69266.09886v-.12941a.50761.50761,0,0,1,.56316-.57832h.6165V14.227H34.612v.1066a1.18874,1.18874,0,0,1,.61651,1.10351c0,.79916-.56316,1.332-1.64395,1.332a2.44127,2.44127,0,0,1-.60888-.06853.40705.40705,0,0,0-.28152.35769c0,.19793.16739.2968.51744.2968h1.06562c.97419,0,1.39277.41857,1.39277,1.134C35.67,19.31871,35.10672,19.76772,33.58455,19.76772Zm.49473-1.56789H32.72449a.48806.48806,0,0,0-.20547.411c0,.30443.22838.4871.83725.4871h.4871c.63167,0,.9133-.15986.9133-.49474C34.75667,18.35215,34.574,18.19983,34.07928,18.19983ZM34.3,15.498v-.12931c0-.4034-.25119-.60887-.71547-.60887-.46419,0-.71538.20547-.71538.60887V15.498c0,.39577.25119.60887.71538.60887C34.04883,16.10686,34.3,15.89376,34.3,15.498Z" style="fill:#e21936"/><path d="M37.83921,17.5149l.59359-.57843a1.3962,1.3962,0,0,0,1.08844.54035c.46418,0,.66212-.175.66212-.45665,0-.22828-.13705-.37286-.4871-.41857l-.39576-.05325c-.85242-.10661-1.32435-.47957-1.32435-1.20257,0-.76863.60124-1.25572,1.507-1.25572a1.89389,1.89389,0,0,1,1.55262.624l-.5709.57079a1.31192,1.31192,0,0,0-.95128-.42621c-.41857,0-.60123.16749-.60123.411,0,.26635.14458.38813.51743.449l.40341.05325c.86769.12178,1.28626.51,1.28626,1.17213,0,.76862-.64695,1.30144-1.63631,1.30144A2.01717,2.01717,0,0,1,37.83921,17.5149Z" style="fill:#e21936"/><path d="M42.14854,17.14194V14.95765h-.58606v-.77636h.30444c.28916,0,.38049-.137.38049-.41094V13.093h.87533v1.08834h.81434v.77636h-.81434V17.378h.75345v.77626H43.176A.9194.9194,0,0,1,42.14854,17.14194Z" style="fill:#e21936"/><path d="M46.98224,17.49209h-.03808a1.078,1.078,0,0,1-1.11124.75346c-.81433,0-1.271-.56316-1.271-1.55262V14.18129h.9742V16.594c0,.548.20546.84488.66975.84488.38813,0,.77636-.20557.77636-.63178V14.18129h.9742v3.97293h-.9742Z" style="fill:#e21936"/><path d="M51.43474,17.49209h-.03808a1.11571,1.11571,0,0,1-1.096.75346c-.997,0-1.55262-.75346-1.55262-2.08533,0-1.32435.55562-2.07016,1.55262-2.07016a1.09377,1.09377,0,0,1,1.096.74581h.03808V12.52216h.97419v5.63206h-.97419Zm0-.7002V15.52844c0-.38813-.35779-.63932-.82208-.63932a.846.846,0,0,0-.84478.93612v.685a.83958.83958,0,0,0,.84478.92857C51.07695,17.43884,51.43474,17.20283,51.43474,16.79189Z" style="fill:#e21936"/><path d="M53.29108,13.11586v-.15232c0-.28152.16749-.48709.57079-.48709.39587,0,.57089.20557.57089.48709v.15232c0,.28153-.175.4871-.57089.4871C53.45857,13.603,53.29108,13.39739,53.29108,13.11586Zm.08369,1.06543h.9742v3.97293h-.9742Z" style="fill:#e21936"/><path d="M55.07646,16.16022a1.819,1.819,0,0,1,1.84188-2.07016,1.78148,1.78148,0,0,1,1.81134,2.00163v.31961h-2.641v.099a.88234.88234,0,0,0,.96656.95892,1.20658,1.20658,0,0,0,1.01227-.54035l.52517.58606a1.96642,1.96642,0,0,1-1.644.73065A1.84186,1.84186,0,0,1,55.07646,16.16022Zm1.01227-.411v.06088h1.62878v-.06852c0-.548-.28163-.92084-.784-.92084A.84335.84335,0,0,0,56.08873,15.74918Z" style="fill:#e21936"/><path d="M59.15681,17.5149l.59359-.57843a1.3962,1.3962,0,0,0,1.08844.54035c.46418,0,.66212-.175.66212-.45665,0-.22828-.13705-.37286-.4871-.41857l-.39576-.05325c-.85242-.10661-1.32435-.47957-1.32435-1.20257,0-.76863.60123-1.25572,1.507-1.25572a1.89389,1.89389,0,0,1,1.55262.624l-.5709.57079a1.31192,1.31192,0,0,0-.95128-.42621c-.41857,0-.60123.16749-.60123.411,0,.26635.14458.38813.51743.449l.40341.05325c.86769.12178,1.28626.51,1.28626,1.17213,0,.76862-.64695,1.30144-1.63631,1.30144A2.01716,2.01716,0,0,1,59.15681,17.5149Z" style="fill:#e21936"/><path d="M74.70119,17.4859h.38219c.79629,0,.97143-.3026.97143-1.13072V13.839L72.99718,8.36077c-.621-1.11476-.8281-1.25809-1.60846-1.25809H71.2454V6.625c.68481.016,1.35364.04777,2.00661.04777.66885,0,1.35363-.03182,2.02247-.04777v.47773h-.28664c-.33442,0-.58924.1115-.58924.50956a2.64386,2.64386,0,0,0,.35037.93963l2.35688,4.252,2.1977-4.20422a3.61125,3.61125,0,0,0,.43-1.13072c0-.27069-.1911-.36624-.62106-.36624h-.3026V6.625c.65288.016,1.08285.04777,1.57656.04777.52551,0,1.067-.03182,1.57662-.04777v.47773h-.39815c-.65288,0-.7962.207-1.28991,1.13064L77.45622,13.5046v2.85058c0,.93963.35037,1.13072.97145,1.13072h.31846v.47782c-.66885-.016-1.35363-.04785-2.02247-.04785-.70074,0-1.43332.0319-2.02247.04785Z" style="fill:#231f20"/><path d="M89.01792,6.4179a5.9365,5.9365,0,0,1,5.94013,5.8764,5.87666,5.87666,0,0,1-5.9879,5.87647,5.74772,5.74772,0,0,1-5.92416-5.7491A5.9389,5.9389,0,0,1,89.01792,6.4179Zm-.04777.66883c-2.22952,0-4.33167,1.36959-4.33167,5.06423,0,2.57991,1.68814,5.41462,4.42722,5.41462,2.94614,0,4.29985-2.16588,4.29985-5.09614C93.36555,9.90549,91.7571,7.08673,88.97015,7.08673Z" style="fill:#231f20"/><path d="M97.45826,17.4859h.28665c.73258,0,1.05113-.27077,1.05113-1.30586V8.40855c0-1.03518-.31855-1.30587-1.05113-1.30587h-.28665V6.625c.55742.016,1.32182.04777,2.03843.04777,1.067,0,1.83137-.04777,2.53212-.04777a3.03516,3.03516,0,0,1,3.32842,2.94612,2.92294,2.92294,0,0,1-2.26143,2.978l2.134,3.53537c.87589,1.43323,1.13071,1.52878,2.42062,1.60837v.33451c-.30251,0-.58924.01577-.89177.01577a2.70945,2.70945,0,0,1-2.89844-1.56051l-1.8632-3.04176c-.36632-.58924-.57328-.62106-1.79955-.65288v3.00986c0,1.51282.27071,1.68805.90772,1.68805h.46187l-.00009.47782c-.70065-.016-1.3695-.04785-2.07024-.04785-.71661,0-1.481.0319-2.03843.04785Zm2.73917-5.41462a3.59034,3.59034,0,0,0,1.08295.11152c1.43321,0,2.61171-.6529,2.61171-2.30913a2.62122,2.62122,0,0,0-2.69139-2.64362,9.37455,9.37455,0,0,0-1.00327.06373Z" style="fill:#231f20"/><path d="M110.13482,17.4859h.28655c.73248,0,1.0512-.27077,1.0512-1.30586V8.40855c0-1.03518-.31872-1.30587-1.0512-1.30587h-.28655V6.625c.55742.016,1.3218.04777,2.03833.04777.70057,0,1.36958-.03182,2.07016-.04777v.47773h-.46163c-.6371,0-.90761.17515-.90761,1.68806v3.74243l3.48759-3.88575c.15921-.17514.7644-.81217.7644-1.13072,0-.28665-.223-.414-.52577-.414h-.28647V6.625c.58924.016,1.2579.04777,1.87906.04777.6371,0,1.2579-.03182,1.895-.04777v.47773h-.28647c-.78033,0-1.0512.14333-1.99073,1.13064l-3.0735,3.23286,4.10876,4.80941c.89166,1.051,1.35362,1.21031,2.00634,1.21031h.239v.47782c-.50949-.016-1.03525-.04785-1.54474-.04785s-1.03524.0319-1.54473.04785c-.07942-.46187-.12728-.70082-1.03525-1.73591l-3.26459-3.74241-.82786.87588v2.43657c0,1.51282.27051,1.68805.90761,1.68805h.46163v.47782c-.70058-.016-1.36959-.04785-2.07016-.04785-.71653,0-1.48091.0319-2.03833.04785Z" style="fill:#231f20"/><path d="M134.80067,18.17506c-2.5468,0-4.75169-1.57443-4.75169-5.016V4.97711h-5.69064V19.99075h15.01371v-5.478A4.366,4.366,0,0,1,134.80067,18.17506Z" style="fill:#e21936"/><path d="M134.80067,15.10142c1.36639,0,1.78585-1.20058,1.78585-2.37489V4.97711h-3.49416v7.74942C133.09236,13.9496,133.52717,15.10142,134.80067,15.10142Z" style="fill:#e21936"/><rect x="66.86246" y="4.97711" width="0.41705" height="15.01365" style="fill:#929497"/></svg>