<svg xmlns="http://www.w3.org/2000/svg" viewBox="0 0 457.36 284.51"><defs><style>.a{fill:#fff;}.b{fill:#06a6ff;}</style></defs><path class="a" d="M128.7,203.43H138l4.56-6.14,0-73.7L138,117.45H128.7v-6.14h44.14c34.19,0,49.27,19.38,49.27,48s-23.53,50.24-49.54,50.24H128.7Zm45.94-2.3c19.24,0,25.61-12.18,25.61-36.95,0-26-10.25-46.73-28.1-46.73a23.12,23.12,0,0,0-7.33,1.11,20,20,0,0,0-2.49,1.11l0,77.62C165.2,200.21,170.91,201.13,174.64,201.13Z" transform="translate(-127.32 -109.58)"/><path class="a" d="M289,166.63l-5,24.53h-53.5l0-6.27s8-8.43,8.15-8.62c16.65-17.57,29.75-31.51,29.75-46,0-9-3.52-14.57-9.65-14.57s-9.93,6.22-9.93,15.53l0,4.72h-16.1a16.73,16.73,0,0,1-.54-4.49c0-14.52,14.18-21.9,27.52-21.9,13.16,0,26.44,6.3,26.44,21.34a24.49,24.49,0,0,1-2.69,10.74,47.26,47.26,0,0,1-6.81,10c-3.38,4-10.74,10.17-17.25,15.32-5.2,4.13-9.87,7.61-11.52,8.85h31.57l8.42-9.16Z" transform="translate(-127.32 -109.58)"/><polygon class="a" points="250 69.3 243.73 100 170.67 100 170.67 93.84 179.9 93.84 184.51 87.7 184.51 14.02 179.9 7.88 170.67 7.88 170.67 1.72 220.63 1.72 220.63 7.88 208.59 7.88 204.29 14.02 204.29 90.82 227.5 90.82 247.7 69.3 250 69.3"/><path class="b" d="M285.69,200.37v3.83l-5.37,5.37H227.44v-3.83l5.37-5.37Z" transform="translate(-127.32 -109.58)"/><path class="a" d="M285,271l-23,64.72c-1.84,4.68-4.75,13.76-6.84,21.43-1.65-7.73-4.06-16.72-5.49-21.59L230.71,271H205.6l-18.9,64.56c-1.42,4.87-3.84,13.86-5.49,21.59-2.08-7.67-5-16.75-6.84-21.43l-23-64.72h-24l43.82,123.06h22.3l24.72-84.29,24.71,84.29h22.31L309,271Z" transform="translate(-127.32 -109.58)"/><path class="b" d="M383.91,345.68,357,271H333.59l-15.51,43a29.23,29.23,0,0,1,45.67,16.08,15.47,15.47,0,0,0-12.38-6.56,15.68,15.68,0,0,0-15.69,14.89,15.52,15.52,0,0,0,14.89,16.13h.63A56.87,56.87,0,0,0,368.91,350,98.83,98.83,0,0,1,383.91,345.68Z" transform="translate(-127.32 -109.58)"/><path class="a" d="M299.93,365.17l-10.45,28.92h24.59l9.33-26.73C315.3,366.81,307.54,366,299.93,365.17Z" transform="translate(-127.32 -109.58)"/><path class="a" d="M367.58,367.66l9.22,26.43h24.92L391.21,365Q379.47,366.88,367.58,367.66Z" transform="translate(-127.32 -109.58)"/><path class="a" d="M431.35,341.28c2.21,5.86,4.33,12.28,6.57,19.94,2-7,4-13.2,6.44-20L469.44,271h25.08L449.68,394.09H426.19L381.54,271h24.59Z" transform="translate(-127.32 -109.58)"/><polygon class="a" points="457.36 183.4 457.36 161.45 379.99 161.45 379.99 284.51 457.36 284.51 457.36 262.56 403.59 262.56 403.59 233.05 451.75 233.05 451.75 211.93 403.59 211.93 403.59 183.4 457.36 183.4"/></svg>