<svg id="Layer_1" data-name="Layer 1" xmlns="http://www.w3.org/2000/svg" xmlns:xlink="http://www.w3.org/1999/xlink" viewBox="0 0 164.59249 42.69598"><defs><clipPath id="clip-path"><rect y="2.20398" width="72" height="39.94501" style="fill:none"/></clipPath></defs><g style="clip-path:url(#clip-path)"><path d="M14.288,14.82327a.73978.73978,0,0,0-.533-.13c-.021.001-.041.001-.057.001a.67036.67036,0,0,1-.611-.223,3.19409,3.19409,0,0,1-.177-1.332v-8.539c0-.07-.002-.155-.005-.246a2.60132,2.60132,0,0,1,.129-1.183c.097-.138.356-.127.564-.119.048.002.094.004.136.004.512,0,.567-.33.567-.472a.37353.37353,0,0,0-.108-.289.55906.55906,0,0,0-.44-.083c-.041.004-.079.007-.11.007H11.605a.54873.54873,0,0,0-.615.361l-3.645,9.398c-.587-1.651-3.216-9.05-3.215-9.046-.016-.051-.03-.1-.044-.148-.08-.278-.162-.565-.554-.565H1.409c-.031,0-.07-.003-.11-.007a.55916.55916,0,0,0-.44.083.374.374,0,0,0-.109.289c0,.142.056.472.568.472.413,0,.673.023.78.137.114.122.117.398.08.934l-.567,9.101c-.058,1.089-.123,1.466-1.007,1.466-.526,0-.604.249-.604.398,0,.172.073.377.421.377.267,0,.542-.018.809-.035.269-.017.547-.034.82-.034.27,0,.547.017.815.034.272.017.554.035.832.035.159,0,.531,0,.531-.377a.35047.35047,0,0,0-.101-.256.788.788,0,0,0-.56-.142H3.532a1.04307,1.04307,0,0,1-.799-.272c-.343-.363-.331-1.073-.281-1.962l.511-8.12c.581,1.686,3.505,10.163,3.502,10.153l.004.017c.041.168.118.482.395.482.234,0,.318-.243.373-.404.007-.022.014-.042.021-.059l3.944-10.414v9.06205c.003.358.008,1.024-.235,1.256a1.28251,1.28251,0,0,1-.772.261c-.017,0-.037,0-.057-.001a.74134.74134,0,0,0-.534.13.364.364,0,0,0-.105.269c0,.172.083.377.476.377.357,0,.725-.018,1.081-.035.36-.017.733-.034,1.101-.034.291,0,.588.017.875.034.289.017.589.035.885.035.393,0,.476-.205.476-.377a.36005.36005,0,0,0-.105-.269" style="fill:#495965"/><path d="M21.336,8.525c-.313,0-.524-.373-.791-.846-.38-.671-.852-1.506-1.738-1.506a3.03735,3.03735,0,0,0-1.862.842,4.73542,4.73542,0,0,0-1.35,3.371c0,2.057,1.332,4.277,3.482,4.277a2.83209,2.83209,0,0,0,2.127-.9l.035-.042c.114-.14.22-.255.348-.255a.283.283,0,0,1,.263.299c0,.118-.064.336-.619.862a4.25013,4.25013,0,0,1-2.887,1.09,4.75137,4.75137,0,0,1-4.439-4.903,5.2794,5.2794,0,0,1,5.134-5.282,4.46854,4.46854,0,0,1,2.452.732c.254.195.231.564.213.86-.004.067-.008.13-.008.182,0,.022.002.063.005.112a1.53155,1.53155,0,0,1-.146,1.011.2909.2909,0,0,1-.219.096" style="fill:#495965"/><path d="M36.119,14.82327a.7399.7399,0,0,0-.533-.13c-.021.001-.041.001-.058.001a.67033.67033,0,0,1-.61-.223,3.19409,3.19409,0,0,1-.177-1.332v-8.539c0-.07-.002-.155-.005-.246a2.63011,2.63011,0,0,1,.128-1.183c.098-.138.357-.127.565-.119.048.002.094.004.136.004.512,0,.567-.33.567-.472a.37344.37344,0,0,0-.108-.289.55916.55916,0,0,0-.44-.083c-.041.004-.079.007-.11.007H33.436a.54713.54713,0,0,0-.614.361l-3.646,9.398c-.587-1.651-3.216-9.05-3.215-9.046-.016-.051-.03-.1-.044-.148-.08-.278-.162-.565-.554-.565H23.24c-.031,0-.07-.003-.11-.007a.55912.55912,0,0,0-.44.083.374.374,0,0,0-.109.289c0,.142.056.472.568.472.413,0,.673.023.78.137.114.122.117.398.08.934l-.567,9.101c-.058,1.089-.123,1.466-1.007,1.466-.526,0-.604.249-.604.398,0,.172.073.377.421.377.267,0,.542-.018.809-.035.269-.017.547-.034.82-.034.27,0,.547.017.815.034.272.017.554.035.832.035.159,0,.531,0,.531-.377a.35044.35044,0,0,0-.101-.256.7882.7882,0,0,0-.56-.142h-.035a1.0431,1.0431,0,0,1-.799-.272c-.343-.363-.331-1.073-.281-1.962l.511-8.12c.581,1.686,3.505,10.163,3.502,10.153l.004.017c.041.168.118.482.395.482.234,0,.318-.243.373-.404.008-.022.014-.042.021-.059l3.943-10.414v8.95005l.001.112c.003.358.008,1.024-.235,1.256a1.28264,1.28264,0,0,1-.772.261c-.017,0-.037,0-.058-.001a.73982.73982,0,0,0-.533.13.36392.36392,0,0,0-.105.269c0,.172.083.377.476.377.357,0,.725-.018,1.081-.035.36-.017.733-.034,1.101-.034.291,0,.587.017.875.034.289.017.589.035.885.035.393,0,.476-.205.476-.377a.36014.36014,0,0,0-.105-.269" style="fill:#495965"/></g><path d="M39.23358,11.45108c-.754.426-1.452.95-1.452,1.9a1.10859,1.10859,0,0,0,1.214,1.134,2.38717,2.38717,0,0,0,1.714-.814,1.85724,1.85724,0,0,0,.453-1.518v-1.284c0-.015.001-.035.003-.062.017-.325-.017-.401-.033-.418a.03415.03415,0,0,0,.022.009h.004a.491.491,0,0,0-.09.039.79042.79042,0,0,1-.084.039l.018-.009-1.769.984m1.279-1.423c.65-.338.65-.338.65-1.085v-.941c0-1.119-.075-1.798-1.117-1.798-1.004,0-1.618.498-2.118,1.718l-.041.099a1.2492,1.2492,0,0,1-.559.738,2.31129,2.31129,0,0,1-.879.291.33456.33456,0,0,1-.376-.385,2.51182,2.51182,0,0,1,.843-1.612,5.25188,5.25188,0,0,1,3.558-1.518,2.50243,2.50243,0,0,1,1.853.602,1.71574,1.71574,0,0,1,.424,1.436l-.003.215v5.086c0,.344-.001,1.149.291,1.441a.34715.34715,0,0,0,.257.106.79145.79145,0,0,0,.551-.325c.106-.113.197-.21.317-.21a.2831.2831,0,0,1,.264.299c0,.281-.316.579-.486.739l-.018.016a2.55748,2.55748,0,0,1-1.458.653c-.701,0-.981-.695-1.166-1.155a1.37907,1.37907,0,0,0-.169-.345.04116.04116,0,0,0,.024.006.07611.07611,0,0,0,.029-.005,2.2928,2.2928,0,0,0-.255.214,4.60105,4.60105,0,0,1-2.906,1.412,1.83943,1.83943,0,0,1-1.931-1.813c0-1.537,1.682-2.442,2.795-3.04l.126-.068,1.5-.771" style="fill:#495965"/><path d="M44.80438,12.72778l.003-.031c.02-.18.06-.554.375-.554.343,0,.422.412.513.89.165.864.392,2.047,2.025,2.047a2.08089,2.08089,0,0,0,2.235-1.973c0-1.184-.917-1.621-1.776-1.938l-.175-.062c-1.212-.42905-2.873-1.016-2.873-2.76a2.6291,2.6291,0,0,1,1.076-2.094,3.70255,3.70255,0,0,1,2.365-.721,6.60475,6.60475,0,0,1,2.042.361c.342.18.316.57.296.883-.005.071-.009.139-.009.199,0,.014.003.055.007.097.031.382.05.805-.121.99a.27229.27229,0,0,1-.206.091c-.242,0-.343-.255-.469-.578a1.82742,1.82742,0,0,0-1.889-1.437,1.62087,1.62087,0,0,0-1.653,1.459c0,1.062.942,1.418,2.033,1.83,1.311.495,2.797,1.056,2.797,3.036,0,2.247-2.22,3.258-3.796,3.258a6.13675,6.13675,0,0,1-2.524-.659c-.343-.167-.339-.479-.336-.782l.001-.101c0-.005.058-1.442.059-1.451" style="fill:#495965"/><path d="M56.80011,14.186a.28353.28353,0,0,0-.263-.279c-.098,0-.183.076-.337.212a1.71812,1.71812,0,0,1-1.053.541.76624.76624,0,0,1-.571-.22,3.359,3.359,0,0,1-.44-2.123V6.832c0-.21.036-.288.067-.318.048-.046.166-.04.315-.033.061.003.131.006.204.006h1.081c.079,0,.148.004.21.007.172.009.308.016.407-.079a.52741.52741,0,0,0,.11-.391c0-.158,0-.422-.302-.422h-1.901c-.155-.012-.191-.025-.191-.301V3.778c0-.319-.154-.386-.282-.386-.189,0-.277.196-.311.271a4.63487,4.63487,0,0,1-1.798,2.117c-.013.012-.028.024-.044.037a.4935.4935,0,0,0-.231.374.26665.26665,0,0,0,.087.203.78836.78836,0,0,0,.582.097c.024-.002.048-.004.057-.004.045,0,.086-.001.123-.001a.54285.54285,0,0,1,.198.013c.008.008.034.048.034.248v5.525l-.002.305a4.17229,4.17229,0,0,0,.451,2.435,1.83623,1.83623,0,0,0,1.491.708,2.6724,2.6724,0,0,0,1.88-.836,1.14883,1.14883,0,0,0,.429-.698" style="fill:#495965"/><path d="M59.01891,7.54211a2.88515,2.88515,0,0,1,2.402-1.37,2.05565,2.05565,0,0,1,1.582.616,1.95971,1.95971,0,0,1,.472,1.175.68843.68843,0,0,1-.619.728,11.045,11.045,0,0,1-2.207.166h-1.563c-.03,0-.062.002-.096.003-.131.004-.33.011-.402-.059a.11671.11671,0,0,1-.031-.092,2.847,2.847,0,0,1,.462-1.167m5.858,5.585c-.12,0-.221.1-.404.282a3.28189,3.28189,0,0,1-2.453,1.111c-2.375,0-3.617-2.189-3.617-4.352,0-.261.028-.411.088-.471.068-.067.231-.067.477-.066l.098.001h5.85c.108,0,.359-.049.359-.495a4.234,4.234,0,0,0-.7-2.231,3.51575,3.51575,0,0,0-2.883-1.374,5.02586,5.02586,0,0,0-3.564,1.465,4.7013,4.7013,0,0,0-1.415,3.664c0,2.837,1.983,5.059,4.515,5.059a4.2627,4.2627,0,0,0,3.139-1.236l.013-.013c.539-.512.779-.834.779-1.045a.28767.28767,0,0,0-.282-.299" style="fill:#495965"/><path d="M70.77159,5.63718c-1.03,0-1.722.943-2.094,1.449-.052.072-.109.149-.154.205a1.471,1.471,0,0,1,0-.203c.001-.023.001-.042.001-.057v-1.051l.001-.031a.45118.45118,0,0,0-.091-.337.28343.28343,0,0,0-.211-.08.52543.52543,0,0,0-.386.252c-.019.025-.038.048-.063.076a4.14322,4.14322,0,0,1-1.542,1.069c-.024.008-.05.017-.078.026-.168.055-.45.146-.45.457,0,.182.141.299.36.299h.251a.63052.63052,0,0,1,.464.129,2.89305,2.89305,0,0,1,.161,1.212l-.001.071v4.02c0,.12.003.236.006.349.02.808-.003,1.199-.759,1.277-.03.003-.064.004-.099.006-.195.01-.557.028-.557.423,0,.216.149.344.398.344.301,0,.61-.016.91-.031.303-.016.616-.032.923-.032.28,0,.567.015.869.03.308.017.626.033.944.033a.33646.33646,0,0,0,.36-.365c0-.36-.371-.387-.57-.401-.03-.002-.06-.004-.086-.007-.756-.078-.779-.469-.759-1.277.002-.113.005-.229.005-.349v-3.479a3.18924,3.18924,0,0,1,.42-1.979c.207-.287.518-.719.881-.719.185,0,.292.124.45.328a.97353.97353,0,0,0,.785.487.92189.92189,0,0,0,.939-.986,1.16841,1.16841,0,0,0-1.228-1.158" style="fill:#495965"/><path d="M6.31317,19.76608v-.065a3.5627,3.5627,0,0,0-.108-1.11c-.1-.204-.304-.22-.559-.22h-.019a.46058.46058,0,0,1-.336-.093.26692.26692,0,0,1-.076-.195.2808.2808,0,0,1,.08-.202.39028.39028,0,0,1,.283-.098c.173,0,.347.014.514.027.163.012.332.025.495.025.14,0,.279-.012.426-.025.146-.013.297-.027.448-.027.329,0,.364.201.364.288,0,.199-.164.3-.487.3-.42,0-.44.208-.45.721-.001.066-.002.135-.005.205v3.889a2.495,2.495,0,0,1-.655,2.076,3.04014,3.04014,0,0,1-2.196.697,3.608,3.608,0,0,1-2.166-.602,2.299,2.299,0,0,1-.71-2.096v-4.142c.002-.333.003-.552-.089-.644-.071-.072-.229-.104-.512-.104-.271,0-.409-.097-.409-.288a.29456.29456,0,0,1,.08-.217.32033.32033,0,0,1,.239-.083c.217,0,.43.013.636.027.202.012.411.025.621.025s.425-.013.633-.026c.211-.013.43-.026.646-.026a.28743.28743,0,0,1,.319.3c0,.191-.141.288-.42.288-.282,0-.44.03205-.512.104-.091.092-.09.311-.088.643v3.792a4.31128,4.31128,0,0,0,.219,1.736c.378.692,1.399.745,1.704.745a2.3309,2.3309,0,0,0,1.719-.631,2.12314,2.12314,0,0,0,.371-1.526v-3.468Z" style="fill:#495965"/><path d="M13.70682,25.30716c-.017-.001-.034-.002-.048-.004-.39-.04-.405-.209-.393-.692.001-.066.003-.134.003-.205v-2.074a2.79926,2.79926,0,0,0-.358-1.697,1.6504,1.6504,0,0,0-1.426-.719,2.43537,2.43537,0,0,0-1.638.828c-.024.023-.05.047-.076.071v-.572l.001-.01995a.33109.33109,0,0,0-.069-.245.21933.21933,0,0,0-.16-.062.35252.35252,0,0,0-.266.168c-.01.013-.021.026-.037.045a2.391,2.391,0,0,1-.87.604l-.043.014c-.105.034-.299.097-.299.317a.23444.23444,0,0,0,.263.228h.146c.136,0,.208.029.23.057.037.041.081.192.079.672v2.386c0,.071.002.139.003.205.012.482-.003.651-.392.691-.016.002-.035.002-.055.004-.112.005-.375.018-.375.297a.25229.25229,0,0,0,.285.252c.178,0,.359-.014.534-.027.175-.012.355-.026.529-.026.16,0,.324.012.499.025.18.014.367.028.554.028a.24726.24726,0,0,0,.263-.265c0-.257-.267-.276-.381-.284-.017-.001-.034-.002-.048-.004-.39-.04-.406-.209-.394-.691.002-.066.003-.134.003-.205v-2.096a1.40912,1.40912,0,0,1,1.343-1.562,1.06934,1.06934,0,0,1,.945.5,2.44993,2.44993,0,0,1,.184,1.171v1.986c0,.071.002.139.004.205.012.483-.004.652-.394.692-.016.002-.034.002-.055.004-.112.005-.374.018-.374.297a.25227.25227,0,0,0,.285.252c.178,0,.359-.014.535-.027.174-.012.354-.026.529-.026.159,0,.324.012.498.025.18.014.367.028.554.028a.247.247,0,0,0,.262-.265c0-.257-.266-.276-.38-.284" style="fill:#495965"/><path d="M16.4809,24.4075c0,.071-.002.139-.003.205-.012.482.003.651.393.691.014.001.031.002.048.004.114.008.381.027.381.284a.24652.24652,0,0,1-.263.264c-.187,0-.374-.013-.554-.027-.174-.013-.338-.025-.498-.025-.175,0-.355.013-.529.026-.175.013-.357.026-.534.026a.25179.25179,0,0,1-.285-.252c0-.278.262-.291.374-.297l.055-.003c.389-.04.405-.209.393-.691-.002-.066-.003-.134-.003-.205v-2.387c.002-.479-.042-.63-.08-.671-.021-.028-.094-.058-.23-.058h-.146a.23284.23284,0,0,1-.262-.227c0-.22.194-.283.298-.317.016-.005.031-.01.043-.015a2.37092,2.37092,0,0,0,.871-.603c.016-.019.026-.032.037-.046a.35068.35068,0,0,1,.266-.167.21686.21686,0,0,1,.159.062.32145.32145,0,0,1,.069.244v4.185Zm-1.129-6.047a.69213.69213,0,0,1,.633-.751.66827.66827,0,0,1,.599.726c0,.45-.25.751-.621.751a.65333.65333,0,0,1-.611-.726" style="fill:#495965"/><path d="M23.2847,20.1214a.22147.22147,0,0,0-.178-.049c-.012.001-.024.002-.036.002h-1.65c-.073,0-.296,0-.296.238,0,.262.324.262.431.262.073,0,.31.016.31.211a1.60745,1.60745,0,0,1-.106.401c-.012.035-.024.069-.033.098.002-.007-.868,2.113-1.198,2.918-.289-.79-1.033-2.822-1.034-2.823l-.015-.041a2.27726,2.27726,0,0,1-.156-.541c0-.176.181-.223.287-.223l.036.002a.45412.45412,0,0,0,.339-.075.22185.22185,0,0,0,.068-.165.25842.25842,0,0,0-.07-.191.33376.33376,0,0,0-.25-.072l-.021.001h-2.028l-.022-.001a.27813.27813,0,0,0-.21.062.23722.23722,0,0,0-.064.177c0,.174.114.262.334.262.357.019.406.156.551.562l.029.082s1.627,4.374,1.629,4.379l.065.156a.24531.24531,0,0,0,.222.207c.155,0,.234-.189.286-.314l.014-.032.005-.009.004-.009,1.607-3.873c.024-.057.047-.115.071-.177.168-.43.359-.917.748-.973l.032-.003c.098-.011.359-.038.359-.283a.22445.22445,0,0,0-.06-.166" style="fill:#495965"/><path d="M24.8432,21.17258a1.61983,1.61983,0,0,1,1.35-.774,1.13716,1.13716,0,0,1,.878.34,1.087,1.087,0,0,1,.261.65c0,.208-.092.317-.32.374a6.338,6.338,0,0,1-1.267.095h-.909c-.017,0-.036.001-.056.001-.043.002-.171.006-.195-.019a.04068.04068,0,0,1-.002-.016,1.62538,1.62538,0,0,1,.26-.651m3.357,3.175c-.092,0-.16.069-.272.181a1.85335,1.85335,0,0,1-1.387.634,2.24138,2.24138,0,0,1-2.048-2.491c0-.183.025-.227.036-.238a.58042.58042,0,0,1,.24-.023h3.454c.061,0,.262-.024.262-.338a2.532,2.532,0,0,0-.417-1.331,2.09118,2.09118,0,0,0-1.718-.823,2.967,2.967,0,0,0-2.107.869,2.783,2.783,0,0,0-.845,2.172,2.825,2.825,0,0,0,2.683,3.001,2.53972,2.53972,0,0,0,1.868-.735c.413-.395.469-.55.469-.649a.22177.22177,0,0,0-.218-.229" style="fill:#495965"/><path d="M32.20889,19.9881a1.692,1.692,0,0,0-1.251.854v-.621a.31573.31573,0,0,0-.069-.242.2129.2129,0,0,0-.159-.063.34893.34893,0,0,0-.266.168l-.037.045a2.38561,2.38561,0,0,1-.871.604l-.043.014c-.104.034-.298.097-.298.317a.23356.23356,0,0,0,.262.228h.146c.136,0,.209.03.23.057.037.042.082.192.08.672l-.001.041v2.345c0,.071.002.139.004.205.012.482-.004.651-.393.691-.016.002-.035.003-.055.004-.112.005-.374.018-.374.297a.25226.25226,0,0,0,.285.252c.177,0,.359-.014.534-.027.174-.012.354-.026.529-.026.159,0,.324.012.498.025.18.014.367.028.554.028a.24647.24647,0,0,0,.262-.265c0-.257-.266-.276-.38-.284-.018-.001-.034-.002-.048-.004-.39-.04-.405-.209-.393-.691.001-.066.003-.134.003-.205v-2.028a1.77919,1.77919,0,0,1,.234-1.115c.11294-.157.284-.396.468-.396.082,0,.134.062.219.171a.617.617,0,0,0,.498.303.58683.58683,0,0,0,.599-.627.73119.73119,0,0,0-.767-.727" style="fill:#495965"/><path d="M33.443,24.15787l.002-.017c.012-.111.04-.371.271-.371.243,0,.295.272.349.561.098.511.219,1.148,1.121,1.148a1.15759,1.15759,0,0,0,1.246-1.095c0-.59-.381-.85-.997-1.077l-.097-.035c-.72-.254-1.705-.603-1.705-1.657a1.58524,1.58524,0,0,1,.641-1.261,2.1848,2.1848,0,0,1,1.408-.437,3.834,3.834,0,0,1,1.213.221c.232.122.215.378.203.566-.003.041-.005.079-.005.112,0,.007.002.032.004.052a.90012.90012,0,0,1-.084.617.21779.21779,0,0,1-.161.07c-.178,0-.249-.18-.324-.371a1.01783,1.01783,0,0,0-1.049-.801.88842.88842,0,0,0-.908.795c0,.581.533.782,1.15,1.015.78.294,1.664.628,1.664,1.817a2.11268,2.11268,0,0,1-2.266,1.949,3.595,3.595,0,0,1-1.489-.391c-.226-.109-.224-.318-.222-.501l.001-.059c0-.005.033-.841.034-.85" style="fill:#495965"/><path d="M39.53151,19.08688c.372,0,.622-.302.622-.751a.66825.66825,0,0,0-.599-.726.69212.69212,0,0,0-.633.751.65324.65324,0,0,0,.61.726" style="fill:#495965"/><path d="M40.4881,25.30716c-.017-.001-.034-.002-.049-.004-.389-.04-.404-.209-.392-.691.001-.066.003-.134.003-.205v-4.184a.32243.32243,0,0,0-.069-.245.21745.21745,0,0,0-.16-.062.34872.34872,0,0,0-.265.168c-.011.013-.022.026-.037.045a2.386,2.386,0,0,1-.871.604l-.043.014c-.104.034-.298.097-.298.317a.23355.23355,0,0,0,.262.228h.146c.136,0,.208.029.23.057.037.041.082.192.08.672l-.001.041v2.345c0,.071.002.139.004.205.012.482-.004.651-.393.691-.016.002-.035.002-.055.004-.112.005-.374.018-.374.297a.2523.2523,0,0,0,.285.252c.177,0,.358-.014.534-.027.174-.012.354-.026.529-.026.159,0,.324.012.498.025.18.014.367.028.554.028a.24775.24775,0,0,0,.263-.265c0-.257-.267-.276-.381-.284" style="fill:#495965"/><path d="M44.234,25.00958a.21769.21769,0,0,0-.207-.216c-.077,0-.135.052-.231.137a.95326.95326,0,0,1-.576.302.39325.39325,0,0,1-.293-.112c-.241-.241-.241-.819-.241-1.201v-3.197c0-.122.022-.146.023-.147a.4695.4695,0,0,1,.143-.005c.037.002.077.004.121.004h.628c.045,0,.084.002.12.004a.33878.33878,0,0,0,.275-.06.35381.35381,0,0,0,.081-.268c0-.082,0-.299-.229-.299h-1.1a.12972.12972,0,0,1-.051-.01.30707.30707,0,0,1-.011-.111v-.885c0-.25-.152-.277-.217-.277-.144,0-.207.141-.229.189a2.64991,2.64991,0,0,1-1.028,1.211l-.025.02a.33782.33782,0,0,0-.154.26.21.21,0,0,0,.068.158.49982.49982,0,0,0,.379.07l.029-.002c.026,0,.051,0,.072-.001.025,0,.054-.001.074,0a.55283.55283,0,0,1,.006.099v3.221l-.001.178a2.48259,2.48259,0,0,0,.271,1.451,1.11175,1.11175,0,0,0,.908.438,1.59755,1.59755,0,0,0,1.128-.504.71341.71341,0,0,0,.267-.447" style="fill:#495965"/><path d="M50.15549,20.074h-1.782a.2866.2866,0,0,0-.285.287c0,.214.27.214.385.214.31,0,.466.108.466.321a1.61063,1.61063,0,0,1-.137.451l-.01.025c-.001.002-.82,2.13-1.135,2.947-.312-.833-1.136-3.031-1.136-3.031l-.01-.024a1.45647,1.45647,0,0,1-.116-.443c0-.239.397-.246.443-.246.263,0,.397-.072.397-.214a.2769.2769,0,0,0-.285-.287h-2.164a.30346.30346,0,0,0-.341.287c0,.214.278.214.397.214.277,0,.393.264.537.667l.05.137s1.48,3.895,1.478,3.891c.015.043.032.086.05.132a1.13407,1.13407,0,0,1,.1.363.71574.71574,0,0,1-.065.257c-.01.024-.019.049-.027.072l-.381.986c-.012.03-.023.062-.033.092-.054.154-.095.257-.18.279a1.62833,1.62833,0,0,1-.373.023l-.091-.001c-.486,0-.486.431-.486.616a.50787.50787,0,0,0,.134.374.82165.82165,0,0,0,.598.154h.024c.488,0,.548-.134.663-.56,0,0,.009-.035.005-.023l2.252-5.918a8.0848,8.0848,0,0,1,.602-1.308.66532.66532,0,0,1,.395-.234c.015-.003.034-.004.054-.006.113-.011.303-.029.303-.195a.28164.28164,0,0,0-.296-.299" style="fill:#495965"/><path d="M71.9099,17.60068v13.737c-.295,3.411-3.659,9.015-9.209,10.733l-.084.025-.084.026-.086.027-.084-.027-.085-.026-.084-.025c-5.555-1.72-8.921-7.294-9.216-10.658-.002-.04-.003-.055-.003-13.243v-.857h18.935Z" style="fill:#fff"/><path d="M71.3372,17.7518H53.4142v.418c0,3.96,0,13.174.001,13.205.284,3.24,3.538,8.614,8.909,10.276l.084.026.039.012.04-.012.084-.026c5.365-1.66,8.616-7.049,8.899-10.313V17.7518Z" style="fill:#495965"/><path d="M62.4223,23.09128h8.631v8.247c-.249,2.835-3.201,8.241-8.606,9.913-5.405-1.672-8.367-7.078-8.615-9.913v-8.247h8.59Z" style="fill:#fec057"/><path d="M61.35638,26.71579s.874.058.943-.693c0,0,.069.564.242.566.195-.002.195-.588.195-.588a1.29238,1.29238,0,0,0,1.058.853c-.636-.437-.599-1.61-.594-1.698.037-.588.544-.533.583-.88.054-.483-.528-.38-.528-.38s.246.003.292.121c.104.275-.369.309-.369.309-.578.149-.776-.193-.985-.231-.209-.039-.247.099-.291.148s-.934.102-1.12.297a.47052.47052,0,0,0-.044.656.45355.45355,0,0,1,.419-.326,1.57393,1.57393,0,0,1,1.023.682,6.62182,6.62182,0,0,1-1.582-.034.523.523,0,0,1-.218-.34s-.068.327.086.432a.41435.41435,0,0,0,.293.092c.088.005,1.318-.032,1.45-.033-.03.092-.002.331-.272.353l-1.013.001s-.03.254.366.143c.082-.023.349-.094.429.049.053.095.234.412-.363.501" style="fill:#7a003c"/><path d="M62.01361,35.56049a1.35805,1.35805,0,0,1-.973.038s.015.169-.534.4a1.41419,1.41419,0,0,0-.558,2.487s-.468-1.445.258-1.782c0,0,.629.615,1.539-.606a1.888,1.888,0,0,0,.268-.537" style="fill:#7a003c"/><path d="M59.97,30.46649c-.028.376-.083.392-.427.561a1.18631,1.18631,0,0,1-.201-.258c-.213-.408.143-1.01.143-1.01a.93971.93971,0,0,1-.948.317c.042-.408.587-.778.587-.778a1.28716,1.28716,0,0,1-.898-.184,2.48969,2.48969,0,0,1,.669-.598,1.58874,1.58874,0,0,1-.869-.353,2.74135,2.74135,0,0,1,.726-.503,2.12674,2.12674,0,0,1-.543-.64,1.62784,1.62784,0,0,1,.84-.163c-.724-.529.058-1.972.058-1.972-.11,2.178,1.568,1.611,1.437,2.72-.108.912-1.099.242-1.099.242-.172,1.27.554,1.39.554,1.39s-.035.306-.046.628c-.014.393.03.42.017.601" style="fill:#7a003c"/><path d="M57.7598,33.63287a2.64779,2.64779,0,0,0,2.724-1.808,1.72559,1.72559,0,0,1-.259-.494l-.037-.095a2.94483,2.94483,0,0,1-.736.384,4.19211,4.19211,0,0,1-.418-.412,1.48719,1.48719,0,0,1-.261-.559,1.23947,1.23947,0,0,1-.75-.331,1.45434,1.45434,0,0,1,.126-.66,2.43248,2.43248,0,0,1-.567-.413,2.17142,2.17142,0,0,1,.31-.525c-.445-.345-.461-.556-.461-.556a1.696,1.696,0,0,1,.516-.593,3.43964,3.43964,0,0,1-.339-.69,1.71316,1.71316,0,0,1,.63-.418,1.61963,1.61963,0,0,1-.025-.548s-2.649-1.381-2.943-2.275a6.64489,6.64489,0,0,0-.073,1.305c.044.455.75,1.199,2.456,2.341a4.75774,4.75774,0,0,1-2.794-1.285,4.59359,4.59359,0,0,0,.176,1.296c.147.391.888.671,2.559,1.491a2.85882,2.85882,0,0,1-2.705-.471,6.33484,6.33484,0,0,0,.506,1.146c.173.275.865.737,2.475.498a2.42261,2.42261,0,0,1-2.521.952s.08.706.552.912c.349.15305,1.085.249,2.259-.66a1.98119,1.98119,0,0,1-2.435,1.218,2.94433,2.94433,0,0,0,.863.94c.403.214,1.235.043,2.584-1.425a2.05547,2.05547,0,0,1-1.412,1.735" style="fill:#7a003c"/><path d="M60.73679,32.30267a5.46211,5.46211,0,0,1,.596,1.057s-.899.776-.738,1.627a1.51718,1.51718,0,0,1-.096-1.087c.019-.044.116-.303.116-.303a1.7009,1.7009,0,0,1-1.292.092s.553.065,1.166-.903c.325-.514.248-.483.248-.483" style="fill:#7a003c"/><path d="M57.74879,34.92038c-.104.006-.512-.143-.616.165-.121.356.295.517.534.308.258-.225.654-.22.748-.061.042.073.095.23-.253.495-.109.083-.694.446-.286.831.139.132.519.08.616-.451.071-.392.194-.594.339-.66.073-.033.311-.103.436.003.035.029.116.091.116.091a.26288.26288,0,0,0,.42-.257c-.064-.262-.271-.199-.419-.127a.38656.38656,0,0,1-.254.009c-.099-.049-.132-.163.033-.242a1.55652,1.55652,0,0,0,.842-.724,1.461,1.461,0,0,1-.62-.062s-.632.848-1.115.623a.54272.54272,0,0,1-.22-.447.25589.25589,0,0,0-.438-.204c-.146.171.022.35.173.409.088.034.225.151.17.241-.055.089-.133.056-.206.06" style="fill:#7a003c"/><path d="M57.50459,33.99088a.27193.27193,0,0,0-.147.176.27961.27961,0,0,0-.422.106s.048-.465.569-.282" style="fill:#7a003c"/><path d="M56.8954,35.17249a.35963.35963,0,0,0,.055.319s-.315.117-.106.521a.53131.53131,0,0,1,.051-.84" style="fill:#7a003c"/><path d="M57.537,36.579a.359.359,0,0,0,.164.279s-.254.221.084.525a.5314.5314,0,0,1-.248-.804" style="fill:#7a003c"/><path d="M60.0164,35.62906c.084.035.157.118.123.346a.34227.34227,0,0,0-.115-.569c-.014-.008-.03-.016-.046-.024a.26677.26677,0,0,1-.024.228.36831.36831,0,0,1,.062.019" style="fill:#7a003c"/><path d="M65.0247,35.6084c-.084.035-.157.118-.124.346a.34212.34212,0,0,1,.116-.569c.014-.008.03-.016.046-.024a.26886.26886,0,0,0,.023.228.37041.37041,0,0,0-.061.019" style="fill:#7a003c"/><path d="M62.54189,27.24738a.61965.61965,0,0,0,.325-.226,1.3714,1.3714,0,0,0,.818.319c.528,1.385,1.669,2.225.612,4.103-1.104,1.959-1.902,2.226-.362,3.568,0,0-.985.274-1.212-.578,0,0,.048.939-.182,1.186-.229-.247-.183-1.173-.183-1.173-.228.852-1.212.578-1.212.578,1.54-1.342.741-1.609-.362-3.568-1.058-1.878.094-2.724.621-4.108a1.47668,1.47668,0,0,0,.828-.322.51627.51627,0,0,0,.309.221" style="fill:#7a003c"/><path d="M63.06941,35.56049a1.358,1.358,0,0,0,.973.038s-.015.169.534.4a1.414,1.414,0,0,1,.557,2.487s.469-1.445-.257-1.782c0,0-.63.615-1.539-.606a1.8878,1.8878,0,0,1-.268-.537" style="fill:#7a003c"/><path d="M65.11259,30.46649c.028.376.083.392.427.561a1.187,1.187,0,0,0,.201-.258c.213-.408-.142-1.01-.142-1.01a.9379.9379,0,0,0,.947.317c-.042-.408-.587-.778-.587-.778a1.28719,1.28719,0,0,0,.898-.184,2.48983,2.48983,0,0,0-.669-.598,1.58874,1.58874,0,0,0,.869-.353,2.741,2.741,0,0,0-.726-.503,2.12683,2.12683,0,0,0,.543-.64,1.6279,1.6279,0,0,0-.84-.163c.724-.529-.058-1.972-.058-1.972.11,2.178-1.568,1.611-1.437,2.72.108.912,1.099.242,1.099.242.172,1.27-.554,1.39-.554,1.39s.035.306.046.628c.014.393-.03.42-.017.601" style="fill:#7a003c"/><path d="M67.3228,33.63287a2.64778,2.64778,0,0,1-2.724-1.808,1.72567,1.72567,0,0,0,.259-.494l.037-.095a2.94466,2.94466,0,0,0,.736.384,4.193,4.193,0,0,0,.418-.412,1.48716,1.48716,0,0,0,.261-.559,1.23933,1.23933,0,0,0,.75-.331,1.45434,1.45434,0,0,0-.126-.66,2.43215,2.43215,0,0,0,.567-.413,2.17126,2.17126,0,0,0-.31-.525c.445-.345.461-.556.461-.556a1.69586,1.69586,0,0,0-.516-.593,3.43931,3.43931,0,0,0,.339-.69,1.71324,1.71324,0,0,0-.63-.418,1.61963,1.61963,0,0,0,.025-.548s2.65-1.381,2.943-2.275a6.64449,6.64449,0,0,1,.073,1.305c-.044.455-.75,1.199-2.456,2.341a4.75783,4.75783,0,0,0,2.794-1.285,4.5928,4.5928,0,0,1-.176,1.296c-.147.391-.888.671-2.559,1.491a2.85875,2.85875,0,0,0,2.705-.471,6.45687,6.45687,0,0,1-.505,1.146c-.174.275-.866.737-2.476.498a2.42259,2.42259,0,0,0,2.521.952s-.08.706-.552.912c-.349.15305-1.085.249-2.259-.66a1.98118,1.98118,0,0,0,2.435,1.218,2.94457,2.94457,0,0,1-.863.94c-.403.214-1.235.043-2.584-1.425a2.05751,2.05751,0,0,0,1.412,1.735" style="fill:#7a003c"/><path d="M64.34579,32.30267a5.462,5.462,0,0,0-.596,1.057s.899.776.738,1.627a1.51147,1.51147,0,0,0,.096-1.087c-.019-.044-.116-.303-.116-.303a1.70092,1.70092,0,0,0,1.292.092s-.553.065-1.166-.903c-.325-.514-.248-.483-.248-.483" style="fill:#7a003c"/><path d="M67.3338,34.92038c.104.006.512-.143.616.165.121.356-.295.517-.534.308-.258-.225-.654-.22-.748-.061-.042.073-.095.23.253.495.109.083.694.446.286.831-.139.132-.519.08-.616-.451-.071-.392-.194-.594-.339-.66-.073-.033-.311-.103-.436.003-.035.029-.116.091-.116.091a.26288.26288,0,0,1-.42-.257c.064-.262.271-.199.419-.127a.3865.3865,0,0,0,.254.009c.099-.049.132-.163-.033-.242a1.55651,1.55651,0,0,1-.842-.724,1.461,1.461,0,0,0,.62-.062s.632.848,1.115.623a.54281.54281,0,0,0,.22-.447.25588.25588,0,0,1,.438-.204c.146.171-.022.35-.173.409-.088.034-.225.151-.17.241.055.089.133.056.206.06" style="fill:#7a003c"/><path d="M67.578,33.99088a.272.272,0,0,1,.147.176.2796.2796,0,0,1,.422.106s-.048-.465-.569-.282" style="fill:#7a003c"/><path d="M68.18719,35.17249a.35959.35959,0,0,1-.055.319s.315.117.106.521a.53131.53131,0,0,0-.051-.84" style="fill:#7a003c"/><path d="M67.54559,36.579a.359.359,0,0,1-.164.279s.254.221-.084.525a.5314.5314,0,0,0,.248-.804" style="fill:#7a003c"/><path d="M62.5401,36.28537a.65232.65232,0,0,0,.227-.135,2.03118,2.03118,0,0,0,1.926,1.253s-.077.299-.605.332c0,0,.904.419.385.842-.341.277-.609-.5-.609-.5s-.041.712-.656.718c0,0,.914-.534-.04-1.787.092.879-.214,1.697-.627,1.697-.412,0-.718-.818-.626-1.697-.955,1.253-.041,1.787-.041,1.787-.615-.006-.655-.718-.655-.718s-.268.777-.609.5c-.519-.423.385-.842.385-.842-.529-.033-.606-.332-.606-.332a2.02978,2.02978,0,0,0,1.926-1.253.64685.64685,0,0,0,.225.135" style="fill:#7a003c"/><path d="M62.4155,24.65128l-.011-.04-.042-.16-.01-.039-.037.015-.715.278.384-.021a.21775.21775,0,0,0-.023.075.1605.1605,0,0,0,.321,0,.15872.15872,0,0,0-.029-.091l.121-.013Z" style="fill:#fec057"/><path d="M64.38429,29.66739a.63957.63957,0,0,0-.395-.37.54252.54252,0,0,0-.06-.111.52913.52913,0,0,0-.63-.196.86717.86717,0,0,0-.144.068l.043-.06.009-.011a.71.71,0,0,0,.102-.195.5292.5292,0,0,0-.196-.63.47313.47313,0,0,0-.111-.059.63513.63513,0,0,0-.37-.396l-.069-.035-.07.035a.6425.6425,0,0,0-.37.395.5431.5431,0,0,0-.111.06.53053.53053,0,0,0-.196.63.70549.70549,0,0,0,.103.195l.008.011.048.066a.81188.81188,0,0,0-.153-.074.53083.53083,0,0,0-.631.196.5382.5382,0,0,0-.059.111.64049.64049,0,0,0-.396.37l-.034.07.034.069a.64276.64276,0,0,0,.396.37.53842.53842,0,0,0,.059.111.53085.53085,0,0,0,.631.196.66919.66919,0,0,0,.194-.103l.012-.008.073-.053v.641l-.076-.063-.098.135-.008.012a.68033.68033,0,0,0-.103.194.53053.53053,0,0,0,.196.63.54218.54218,0,0,0,.111.06.63993.63993,0,0,0,.37.395l.07.035.069-.035a.63651.63651,0,0,0,.37-.395.47569.47569,0,0,0,.111-.06.5292.5292,0,0,0,.196-.63.68454.68454,0,0,0-.102-.194l-.009-.012-.097-.133-.076.062v-.638l.068.049.011.008a.67887.67887,0,0,0,.195.103.52915.52915,0,0,0,.63-.196.54274.54274,0,0,0,.06-.111.63691.63691,0,0,0,.395-.37l.034-.069Z" style="fill:#fec057"/><path d="M64.00641,29.72366a.35435.35435,0,0,0-.337-.145.21735.21735,0,0,0-.27-.293l-.032.014.022.026a.16337.16337,0,0,1,.028.075.17188.17188,0,0,1-.077.161.371.371,0,0,1-.176.032h-.454v-.681a.385.385,0,0,1,.033-.176.16972.16972,0,0,1,.161-.077.15647.15647,0,0,1,.074.028l.027.022.013-.032a.20955.20955,0,0,0-.082-.251.20564.20564,0,0,0-.21-.019.35291.35291,0,0,0-.145-.337l-.007-.005h-.017l-.007.005a.35287.35287,0,0,0-.145.337.20564.20564,0,0,0-.21.019.20952.20952,0,0,0-.082.251l.013.031.027-.021a.15647.15647,0,0,1,.074-.028.16971.16971,0,0,1,.161.077.34684.34684,0,0,1,.032.169l-.001.002v.686h-.474a.36889.36889,0,0,1-.176-.032.16978.16978,0,0,1-.077-.161.15082.15082,0,0,1,.028-.074l.022-.027-.032-.014a.21093.21093,0,0,0-.251.082.20742.20742,0,0,0-.019.211.353.353,0,0,0-.337.145l-.005.007v.017l.005.00595a.35077.35077,0,0,0,.337.145.20734.20734,0,0,0,.019.211.21086.21086,0,0,0,.251.082l.031-.013-.021-.027a.163.163,0,0,1-.028-.074.17049.17049,0,0,1,.077-.162.35818.35818,0,0,1,.169-.031h.481v1.233l.001.005v.001a.35111.35111,0,0,1-.032.169.17193.17193,0,0,1-.161.077.15663.15663,0,0,1-.074-.028l-.027-.022-.013.03205a.21645.21645,0,0,0,.292.27.35281.35281,0,0,0,.145.337l.007.005h.017l.007-.005a.35286.35286,0,0,0,.145-.337.21645.21645,0,0,0,.292-.27l-.013-.031-.027.021a.15663.15663,0,0,1-.074.028.17193.17193,0,0,1-.161-.077.38667.38667,0,0,1-.033-.177v-1.231h.461a.36044.36044,0,0,1,.169.031.17258.17258,0,0,1,.077.162.16292.16292,0,0,1-.028.074l-.022.027.032.013a.21736.21736,0,0,0,.27-.293.35213.35213,0,0,0,.337-.145l.005-.007v-.016Z" style="fill:#7a003c"/><rect x="53.826" y="18.17197" width="17.23" height="4.91504" style="fill:#495965"/><path d="M56.68289,22.32278h.21a.34228.34228,0,0,1-.19-.31,1.91142,1.91142,0,0,1,.061-.552l.749.064-.148-.239.779-.736-.214-.067.135-.527-.485.104-.086-.243-.341.386.09-.91-.278.23-.327-.638-.326.638-.278-.23.09.91-.341-.386-.086.243-.485-.104.134.527-.213.067.779.736-.148.239.749-.064a1.60046,1.60046,0,0,1,.061.552.3515.3515,0,0,1-.19.31Z" style="fill:#fec057"/><path d="M68.15759,22.32278h-.211a.34106.34106,0,0,0,.191-.31,1.91123,1.91123,0,0,0-.061-.552l-.75.064.149-.239-.779-.736.213-.067-.134-.527.485.104.086-.243.341.386-.091-.91.279.23.326-.638.327.638.278-.23-.09.91.341-.386.086.243.485-.104-.135.527.214.067-.779.736.148.239-.749-.064a1.60062,1.60062,0,0,0-.061.552.35148.35148,0,0,0,.19.31Z" style="fill:#fec057"/><path d="M64.98871,19.55438v2.413s-.756.008-.91-.01c-.272-.032-1.003-.453-1.421-.343a.3662.3662,0,0,0-.179.1.37651.37651,0,0,0-.183-.101c-.419-.106-1.146.312-1.417.344-.155.018-.911.01-.911.01v-2.413h-.504v2.852h2.47s.187-.399.541-.402c.362-.004.549.402.549.402h2.47v-2.852Z" style="fill:#7a003c"/><path d="M62.47839,19.16339a.64154.64154,0,0,0-.183-.181v2.631a.21325.21325,0,0,0,.362.001l.001-2.06v-.57a.65162.65162,0,0,0-.18.179" style="fill:#7a003c"/><path d="M61.15,19.03079a2.53675,2.53675,0,0,1-.814.088l-.368.001v2.848s.756.008.911-.01c.27-.033.997-.45,1.416-.345v-2.63a1.33976,1.33976,0,0,0-1.145.048" style="fill:#fec057"/><path d="M64.6212,19.11887a2.565,2.565,0,0,1-.814-.088,1.33863,1.33863,0,0,0-1.149-.046v.863l-.001,1.766c.419-.109,1.15.311,1.421.343.155.019.911.011.911.011v-2.848Z" style="fill:#fec057"/><path d="M62.65819,19.55438v0Z" style="fill:#fec057"/><polygon points="62.658 19.554 62.658 19.554 62.657 21.614 62.658 19.848 62.658 19.554" style="fill:#fec057"/><rect x="82.05899" width="0.49901" height="42.69598" style="fill:#495965"/><path d="M98.899,4.88708c.12-1.86911-.614-2.857-2.523-2.857-1.896,0-3.097.77429-3.097,3.4978V8.25116c0,3.738,1.842,3.81811,3.043,3.81811.628,0,2.777,0,2.724-3.04379H97.778c-.014,1.88239-1.149,2.0159-1.522,2.0159-.948,0-1.723-.28027-1.723-2.64328V5.82159c0-1.65539.241-1.89581.281-2.0025a1.50115,1.50115,0,0,1,1.455-.74768,1.60269,1.60269,0,0,1,1.081.41385,2.24346,2.24346,0,0,1,.281,1.40182Z" style="fill:#7a003c"/><path d="M103.969,12.06927c2.043,0,3.031-1.05459,3.031-3.72457V5.18079c0-1.9224-.988-3.1507-3.031-3.1507-2.042,0-3.03,1.2283-3.03,3.1507V8.3447c0,2.67.988,3.72457,3.03,3.72457Zm0-1.02789c-1.161,0-1.775-.534-1.775-2.64328V5.14069c0-2.01581,1.388-2.08258,1.775-2.08258s1.776.06677,1.776,2.08258V8.3981c0,2.10929-.614,2.64328-1.776,2.64328Z" style="fill:#7a003c"/><polygon points="114.707 2.23 114.707 10.481 114.68 10.481 110.929 2.23 109.193 2.23 109.193 11.869 110.288 11.869 110.288 3.512 110.314 3.512 114.119 11.869 115.801 11.869 115.801 2.23 114.707 2.23" style="fill:#7a003c"/><polygon points="117.514 2.23 117.514 3.298 120.051 3.298 120.051 11.869 121.279 11.869 121.279 3.298 123.815 3.298 123.815 2.23 117.514 2.23" style="fill:#7a003c"/><rect x="125.56799" y="2.23041" width="1.22801" height="9.63867" style="fill:#7a003c"/><polygon points="134.619 2.23 134.619 10.481 134.593 10.481 130.841 2.23 129.106 2.23 129.106 11.869 130.201 11.869 130.201 3.512 130.227 3.512 134.032 11.869 135.714 11.869 135.714 2.23 134.619 2.23" style="fill:#7a003c"/><path d="M137.933,8.3447c0,2.67.988,3.72457,3.03,3.72457,2.043,0,3.031-1.05459,3.031-3.72457V2.23041h-1.228V8.3981c0,2.10929-.641,2.64328-1.803,2.64328-1.161,0-1.802-.534-1.802-2.64328V2.23041h-1.228Z" style="fill:#7a003c"/><rect x="146.267" y="2.23041" width="1.22899" height="9.63867" style="fill:#7a003c"/><polygon points="155.319 2.23 155.319 10.481 155.292 10.481 151.541 2.23 149.805 2.23 149.805 11.869 150.9 11.869 150.9 3.512 150.927 3.512 154.731 11.869 156.413 11.869 156.413 2.23 155.319 2.23" style="fill:#7a003c"/><path d="M164.588,4.807c.08-2.0159-.908-2.77689-2.991-2.77689-2.042,0-3.03,1.2283-3.03,3.1507V8.3447c0,2.67.988,3.72457,3.03,3.72457a5.94276,5.94276,0,0,0,2.951-.72088V6.66257h-3.004v1.068h1.775V10.6142a3.045,3.045,0,0,1-1.722.42718c-1.161,0-1.775-.534-1.775-2.64328V5.14069c0-2.01581,1.388-2.08258,1.775-2.08258,1.242,0,1.709.61407,1.709,1.74887Z" style="fill:#7a003c"/><polygon points="98.432 25.869 98.432 24.801 94.614 24.801 94.614 21.464 98.085 21.464 98.085 20.396 94.614 20.396 94.614 17.298 98.352 17.298 98.352 16.23 93.385 16.23 93.385 25.869 98.432 25.869" style="fill:#7a003c"/><path d="M101.526,17.2984h1.616c1.281,0,1.882.72089,1.882,2.67v1.94907c0,2.2428-.628,2.88361-2.336,2.88361h-1.162Zm-1.228,8.57068h2.216c1.682,0,2.657-.41379,3.177-1.24149.401-.6408.588-1.829.588-3.88491a9.9438,9.9438,0,0,0-.427-3.0438,2.57446,2.57446,0,0,0-2.59-1.4685h-2.964Z" style="fill:#7a003c"/><path d="M108.375,22.34467c0,2.67.988,3.72464,3.03,3.72464,2.043,0,3.031-1.05463,3.031-3.72464V16.23038h-1.229v6.16769c0,2.10932-.64,2.64331-1.802,2.64331-1.161,0-1.802-.534-1.802-2.64331V16.23038h-1.228Z" style="fill:#7a003c"/><path d="M122.125,18.88708c.12-1.86907-.614-2.857-2.523-2.857-1.896,0-3.097.77429-3.097,3.4978v2.7233c0,3.738,1.842,3.81812,3.044,3.81812.627,0,2.776,0,2.723-3.0438h-1.268c-.014,1.88236-1.148,2.01587-1.522,2.01587-.948,0-1.722-.2803-1.722-2.64331V19.82159c0-1.65542.24-1.89581.28-2.0025a1.50261,1.50261,0,0,1,1.455-.74771,1.60654,1.60654,0,0,1,1.082.41391,2.25018,2.25018,0,0,1,.28,1.40179Z" style="fill:#7a003c"/><path d="M123.478,25.86908h1.241l.721-2.2962h3.725l.694,2.2962h1.375l-3.137-9.6387h-1.562Zm5.353-3.3642h-3.084l1.509-5.1398h.026Z" style="fill:#7a003c"/><polygon points="131.197 16.23 131.197 17.298 133.733 17.298 133.733 25.869 134.961 25.869 134.961 17.298 137.498 17.298 137.498 16.23 131.197 16.23" style="fill:#7a003c"/><rect x="139.25099" y="16.23038" width="1.228" height="9.6387" style="fill:#7a003c"/><path d="M145.733,26.06931c2.043,0,3.031-1.05463,3.031-3.72464V19.18079c0-1.9224-.988-3.1507-3.031-3.1507-2.042,0-3.03,1.2283-3.03,3.1507v3.16388c0,2.67.988,3.72464,3.03,3.72464Zm0-1.02793c-1.161,0-1.775-.534-1.775-2.64331V19.14069c0-2.01581,1.388-2.08262,1.775-2.08262.388,0,1.776.06681,1.776,2.08262v3.25738c0,2.10932-.614,2.64331-1.776,2.64331Z" style="fill:#7a003c"/><polygon points="156.467 16.23 156.467 24.481 156.44 24.481 152.689 16.23 150.953 16.23 150.953 25.869 152.048 25.869 152.048 17.512 152.075 17.512 155.879 25.869 157.561 25.869 157.561 16.23 156.467 16.23" style="fill:#7a003c"/></svg>