<svg id="Layer_1" data-name="Layer 1" xmlns="http://www.w3.org/2000/svg" viewBox="0 0 594.91 105.77"><rect x="235.87" y="31.75" width="1.14" height="50.11" style="fill:#3c190d"/><path d="M253,81.83V51.67h18.19v3.52H257v9.29H267.2v3.44H257V78.3h14.83v3.53Z" style="fill:#3c190d"/><path d="M287.32,81.83l-5.5-8.57h-.09l-5.42,8.57h-3.94l7.39-11.43L273,60.07h4l4.78,7.52h.09l4.83-7.52h3.91L283.92,70.4l7.35,11.43Z" style="fill:#3c190d"/><path d="M302.94,81.83a16.16,16.16,0,0,1-3.32.33c-3.57,0-4.91-1.38-4.91-5.63V63h-3.24V60.07h3.24V52.88h3.53v7.19h4.7V63h-4.7V76.37c0,1.84.67,2.68,2.27,2.68a10.35,10.35,0,0,0,2.43-.29Z" style="fill:#3c190d"/><path d="M314.41,82.33c-5.84,0-9.2-4.41-9.2-11.38s3.82-11.39,9.24-11.39c5.88,0,9,4.2,9,10.59,0,.34,0,.75,0,1.3H308.74c.21,4.83,1.84,7.81,5.92,7.81,2.52,0,4.49-1.05,6-3.86l2.73,1.51A9.48,9.48,0,0,1,314.41,82.33Zm-5.59-13.52h11.09c0-3.83-2-6.35-5.46-6.35S309.24,65.32,308.82,68.81Z" style="fill:#3c190d"/><path d="M341,81.83V67c0-2.94-1.09-4.25-3.61-4.25-1.93,0-3.7.8-6.17,3.36V81.83h-3.58V60.07H331v3c2.39-2.39,4.66-3.53,7.39-3.53,2.31,0,4,.76,5,2.27.84,1.09,1.17,2.73,1.17,5.17V81.83Z" style="fill:#3c190d"/><path d="M364.43,81.83l-.59-2.57c-2.18,2.1-4.12,3.07-7,3.07-5.25,0-8.45-4.49-8.45-11.17,0-7,3.57-11.43,8.87-11.43a8,8,0,0,1,6.21,2.77V51.67h3.57V81.83Zm-.93-15.76a6.82,6.82,0,0,0-5.63-3.27c-3.65,0-5.83,3.23-5.83,8.4,0,5,2.22,8,5.79,8A7,7,0,0,0,363.5,76Z" style="fill:#3c190d"/><path d="M380.39,82.33c-5.84,0-9.2-4.41-9.2-11.38s3.82-11.39,9.24-11.39c5.88,0,9,4.2,9,10.59,0,.34,0,.75-.05,1.3H374.71c.21,4.83,1.85,7.81,5.93,7.81,2.52,0,4.49-1.05,6-3.86l2.73,1.51A9.48,9.48,0,0,1,380.39,82.33ZM374.8,68.81h11.09c0-3.83-2-6.35-5.46-6.35S375.22,65.32,374.8,68.81Z" style="fill:#3c190d"/><path d="M408.11,81.83l-.59-2.57c-2.19,2.1-4.12,3.07-7,3.07-5.26,0-8.45-4.49-8.45-11.17,0-7,3.57-11.43,8.87-11.43a8,8,0,0,1,6.21,2.77V51.67h3.57V81.83Zm-.93-15.76a6.83,6.83,0,0,0-5.63-3.27c-3.65,0-5.84,3.23-5.84,8.4,0,5,2.23,8,5.8,8A7,7,0,0,0,407.18,76Z" style="fill:#3c190d"/><path d="M425.83,81.83V51.67H444v3.52H429.86v9.29H440v3.44H429.86V78.3h14.83v3.53Z" style="fill:#3c190d"/><path d="M462.7,81.83l-.59-2.57c-2.18,2.1-4.11,3.07-7,3.07-5.25,0-8.44-4.49-8.44-11.17,0-7,3.57-11.43,8.86-11.43a8,8,0,0,1,6.22,2.77V51.67h3.57V81.83Zm-.92-15.76a6.84,6.84,0,0,0-5.63-3.27c-3.65,0-5.84,3.23-5.84,8.4,0,5,2.23,8,5.8,8A7,7,0,0,0,461.78,76Z" style="fill:#3c190d"/><path d="M484.21,81.83v-3c-2.36,2.35-4.63,3.53-7.36,3.53a5.59,5.59,0,0,1-5-2.27c-.84-1.13-1.18-2.73-1.18-5.21V60.07h3.61V74.94c0,2.94,1.05,4.2,3.57,4.2,2,0,3.66-.8,6.14-3.32V60.07h3.57V81.83Z" style="fill:#3c190d"/><path d="M510.12,76.7c-2,3.82-5,5.63-9,5.63-5.88,0-9.41-4.37-9.41-11.3,0-7.22,3.66-11.47,9.54-11.47,4,0,7,1.77,8.44,5.93l-3,1.17c-1.17-2.81-2.81-4-5.33-4-3.7,0-6.09,3.11-6.09,8.4s2.27,8.23,6.05,8.23c2.56,0,4.37-1.21,5.92-4.15Z" style="fill:#3c190d"/><path d="M526.2,81.83l-.33-2.61a11.68,11.68,0,0,1-7.56,3.07c-3.83,0-6-2.31-6-5.84a6.44,6.44,0,0,1,3.61-6c2.18-1.17,6-2.1,10-2.89.33-3.83-1.14-5.09-4.33-5.09-2.56,0-4.2,1-5.71,3.28l-2.61-1.64a9.06,9.06,0,0,1,8.44-4.54c5.34,0,7.73,2.31,7.73,7.1V78.42l.34,3.41Zm-.46-11.68c-4,.8-6.3,1.43-7.94,2.35a4,4,0,0,0-1.93,3.61,3.06,3.06,0,0,0,3.4,3.28,8.9,8.9,0,0,0,6.47-3.11Z" style="fill:#3c190d"/><path d="M543.84,81.83a16.16,16.16,0,0,1-3.32.33c-3.57,0-4.91-1.38-4.91-5.63V63h-3.24V60.07h3.24V52.88h3.53v7.19h4.7V63h-4.7V76.37c0,1.84.67,2.68,2.27,2.68a10.35,10.35,0,0,0,2.43-.29Z" style="fill:#3c190d"/><path d="M547.45,55.87V51.54h3.95v4.33Zm.17,26V60.07h3.57V81.83Z" style="fill:#3c190d"/><path d="M555.31,71c0-7.22,3.52-11.47,9.28-11.47s9.24,4.25,9.24,11.47c0,7-3.57,11.3-9.24,11.3S555.31,78,555.31,71Zm15,0c0-5-1.81-8.48-5.67-8.48S558.92,66,558.92,71s1.85,8.32,5.67,8.32S570.26,76,570.26,71Z" style="fill:#3c190d"/><path d="M591.34,81.83V67c0-2.94-1.09-4.25-3.61-4.25-1.93,0-3.7.8-6.17,3.36V81.83H578V60.07h3.41v3c2.39-2.39,4.66-3.53,7.39-3.53,2.31,0,4,.76,5,2.27.84,1.09,1.17,2.73,1.17,5.17V81.83Z" style="fill:#3c190d"/><path d="M57.68,56.25v-13h0V23.17a9.66,9.66,0,0,0-5.45-8.72L28.05,3a48.55,48.55,0,0,1-5.37-3V7.13a6.48,6.48,0,0,0,.79,3.69l-7.8-3.7A31.54,31.54,0,0,1,9.76,3.4V15.78c0,1.66.4,3.9,1.58,4.91L7.45,18.85A18,18,0,0,1,0,11.58V26.73H0v52.9H0v.31A16.73,16.73,0,0,0,8.64,94.4l20.25,11.37,13.55-7.65h0l1-.57,1.09-.61h0l4.59-2.6a16.7,16.7,0,0,0,8.59-14.48Z" style="fill:#fff"/><rect x="73.02" y="80.22" width="12.12" height="1.64" style="fill:#3c190d"/><path d="M80.07,73.28a3.78,3.78,0,1,1-3.78-4A3.73,3.73,0,0,1,80.07,73.28Zm-5.18,0c0,2.61.42,3.6,1.4,3.6s1.39-1,1.39-3.6-.42-3.61-1.39-3.61S74.89,70.66,74.89,73.28Z" style="fill:#3c190d"/><path d="M86.8,67.38c0,.45-.3.71-.78.85h-.26c-.36-1.36-.65-1.66-1.18-1.66s-.82.45-.82,1.58v1.26H85.4V70H83.76v5.67c0,1,0,1,1.38,1.08v.44H80.58v-.44c.93-.07.93-.07.93-1.08V70h-.93v-.42l.93-.14V69.1c0-1.4.9-2.95,3.3-2.95C86,66.15,86.8,66.62,86.8,67.38Z" style="fill:#3c190d"/><path d="M111.67,41.82v8.89c0,2.12,0,2.12,1.82,2.28v.91h-7.88V53c1.34-.16,1.34-.16,1.34-2.28V41.62c0-1.07-.49-2.21-1.93-2.21-2.24,0-3.06,3.16-3.06,5.11v6.19c0,2.12,0,2.12,1.86,2.28v.91h-8.4V53c1.82-.16,1.82-.16,1.82-2.28V40.48c0-1.46-.1-1.46-1.82-1.63v-.91a42.27,42.27,0,0,1,5-.62c1.2,0,1.59.23,1.59,1.6V41.1a5,5,0,0,1,5.18-3.81C109.81,37.29,111.67,38.72,111.67,41.82Z" style="fill:#3c190d"/><path d="M121.08,38.92V50.71c0,2.12,0,2.12,1.86,2.28v.91h-8.41V53c1.83-.16,1.83-.16,1.83-2.28V40.48c0-1.46-.16-1.46-1.83-1.63v-.91a41.28,41.28,0,0,1,5-.62C120.69,37.32,121.08,37.55,121.08,38.92Zm.26-5.7a2.56,2.56,0,0,1-2.73,2.54,2.58,2.58,0,0,1-2.77-2.54,2.61,2.61,0,0,1,2.77-2.61A2.59,2.59,0,0,1,121.34,33.22Z" style="fill:#3c190d"/><path d="M167.89,39.5a2.51,2.51,0,0,1-1.14,2.09l-.53.16a3.06,3.06,0,0,0-2.21-1c-1.34,0-2.7,1.5-2.7,4.08v5.89c0,2.09-.07,2.09,3.06,2.25v.91h-9.61V53c1.82-.16,1.82-.16,1.82-2.25V40.48c0-1.46-.09-1.46-1.82-1.63v-.91a46.36,46.36,0,0,1,5.15-.62c1,0,1.4.29,1.4,1.66v3c.88-3.61,2.41-4.72,4.17-4.72A2.19,2.19,0,0,1,167.89,39.5Z" style="fill:#3c190d"/><path d="M179.45,38.07a1.57,1.57,0,0,1,.78,1.37l.36,3.13h-.88c-1-3.29-2.28-4.4-3.88-4.4a2.18,2.18,0,0,0-2.38,2.28c0,3.55,7.89,2.83,7.89,8.5,0,2.93-2.45,5.28-6.94,5.28a11.59,11.59,0,0,1-4.53-.82,1.59,1.59,0,0,1-1-1.4l-.42-2.74h.88c1.3,3.2,2.7,4,4.82,4a2.47,2.47,0,0,0,2.67-2.57c0-3.91-7.85-3-7.85-8.57,0-2.54,1.83-4.88,6.16-4.88A10.51,10.51,0,0,1,179.45,38.07Z" style="fill:#3c190d"/><path d="M189.12,38.92V50.71c0,2.12,0,2.12,1.86,2.28v.91h-8.41V53c1.83-.16,1.83-.16,1.83-2.28V40.48c0-1.46-.16-1.46-1.83-1.63v-.91a41.16,41.16,0,0,1,5-.62C188.73,37.32,189.12,37.55,189.12,38.92Zm.26-5.7a2.56,2.56,0,0,1-2.73,2.54,2.58,2.58,0,0,1-2.77-2.54,2.61,2.61,0,0,1,2.77-2.61A2.59,2.59,0,0,1,189.38,33.22Z" style="fill:#3c190d"/><path d="M134.27,37.61v.88c.38,0,.69.06,1,.1,1.07.19.94.63.7,1.37l-2.79,8.95L129.78,40c-.36-1-.13-1.36,1.79-1.53v-.88h-8.8v.88c1.24.17,1.5.26,1.89,1.27l5.61,14.3h2.54L137.46,40c.36-1.08.56-1.3,2.45-1.47v-.88Z" style="fill:#3c190d"/><path d="M153.42,43.61c0-4.69-3.42-6.32-6.51-6.32a8.13,8.13,0,0,0-8,8.47c0,5.21,3.29,8.47,7.92,8.47a8,8,0,0,0,6.48-3.55l-.42-.62a5.72,5.72,0,0,1-4.11,1.69c-1.95,0-4.65-1-4.88-6.25h9.44A11,11,0,0,0,153.42,43.61Zm-4.52.71h-5.05c.08-4.13,1.05-6.15,2.93-6.15,1.6,0,2.38,1.43,2.38,4.1A8.5,8.5,0,0,1,148.9,44.32Z" style="fill:#3c190d"/><path d="M212.83,37.61v.88c2.11.16,1.93.56,1.67,1.47l-2.79,8.54L208.34,40c-.36-1-.13-1.36,1.79-1.53v-.88H198.21v-3.9H197l-3.51,3.9-2,.3v.88h2V50.61c0,2.83,1.46,3.62,3.74,3.62a35.56,35.56,0,0,0,4.56-.33V53c-2.64,0-3.58-.52-3.58-3V38.79h4a1,1,0,0,1,.89.59l6.65,15.83a3.76,3.76,0,0,1-3.36,2.7,5.43,5.43,0,0,1-3.42-1.21l-.29.26c0,1.37.71,3.45,3.06,3.45,2.12,0,3.91-1.1,5.67-6.35L216,40c.35-1.08.55-1.3,2.44-1.47v-.88Z" style="fill:#3c190d"/><path d="M113.7,60.6v-.88h-7.86L101,77,95.85,59.72H88.26v.88c1.83.16,2,.16,2,2.31V78.67c0,2.12-.07,2.12-2,2.28v.91h5.8V81c-2.48-.16-2.17-.16-2.17-2.28V64.29l5.36,17.54h3.88l5.4-19.12v16c0,2.12-.06,2.12-2,2.28v.91h9.12V81c-1.92-.16-2-.16-2-2.28V62.91C111.75,60.76,111.78,60.76,113.7,60.6Z" style="fill:#3c190d"/><path d="M128,70.33v8.5c0,1.44.06,2,1.82,2.12v.91a15.22,15.22,0,0,1-3,.3c-2.24,0-3.35-.72-3.52-3.06a4.82,4.82,0,0,1-4.65,3.09,3.86,3.86,0,0,1-4.2-4c0-3.45,3.32-4.72,8.85-5.47V69.29c0-1.69-.61-3-2.28-3-1.43,0-2.18.75-2.18,2a7.57,7.57,0,0,0,.26,1.85l-.32.33a3.57,3.57,0,0,1-1.47.36,2,2,0,0,1-2.08-2.05c0-2,2.6-3.46,6.28-3.46C126.08,65.25,128,67.17,128,70.33Zm-4.73,3.26c-2.28.42-3.9,1.3-3.9,3.62,0,1.69.84,2.37,1.76,2.37,1.53,0,2.14-1.76,2.14-3.77Z" style="fill:#3c190d"/><path d="M146.79,69.78v8.89c0,2.12,0,2.12,1.83,2.28v.91h-7.88V81c1.33-.16,1.33-.16,1.33-2.28V69.58c0-1.07-.49-2.21-1.92-2.21-2.25,0-3.06,3.16-3.06,5.11v6.19c0,2.12,0,2.12,1.85,2.28v.91h-8.4V81c1.82-.16,1.82-.16,1.82-2.28V68.44c0-1.46-.09-1.46-1.82-1.62V65.9a44.29,44.29,0,0,1,5-.61c1.21,0,1.6.22,1.6,1.59v2.18a5,5,0,0,1,5.18-3.81C144.94,65.25,146.79,66.69,146.79,69.78Z" style="fill:#3c190d"/><path d="M156.11,66.88V78.67c0,2.12,0,2.12,1.86,2.28v.91h-8.41V81c1.83-.16,1.83-.16,1.83-2.28V68.44c0-1.46-.17-1.46-1.83-1.62V65.9a42.46,42.46,0,0,1,4.95-.61C155.72,65.29,156.11,65.51,156.11,66.88Zm.26-5.7a2.76,2.76,0,0,1-5.5,0,2.75,2.75,0,0,1,5.5,0Z" style="fill:#3c190d"/><path d="M168.68,65.58v1.17H165.1V78c0,2.47.94,3,3.58,3v.91a33.83,33.83,0,0,1-4.56.33c-2.28,0-3.74-.78-3.74-3.62V66.75h-2v-.88l2-.29,3.51-3.91h1.21v3.91Z" style="fill:#3c190d"/><path d="M184.51,73.72c0,5.11-3.35,8.47-7.95,8.47s-7.91-3.36-7.91-8.47,3.35-8.47,7.91-8.47S184.51,68.61,184.51,73.72Zm-10.88,0c0,5.47.88,7.56,2.93,7.56s2.93-2.09,2.93-7.56-.87-7.59-2.93-7.59S173.63,68.22,173.63,73.72Z" style="fill:#3c190d"/><path d="M191.32,60.33V68.8a4.65,4.65,0,0,1,4.76-3.55c3.55,0,6,2.48,6,8.47,0,4.89-2.64,8.47-7,8.47a6.28,6.28,0,0,1-3.75-1l-3.81,1h-.91V61.87c0-1.44-.16-1.44-1.82-1.63v-.88a40.81,40.81,0,0,1,4.95-.62C190.93,58.74,191.32,59,191.32,60.33Zm0,12.15v7.66a3.72,3.72,0,0,0,2.45,1c2.28,0,3.32-1.82,3.32-7.39s-1.56-6.35-2.87-6.35C192.72,67.37,191.32,68.71,191.32,72.48Z" style="fill:#3c190d"/><path d="M216.81,70.33v8.5c0,1.44.06,2,1.82,2.12v.91a15.22,15.22,0,0,1-3,.3c-2.25,0-3.35-.72-3.52-3.06a4.83,4.83,0,0,1-4.65,3.09,3.87,3.87,0,0,1-4.21-4c0-3.45,3.33-4.72,8.86-5.47V69.29c0-1.69-.62-3-2.28-3-1.43,0-2.18.75-2.18,2a7.57,7.57,0,0,0,.26,1.85l-.32.33a3.57,3.57,0,0,1-1.47.36A2,2,0,0,1,204,68.71c0-2,2.6-3.46,6.28-3.46C214.92,65.25,216.81,67.17,216.81,70.33Zm-4.73,3.26c-2.28.42-3.91,1.3-3.91,3.62,0,1.69.85,2.37,1.76,2.37,1.53,0,2.15-1.76,2.15-3.77Z" style="fill:#3c190d"/><path d="M92.83,34.94,92.77,45.4c0,5.71-2.85,8.83-8,8.83-5.91,0-9.83-3.29-9.83-8.87V34.94h0c0-2.15,0-2.15-2-2.31v-.88h9.1v.88c-1.89.16-2,.16-2,2.31h0V45.56c0,4.32,2.11,6.66,5.47,6.66,3.87,0,5.49-2.65,5.49-6.79V34.94h0c0-2.15-1-2.15-2.89-2.31v-.88h7.46v.88c-1.64.16-2.86.16-2.86,2.31Z" style="fill:#3c190d"/><path d="M2.33,78.23v1.71A14.34,14.34,0,0,0,9.78,92.37L28.89,103.1l12.93-7.3C38.81,84.38,11,82.38,2.33,78.23Z" style="fill:#fcb415"/><path d="M55.35,57.28C53.3,61,49.66,63,46.06,64.22c-1.64.55-3.61,1.1-6,1.68.47-.69,1-1.34,1.26-1.65.84-1,1.48-1.47,1.07-2.42a10.35,10.35,0,0,0-2.16-3.16,5.6,5.6,0,0,0-2,.45,6.77,6.77,0,0,1,5.6-1.63,2.11,2.11,0,0,1,1.86,2.23,7,7,0,0,0,1.41-4,4.16,4.16,0,0,0,1.25-.75,1.44,1.44,0,0,0,.28-.92c0-1.43.87-3.29.84-4.55a4.56,4.56,0,0,0-2.17-4c.51-.25,1-.58,1.55-.9-1.29.3-2.39-.65-4.14-1.14a2.83,2.83,0,0,0-3.34,1.29.4.4,0,0,1-.65.06c-3.2-3.51-7.3-3.37-10.77-.35a50.53,50.53,0,0,1-10.23,7.2c-2.84,1.46-3.63,2.74-4.19,4a2.05,2.05,0,0,0-2.26-.13,4.65,4.65,0,0,0-1.46,2.36c-.6,1.55-2.29,4.26-4.17,4.33,2.54.86,3.76.24,4.54-1.09.56-1,.45-2.18.66-3.27s1-2.14,2.32-1.26a12.86,12.86,0,0,0-.53,4.82c.22,1.8.31,5-.3,5.8a8.33,8.33,0,0,1-.74,4.21,6.72,6.72,0,0,0-.46,1.27,48.88,48.88,0,0,0-7.6,3.17c3.22,1.54,7.82,2.74,12.69,4,11,2.89,23.56,6.16,25.72,14.67l4-2.27a14.36,14.36,0,0,0,7.41-12.45Zm-9.12-7.59a.41.41,0,0,1,.6,0c.16.17.16.8.16.8s-.59,0-.75-.18A.46.46,0,0,1,46.23,49.69Zm-2-4.68c.15-.11.32-.22.5-.33a3.49,3.49,0,0,0-.21.33,2.54,2.54,0,0,0,0,3.06c.46.53-.17,1-.83.66C43.28,48.51,41.93,46.69,44.22,45ZM26.55,69c-1-.66-2.07-1.38-2.39-1.66A1.58,1.58,0,0,1,23.75,65c.4-.82.79-1.43,1-1.89s.09-.69-.6-.76a21.21,21.21,0,0,1-3.59-.6c.28.65,1.09,3.19.1,4.63a14.91,14.91,0,0,0,3.13,3.25c-2.81.71-5.54,1.46-8.07,2.24a6.71,6.71,0,0,1,.16-2.59c1-3.29,2.68-3.56,3.62-6.93.41-1.47.93-1.25,2.12-1,3.59.61,5.15.35,7.66-.84-.27,2,0,5.45,2.87,7.19C30.28,68.1,28.41,68.53,26.55,69Zm13.24-5.72c-.24.54-.86.88-1.17,1.26a2,2,0,0,0-.37,1.82c-1,.25-2.18.5-3.39.76a5.7,5.7,0,0,1-1-3.35,3.54,3.54,0,0,1,1.69-3.1,5,5,0,0,0,2.44,2,6.4,6.4,0,0,0,1.5.19C39.78,62.81,39.92,63,39.79,63.25Z" style="fill:#3c190d"/><path d="M49.23,76.62c-2.63-3.31-4.28-4.35-3.65-8.17a7.31,7.31,0,0,0-2.67,5.82C42.94,77,45.82,79.49,47,82a4.52,4.52,0,0,1,.15,3.77,3.59,3.59,0,0,0-1.55-2.84,12.25,12.25,0,0,1-2.68-2.6,4.88,4.88,0,0,1-.85-3.53A12.57,12.57,0,0,0,40.84,81c0,4.83,5.48,4.33,4.49,7.27,4.76-1.74,5.93-5,5.91-6.94A7.44,7.44,0,0,0,49.23,76.62Z" style="fill:#fcb415"/><path d="M55.35,27.6c-1.14-2.13-5.93-4.62-11.77-7.39l-14.72-7A6.76,6.76,0,0,1,25,7.13V4a11.43,11.43,0,0,0,2.32,1.26L51.23,16.55a7.36,7.36,0,0,1,4.12,6.62Z" style="fill:#1ba8e1"/><path d="M12.09,7.68v6.47a7.06,7.06,0,0,0,4,6.37L40.67,32.16C46.28,34.82,53.22,39,55.35,43.27V34.1c0-4.08-2.34-6.7-6-8.45L14.67,9.22A12,12,0,0,1,12.09,7.68Z" style="fill:#2064b0"/><path d="M23.46,38.24,3.34,28.69a3,3,0,0,1-1-.76V54.57c2-4,4.94-6.07,10.67-7.53l10.14-2.59A3.27,3.27,0,0,0,23.46,38.24Z" style="fill:#2064b0"/><path d="M25.58,30,6.45,21c-2.16-1-3.45-2.11-4.12-3.51v5.19a4.54,4.54,0,0,0,2.59,4.1l19,9a5.15,5.15,0,0,1,3.18,4.59,5.06,5.06,0,0,1-1.29,3.26C31.17,40.89,32.08,33.1,25.58,30Z" style="fill:#1ba8e1"/></svg>