<?xml version="1.0" encoding="utf-8"?>
<!-- Generator: Adobe Illustrator 23.0.4, SVG Export Plug-In . SVG Version: 6.00 Build 0)  -->
<svg version="1.1" id="PMS" xmlns="http://www.w3.org/2000/svg" xmlns:xlink="http://www.w3.org/1999/xlink" x="0px" y="0px"
	 viewBox="0 0 275.6 98.1" style="enable-background:new 0 0 275.6 98.1;" xml:space="preserve">
<style type="text/css">
	.st0{fill:#00468B;}
</style>
<title>Dejero-Logo</title>
<path class="st0" d="M129.5,1.6c0.8,0,1.5,0.6,1.5,1.4c0,0,0,0,0,0v11.2c0,0.8-0.7,1.5-1.5,1.5c0,0,0,0,0,0h-11.2
	c-0.8,0-1.5-0.7-1.5-1.5V3c0-0.8,0.6-1.5,1.4-1.5c0,0,0,0,0,0L129.5,1.6L129.5,1.6z"/>
<path class="st0" d="M16.2,62.1h11.6c9,0,11.5-3.6,11.5-10.4V25.3c0-6.8-2.4-10.4-11.5-10.4H16.2C16.2,14.9,16.2,62.1,16.2,62.1z
	 M29.2,3.1c17.4,0,23.5,8.8,23.5,19v32.8c0,10.1-6,19-23.5,19H2.8V3.1L29.2,3.1z"/>
<path class="st0" d="M77.1,42.5h16.5V40c0-4.9-1.5-8.3-7.9-8.3s-8.6,3.4-8.6,8.3C77.1,40,77.1,42.5,77.1,42.5z M87.2,64.3
	c5.4,0,10.7-0.9,15.8-2.5l2,9.8C98.9,73.9,92.5,75,86,75c-16.3,0-21.9-7.5-21.9-20V41.3c0-11,4.9-20.2,21.5-20.2s20.3,9.7,20.3,20.8
	V53H77.1v2.7C77.1,61.9,79.3,64.3,87.2,64.3L87.2,64.3z"/>
<path class="st0" d="M130.4,22.1v54.5c0,6.6-2.4,9.7-13.5,19.2l-7.6-8.3c7.4-6.9,8.1-7.3,8.1-12.7V22.1H130.4z"/>
<path class="st0" d="M155.3,42.5h16.5V40c0-4.9-1.5-8.3-7.9-8.3s-8.6,3.4-8.6,8.3L155.3,42.5L155.3,42.5z M165.4,64.3
	c5.4,0,10.7-0.9,15.8-2.5l2,9.8c-6.1,2.2-12.5,3.3-19,3.3c-16.3,0-21.9-7.5-21.9-20V41.3c0-11,4.9-20.2,21.5-20.2
	s20.3,9.7,20.3,20.8V53h-28.8v2.7C155.3,61.9,157.6,64.3,165.4,64.3z"/>
<path class="st0" d="M222.5,33c-4.8,2.2-9.3,4.7-13.7,7.6v33.4h-13V22.1h11l0.9,5.7c2.9-1.9,9-5.5,13.6-6.8L222.5,33L222.5,33z"/>
<path class="st0" d="M251.4,32.1c-6.9,0-9.6,3.1-9.6,8.9V55c0,5.8,2.7,8.9,9.6,8.9s9.6-3.1,9.6-8.9V41.1
	C261,35.2,258.3,32.1,251.4,32.1z M251.4,75c-17.8,0-22.5-9.8-22.5-20.4V41.5c0-10.6,4.8-20.4,22.5-20.4S274,30.9,274,41.5v13.1
	C274,65.2,269.2,75,251.4,75z"/>
</svg>
