<svg id="Layer_1" data-name="Layer 1" xmlns="http://www.w3.org/2000/svg" viewBox="0 0 120.9328 24.79"><path d="M76.7069,4.7918v9.8141c0,3.2631,5.42,5.4941,5.42,5.4941s5.42-2.231,5.42-5.4941V4.7918Zm8.8685,9.8141c0,1.0753-1.8541,2.472-3.4485,3.3249-1.6316-.8343-3.4485-2.2434-3.4485-3.3249V6.7633h6.897Z" transform="translate(0.0442)" style="fill:#f37021"/><path d="M115.5923,15.7616V13.821h-.5377V13.58l.55-.1236V12.3749l.618-.0371v1.1309h.9455v.3523h-.9455v1.8541c0,.3708.1174.5191.4017.5191.1854,0,.3152-.1422.4635-.3585l.2039.1545a.9146.9146,0,0,1-.9023.6181.7414.7414,0,0,1-.7972-.8467Z" transform="translate(0.0442)" style="fill:#093266"/><path d="M93.5107,9.3157h-1.508l-.2225.618c-.1668.4388-.241.5871.34.6922v.2719H90.6246v-.309c.4573-.1051.55-.3152.7539-.822l1.3288-3.35h.4944l1.304,3.6339c.1359.377.2534.47.754.5377v.309H93.2511v-.309c.5871,0,.6489-.1792.5377-.4944Zm-.136-.3894-.55-1.6006h-.0618l-.618,1.6006Z" transform="translate(0.0442)" style="fill:#093266"/><path d="M95.6737,10.1191v-1.94h-.5376V7.9375l.5376-.13V6.7386l.618-.0371V7.8077h.9394v.3461h-.9394v1.8541c0,.3708.1113.5191.3956.5191.1854,0,.3151-.1421.4635-.3584l.2039.1545a.9146.9146,0,0,1-.9023.618.7418.7418,0,0,1-.7787-.822Z" transform="translate(0.0442)" style="fill:#093266"/><path d="M97.5278,10.5826c.3955,0,.5006-.0741.5006-.2348V6.8931c0-.204-.13-.3214-.5192-.3276V6.238h1.1495V8.2836a2.1328,2.1328,0,0,1,1.18-.4759c.4574,0,.7849.3276.7849.9332v1.6316c0,.1607.1051.2287.4944.2348v.29H99.5672v-.3214c.34,0,.4326-.0741.4326-.2348V8.9634c0-.5438-.1978-.6983-.5809-.6983a1.4775,1.4775,0,0,0-.754.2472v1.854c0,.1607.0865.2287.4264.2349v.2966H97.5278Z" transform="translate(0.0442)" style="fill:#093266"/><path d="M101.4954,10.2427a.7911.7911,0,0,1,.4079-.7045,12.7266,12.7266,0,0,1,1.4152-.4759V8.8707c0-.5624-.1545-.7725-.618-.7725a.6176.6176,0,0,0-.4449.136.6922.6922,0,0,1,.0679.3152.3521.3521,0,0,1-.3266.3761.3069.3069,0,0,1-.0318.0008.3709.3709,0,0,1-.389-.3517c0-.0084-.0005-.0168,0-.0252,0-.4635.5748-.7664,1.2361-.7664s1.1309.3152,1.1309.9641v1.4276c0,.3276.0309.4265.4759.377v.2534a1.5433,1.5433,0,0,1-.5562.13c-.3584,0-.4821-.13-.513-.5191h-.0618a1.3289,1.3289,0,0,1-.9764.5315A.7162.7162,0,0,1,101.4954,10.2427Zm1.854-.13V9.3466c-.9393.2163-1.1186.3523-1.1186.7354a.4077.4077,0,0,0,.4636.4326.8524.8524,0,0,0,.6241-.4017Z" transform="translate(0.0442)" style="fill:#093266"/><path d="M104.8389,10.3972V6.8993c0-.1978-.1236-.3214-.5192-.3276V6.238h1.1557V8.1971a1.31,1.31,0,0,1,2.25,1.0939,1.5575,1.5575,0,0,1-1.4132,1.6893c-.0192.0017-.0385.003-.0577.004a1.5876,1.5876,0,0,1-.9641-.34l-.2163.3832H104.82Zm2.1877-1.1c0-.6551-.3275-1.1063-.8158-1.1063a1.0691,1.0691,0,0,0-.7354.2843v1.681a.785.785,0,0,0,.76.4759C106.798,10.6321,107.0266,10.1438,107.0266,9.2972Z" transform="translate(0.0442)" style="fill:#093266"/><path d="M108.102,10.2427a.7785.7785,0,0,1,.4079-.7045,12.2821,12.2821,0,0,1,1.4152-.4759V8.8707c0-.5624-.1545-.7725-.618-.7725a.6178.6178,0,0,0-.445.136.691.691,0,0,1,.068.3152.3521.3521,0,0,1-.3266.3761.3069.3069,0,0,1-.0318.0008.3708.3708,0,0,1-.389-.3517c0-.0084-.0005-.0168,0-.0252,0-.4635.5748-.7664,1.236-.7664s1.131.3152,1.131.9641v1.4276c0,.3276,0,.4265.47.377v.2534a1.5466,1.5466,0,0,1-.5624.13c-.3523,0-.4759-.13-.5068-.5191h-.0618a1.3291,1.3291,0,0,1-.9765.5315A.7107.7107,0,0,1,108.102,10.2427Zm1.8231-.13V9.3466c-.9456.2163-1.1186.3523-1.1186.7354a.4076.4076,0,0,0,.4635.4326A.8524.8524,0,0,0,109.9251,10.1129Z" transform="translate(0.0442)" style="fill:#093266"/><path d="M111.3836,9.9275h.2843c.309.4944.618.7169.9888.7169a.42.42,0,0,0,.4727-.36l.0032-.0352c0-.2905-.1978-.4573-.7663-.618-.68-.1854-.9456-.4759-.9456-.8961a.9827.9827,0,0,1,.9756-.99.9961.9961,0,0,1,.1245.007,1.0817,1.0817,0,0,1,.618.1916l.1236-.1916h.241V8.673h-.2843c-.2348-.3956-.4264-.618-.76-.618s-.4944.1668-.4944.4017.2286.4078.7292.5376c.6736.1854.9456.445.9456.9023a.97.97,0,0,1-1.063,1.0383,1.2363,1.2363,0,0,1-.7478-.241l-.1854.241h-.2411Z" transform="translate(0.0442)" style="fill:#093266"/><path d="M113.9978,9.39a1.5512,1.5512,0,0,1,1.475-1.6239l.0453-.0015c.6922,0,1.131.3708,1.131.7725a.4388.4388,0,0,1-.3851.4866l-.0166.0016a.3646.3646,0,0,1-.3946-.3319l-.0009-.0142a.4326.4326,0,0,1,.2163-.3646.6986.6986,0,0,0-.5377-.2225c-.5068,0-.8529.2967-.8529,1.1495s.3276,1.31.9889,1.31a1.1806,1.1806,0,0,0,.89-.482l.1854.1854a1.4214,1.4214,0,0,1-1.2917.7045,1.4461,1.4461,0,0,1-1.4575-1.4346Q113.992,9.4574,113.9978,9.39Z" transform="translate(0.0442)" style="fill:#093266"/><path d="M117.0941,10.2427a.7909.7909,0,0,1,.4079-.7045,12.72,12.72,0,0,1,1.4152-.4759V8.8707c0-.5624-.1545-.7725-.618-.7725a.6178.6178,0,0,0-.445.136.691.691,0,0,1,.068.3152.346.346,0,0,1-.3137.3756.3312.3312,0,0,1-.0386.0013.3769.3769,0,0,1-.395-.3579c0-.0064,0-.0127,0-.019,0-.4635.5747-.7664,1.236-.7664s1.131.3152,1.131.9641v1.4276c0,.3276,0,.4265.47.377v.2534a1.5443,1.5443,0,0,1-.5562.13c-.3585,0-.4821-.13-.513-.5191H118.88a1.3164,1.3164,0,0,1-.9764.5315A.7139.7139,0,0,1,117.0941,10.2427Zm1.854-.13V9.3466c-.9394.2163-1.1186.3523-1.1186.7354a.4078.4078,0,0,0,.3772.4364.4034.4034,0,0,0,.0925-.0038.8526.8526,0,0,0,.618-.4017Z" transform="translate(0.0442)" style="fill:#093266"/><path d="M91.3909,15.2239v-2.472c0-.21-.1483-.272-.7169-.29v-.3276h2.07v.3338c-.618,0-.6612.0679-.6612.29v2.2929c0,.8528.4326,1.1865,1.236,1.1865a1.0938,1.0938,0,0,0,.8158-.3151,1.3285,1.3285,0,0,0,.29-1.0321V13.1721c0-.618-.1174-.6489-.76-.7478v-.29h1.7984v.309c-.618.1113-.618.136-.618.7478v2.0333a1.5389,1.5389,0,0,1-1.6135,1.46q-.0494-.0024-.0984-.0081C91.9965,16.6577,91.3909,16.0582,91.3909,15.2239Z" transform="translate(0.0442)" style="fill:#093266"/><path d="M95.6119,16.2251c.3894,0,.4882-.0742.4882-.2349v-1.854c0-.2039-.0988-.3214-.4882-.3275v-.3276h1.1063v.4635a2.1375,2.1375,0,0,1,1.1865-.482c.4636,0,.7973.3275.7973.9332v1.6315c0,.1607.0927.2287.4882.2349v.3213H97.639v-.3213c.34,0,.4264-.0742.4264-.2349V14.6059c0-.5377-.1916-.6922-.5747-.6922a1.5151,1.5151,0,0,0-.754.241v1.8541c0,.1607.0865.2286.42.2348v.3214h-1.545Z" transform="translate(0.0442)" style="fill:#093266"/><path d="M99.5363,16.2251c.3894,0,.4821-.0742.4821-.2349v-1.854c0-.2039-.0927-.3214-.4821-.3275v-.3276h1.1186v2.5462c0,.1607.0865.2287.4821.2349v.3213H99.5363Zm.3708-3.912a.4079.4079,0,0,1,.3758-.4377.376.376,0,0,1,.0383-.0011.4264.4264,0,0,1,0,.8528.3894.3894,0,0,1-.4141-.3629A.3961.3961,0,0,1,99.9071,12.3131Z" transform="translate(0.0442)" style="fill:#093266"/><path d="M101.755,14.1856a.5439.5439,0,0,0-.5253-.42v-.309h1.545v.309c-.3152.0371-.42.08-.42.1854a.3229.3229,0,0,0,.0371.13l.618,1.6995h.08l.5686-1.4523a.9957.9957,0,0,0,.0679-.2781c0-.1483-.105-.2287-.3646-.2843v-.309h1.236v.309a.68.68,0,0,0-.5129.4759L103.09,16.59h-.4017Z" transform="translate(0.0442)" style="fill:#093266"/><path d="M104.74,15.0323a1.5079,1.5079,0,0,1,1.3789-1.6268q.0459-.0038.092-.0047c.995,0,1.3287.791,1.2731,1.5635H105.42c0,.68.3275,1.2361.9888,1.2361a1.236,1.236,0,0,0,.9456-.5439l.1854.1854a1.4585,1.4585,0,0,1-1.3287.7725,1.4335,1.4335,0,0,1-1.4709-1.5821Zm.686-.3337h1.3967c0-.5562-.1854-.9765-.6551-.9765C105.7968,13.6912,105.4816,13.92,105.426,14.6986Z" transform="translate(0.0442)" style="fill:#093266"/><path d="M107.8486,16.2251c.3893,0,.4944-.0742.4944-.2349v-1.854c0-.2039-.1051-.3214-.4944-.3275v-.3276h1.1124v.5068a1.1679,1.1679,0,0,1,.859-.5439.4884.4884,0,0,1,.5192.5253.3893.3893,0,0,1-.3708.4017.3522.3522,0,0,1-.3877-.3129.3565.3565,0,0,1-.0017-.0517.7643.7643,0,0,1,0-.1112.76.76,0,0,0-.618.3522v1.7614c0,.1607.1236.2286.5686.2348v.3214h-1.681Z" transform="translate(0.0442)" style="fill:#093266"/><path d="M110.5678,15.57h.2843c.309.4944.6181.7169.9889.7169a.4264.4264,0,0,0,.4788-.3666l.0032-.0351c0-.2843-.2039-.4574-.7725-.618-.68-.1793-.9456-.47-.9456-.8962a.995.995,0,0,1,1.0018-.9881.9779.9779,0,0,1,.0983.0055,1.0687,1.0687,0,0,1,.618.1978l.1236-.1978h.241v.927H112.36c-.2349-.4017-.4264-.618-.76-.618s-.4944.1669-.4944.4017.2287.4017.7293.5377c.6736.1854.9455.445.9455.9023a.97.97,0,0,1-1.0382,1.063,1.2357,1.2357,0,0,1-.7478-.2411l-.1793.2411h-.2472Z" transform="translate(0.0442)" style="fill:#093266"/><path d="M113.318,16.2251c.3894,0,.4821-.0742.4821-.2349v-1.854c0-.2039-.0927-.3214-.4821-.3275v-.3276h1.1186v2.5462c0,.1607.0865.2287.4821.2349v.3213H113.318Zm.3708-3.912a.4079.4079,0,0,1,.3758-.4377.376.376,0,0,1,.0383-.0011.4264.4264,0,0,1,0,.8528.3892.3892,0,0,1-.4141-.3629.3961.3961,0,0,1,0-.0511Z" transform="translate(0.0442)" style="fill:#093266"/><path d="M118.0211,14.1918c-.1236-.29-.204-.377-.5191-.4264v-.309h1.545v.309c-.42.0433-.47.13-.3832.3461l.6922,1.65.5624-1.3658c.1545-.377.0865-.5624-.2658-.618v-.3091h1.2361v.3091a.717.717,0,0,0-.581.5067l-1.0629,2.5648c-.3832.8652-.686,1.0877-1.1063,1.0877a.5377.5377,0,0,1-.58-.4918l-.001-.015a.4016.4016,0,0,1,.3891-.4139l.0064,0a.3956.3956,0,0,1,.3832.3956.4344.4344,0,0,1,0,.1483c.21,0,.414-.34.68-.9765V16.54Z" transform="translate(0.0442)" style="fill:#093266"/><rect x="68.5068" y="4.7918" width="0.7602" height="13.6952" style="fill:#f37021"/><path d="M-.0442,6.4481a18.9038,18.9038,0,0,1,3.1519-.2163,4.9444,4.9444,0,0,1,3.158.8281,3.0221,3.0221,0,0,1,1.1,2.3856,3.3125,3.3125,0,0,1-.9517,2.472,4.7778,4.7778,0,0,1-3.35,1.0816,5.8842,5.8842,0,0,1-.7972-.0433v3.7081H-.0442Zm2.3114,4.6846a3.7173,3.7173,0,0,0,.7787.0618c1.236,0,2.0085-.6181,2.0085-1.6872,0-.9518-.6612-1.5142-1.8231-1.5142a3.77,3.77,0,0,0-.9641.0928Z" transform="translate(0.0442)" style="fill:#093266"/><path d="M15.3876,12.8013a3.7576,3.7576,0,0,1-3.9491,3.9924,3.6649,3.6649,0,0,1-3.8749-3.8564A3.7084,3.7084,0,0,1,11.5559,8.97a3.6463,3.6463,0,0,1,3.8317,3.4509A3.61,3.61,0,0,1,15.3876,12.8013Zm-5.42.0742c0,1.2854.5315,2.2495,1.5265,2.2495s1.4894-.9023,1.4894-2.2495c0-1.1186-.4326-2.25-1.4894-2.25S9.9676,11.7754,9.9676,12.8755Z" transform="translate(0.0442)" style="fill:#093266"/><path d="M17.8041,9.1427l.618,3.0591c.1545.7787.309,1.6069.4326,2.4721h.0309c.1483-.8591.3646-1.7181.55-2.4721l.7972-3.09h1.8541l.7045,3.022c.204.84.4017,1.681.5562,2.54h.0186c.105-.8591.2595-1.7.4264-2.5586l.618-2.9665h2.2805l-2.2619,7.478H22.2414l-.7293-2.6389c-.1792-.7355-.3213-1.4091-.4758-2.33h0a18.2832,18.2832,0,0,1-.4944,2.33l-.7478,2.6327H17.6063L15.4309,9.1427Z" transform="translate(0.0442)" style="fill:#093266"/><path d="M28.8418,13.6232c.08.97,1.0259,1.4277,2.1136,1.4277a6.4854,6.4854,0,0,0,2.07-.309l.3028,1.5759a7.3292,7.3292,0,0,1-2.7069.4635c-2.5462,0-3.9985-1.4709-3.9985-3.8131A3.7537,3.7537,0,0,1,30.4053,8.97c2.4165,0,3.3373,1.854,3.3373,3.7081a5.5049,5.5049,0,0,1-.0741.9146Zm2.7439-1.5882A1.3535,1.3535,0,0,0,30.4029,10.53c-.0443-.0053-.0889-.0084-.1335-.0093a1.5265,1.5265,0,0,0-1.44,1.5142Z" transform="translate(0.0442)" style="fill:#093266"/><path d="M34.5893,11.6085c0-1.1062,0-1.8231-.0618-2.472H36.536l.0742,1.3781h.0618a2.2064,2.2064,0,0,1,2.0209-1.5512,2.4457,2.4457,0,0,1,.4944,0v2.194a3.3829,3.3829,0,0,0-.618-.0618,1.4955,1.4955,0,0,0-1.6068,1.2113,2.7774,2.7774,0,0,0-.0433.5253v3.7946h-2.33Z" transform="translate(0.0442)" style="fill:#093266"/><path d="M39.039,6.4419H47.11l.1916,3.4362h-.4511a4.5,4.5,0,0,0-.8652-2.2743,2.0087,2.0087,0,0,0-1.5513-.6489H42.4257a.4755.4755,0,0,0-.3646.13.5807.5807,0,0,0-.1236.4017v3.6277h.8714a1.4335,1.4335,0,0,0,1.1371-.5006,2.472,2.472,0,0,0,.47-1.545h.4759V13.79h-.4759a2.6823,2.6823,0,0,0-.4759-1.6563,1.5328,1.5328,0,0,0-1.236-.5006h-.7663v4.0233a.4078.4078,0,0,0,.1483.34.8217.8217,0,0,0,.4882.1113H44.15c1.7119,0,2.7007-1.0877,2.96-3.2755h.4945l-.1731,3.7946H39.039v-.5191h.6922a.9154.9154,0,0,0,.5747-.136.519.519,0,0,0,.1607-.4141V7.4864a.5066.5066,0,0,0-.1421-.4017.6674.6674,0,0,0-.4512-.13H39.039Z" transform="translate(0.0442)" style="fill:#f37021"/><path d="M48.5008,6.4419h5.2654a4.4434,4.4434,0,0,1,1.99.4079,4.3818,4.3818,0,0,1,1.73,1.7428,5.63,5.63,0,0,1,.7169,2.8861,6.8492,6.8492,0,0,1-.4326,2.4721,3.9051,3.9051,0,0,1-.995,1.477,4.2019,4.2019,0,0,1-1.6316.9518,6.4885,6.4885,0,0,1-1.9282.2348H48.5008v-.5191h.9641a.84.84,0,0,0,.5067-.1112.4636.4636,0,0,0,.1422-.3708V7.4246a.4141.4141,0,0,0-.1731-.34.6171.6171,0,0,0-.42-.13h-1.02Zm3.7081.513a.6924.6924,0,0,0-.4636.13.5068.5068,0,0,0-.1483.3955v8.1269a.4513.4513,0,0,0,.1731.377,1.0264,1.0264,0,0,0,.618.1236h.8281A3.4863,3.4863,0,0,0,55.25,15.49a2.4727,2.4727,0,0,0,.8714-1.1,7.2132,7.2132,0,0,0,.4079-2.7007,6.12,6.12,0,0,0-.89-3.7081A2.6885,2.6885,0,0,0,53.3522,6.98Z" transform="translate(0.0442)" style="fill:#f37021"/><path d="M59.44,6.6768h-.618V6.4481h1.5512v.2287h-.618v1.854h-.2719Z" transform="translate(0.0442)" style="fill:#f37021"/><path d="M62.69,7.6223a7.4211,7.4211,0,0,1,0-.9084h0c-.0742.2472-.1607.5129-.2658.7972l-.3708,1.02H61.85L61.51,7.53a7.7908,7.7908,0,0,1-.241-.8157h0a7.1144,7.1144,0,0,1-.0432.9332l-.0557.8961h-.26l.1483-2.0951h.3461l.3584,1.0136c.0866.2595.1607.4882.21.7045h0a7.1857,7.1857,0,0,1,.2163-.7045l.3769-1.0136h.3461l.13,2.0951h-.2657Z" transform="translate(0.0442)" style="fill:#f37021"/><rect x="0.0442" width="120.8887" height="24.79" style="fill:none"/></svg>