<svg width="195" height="131" viewBox="0 0 195 131" fill="none" xmlns="http://www.w3.org/2000/svg">
<path opacity="0.1" d="M183.69 7.81842H6.2223C4.44267 7.81842 3 9.26109 3 11.0407V125.601C3 127.381 4.44267 128.824 6.2223 128.824H183.69C185.47 128.824 186.913 127.381 186.913 125.601V11.0407C186.913 9.26109 185.47 7.81842 183.69 7.81842Z" fill="#494C4E"/>
<path d="M187.517 4H10.0488C8.26915 4 6.82648 5.44267 6.82648 7.2223V121.783C6.82648 123.563 8.26915 125.005 10.0488 125.005H187.517C189.296 125.005 190.739 123.563 190.739 121.783V7.2223C190.739 5.44267 189.296 4 187.517 4Z" fill="#F8FAFF"/>
<path d="M190.739 7.81842C190.737 6.80498 190.333 5.83376 189.616 5.1179C188.898 4.40204 187.926 4 186.913 4H10.6449C9.63219 4 8.66096 4.4023 7.94487 5.11839C7.22877 5.83448 6.82648 6.80572 6.82648 7.81842V23.1807H190.739V7.81842Z" fill="#DFE6EE"/>
<path d="M44.3582 36.9238H25.7413C23.9617 36.9238 22.519 38.3665 22.519 40.1461V58.763C22.519 60.5426 23.9617 61.9853 25.7413 61.9853H44.3582C46.1378 61.9853 47.5805 60.5426 47.5805 58.763V40.1461C47.5805 38.3665 46.1378 36.9238 44.3582 36.9238Z" fill="#DFE6EE"/>
<path d="M74.4625 36.9238H55.8457C54.0661 36.9238 52.6234 38.3665 52.6234 40.1461V58.763C52.6234 60.5426 54.0661 61.9853 55.8457 61.9853H74.4625C76.2422 61.9853 77.6848 60.5426 77.6848 58.763V40.1461C77.6848 38.3665 76.2422 36.9238 74.4625 36.9238Z" fill="#DFE6EE"/>
<path d="M104.567 36.9238H85.95C84.1704 36.9238 82.7277 38.3665 82.7277 40.1461V58.763C82.7277 60.5426 84.1704 61.9853 85.95 61.9853H104.567C106.346 61.9853 107.789 60.5426 107.789 58.763V40.1461C107.789 38.3665 106.346 36.9238 104.567 36.9238Z" fill="#DFE6EE"/>
<path d="M134.679 36.9238H116.062C114.283 36.9238 112.84 38.3665 112.84 40.1461V58.763C112.84 60.5426 114.283 61.9853 116.062 61.9853H134.679C136.459 61.9853 137.902 60.5426 137.902 58.763V40.1461C137.902 38.3665 136.459 36.9238 134.679 36.9238Z" fill="#DFE6EE"/>
<path d="M164.784 36.9238H146.167C144.387 36.9238 142.944 38.3665 142.944 40.1461V58.763C142.944 60.5426 144.387 61.9853 146.167 61.9853H164.784C166.563 61.9853 168.006 60.5426 168.006 58.763V40.1461C168.006 38.3665 166.563 36.9238 164.784 36.9238Z" fill="#DFE6EE"/>
<path d="M44.3582 67.0281H25.7413C23.9617 67.0281 22.519 68.4708 22.519 70.2504V88.8673C22.519 90.6469 23.9617 92.0896 25.7413 92.0896H44.3582C46.1378 92.0896 47.5805 90.6469 47.5805 88.8673V70.2504C47.5805 68.4708 46.1378 67.0281 44.3582 67.0281Z" fill="#DFE6EE"/>
<path d="M74.4625 67.0281H55.8457C54.0661 67.0281 52.6234 68.4708 52.6234 70.2504V88.8673C52.6234 90.6469 54.0661 92.0896 55.8457 92.0896H74.4625C76.2422 92.0896 77.6848 90.6469 77.6848 88.8673V70.2504C77.6848 68.4708 76.2422 67.0281 74.4625 67.0281Z" fill="#DFE6EE"/>
<path d="M104.567 67.0281H85.95C84.1704 67.0281 82.7277 68.4708 82.7277 70.2504V88.8673C82.7277 90.6469 84.1704 92.0896 85.95 92.0896H104.567C106.346 92.0896 107.789 90.6469 107.789 88.8673V70.2504C107.789 68.4708 106.346 67.0281 104.567 67.0281Z" fill="#DFE6EE"/>
<path d="M134.679 67.0281H116.062C114.283 67.0281 112.84 68.4708 112.84 70.2504V88.8673C112.84 90.6469 114.283 92.0896 116.062 92.0896H134.679C136.459 92.0896 137.902 90.6469 137.902 88.8673V70.2504C137.902 68.4708 136.459 67.0281 134.679 67.0281Z" fill="#DFE6EE"/>
<path d="M164.784 67.0281H146.167C144.387 67.0281 142.944 68.4708 142.944 70.2504V88.8673C142.944 90.6469 144.387 92.0896 146.167 92.0896H164.784C166.563 92.0896 168.006 90.6469 168.006 88.8673V70.2504C168.006 68.4708 166.563 67.0281 164.784 67.0281Z" fill="#0115AD"/>
<path d="M153.07 85.5241L148.865 81.2868C148.785 81.2114 148.721 81.1204 148.677 81.0192C148.633 80.9181 148.61 80.809 148.61 80.6987C148.61 80.5885 148.633 80.4794 148.677 80.3782C148.721 80.2771 148.785 80.186 148.865 80.1107C148.941 80.0314 149.031 79.9684 149.132 79.9253C149.232 79.8821 149.34 79.8599 149.449 79.8599C149.559 79.8599 149.667 79.8821 149.767 79.9253C149.868 79.9684 149.958 80.0314 150.033 80.1107L153.07 83.1718L162.52 73.6741C162.675 73.5192 162.885 73.4322 163.104 73.4322C163.323 73.4322 163.533 73.5192 163.688 73.6741C163.843 73.829 163.93 74.0391 163.93 74.2582C163.93 74.4772 163.843 74.6873 163.688 74.8422L153.07 85.5241Z" fill="white"/>
</svg>
