<?xml version="1.0" encoding="UTF-8" standalone="no"?>
<!DOCTYPE svg PUBLIC "-//W3C//DTD SVG 1.1//EN" "http://www.w3.org/Graphics/SVG/1.1/DTD/svg11.dtd">
<svg width="100%" height="100%" viewBox="0 0 1013 1044" version="1.1" xmlns="http://www.w3.org/2000/svg" xmlns:xlink="http://www.w3.org/1999/xlink" xml:space="preserve" xmlns:serif="http://www.serif.com/" style="fill-rule:evenodd;clip-rule:evenodd;stroke-linejoin:round;stroke-miterlimit:2;">
    <g transform="matrix(1.33333,0,0,1.33333,-1199.75,-586.591)">
        <rect id="Artboard1" x="0" y="0" width="2480.32" height="1748.03" style="fill:none;"/>
        <g id="Artboard11" serif:id="Artboard1">
            <g id="Layer3">
                <g transform="matrix(1,0,0,1,0.112381,0.237936)">
                    <path d="M1445.61,477.682C1571.88,534.441 1654.02,657.274 1655.45,812.259C1656.39,913.702 1622.67,1002.51 1563.92,1067.81L1617.37,1128.84L1511.34,1217.24L1453.51,1149.78C1446.58,1153.11 1439.49,1156.23 1432.27,1159.15L1333.58,1045.67C1341.49,1043.7 1349.13,1041.3 1356.43,1038.44L1273.52,943.149L1379.56,855.826L1462.47,951.113C1485.86,913.122 1498.37,865.519 1497.89,813.718C1496.88,705.086 1440.09,618.667 1348.68,589.772L1445.61,477.682Z" style="fill:rgb(255,175,0);"/>
                </g>
                <path d="M1420.16,1163.8C1377.99,1179.16 1331.5,1187.61 1282.26,1188.06C1065.35,1190.07 905.272,1036.14 903.263,819.224C901.255,602.309 1058.45,445.439 1275.37,443.431C1332.42,442.902 1385.5,453.055 1432.81,472.215L1332.95,585.455C1315.28,581.314 1296.46,579.223 1276.63,579.407C1143.89,580.636 1059.57,682.868 1060.82,817.765C1062.06,951.583 1148.27,1053.32 1281.01,1052.09C1293.92,1051.97 1306.57,1050.86 1318.74,1048.77L1420.16,1163.8ZM1168.4,555.033C1174.66,555.033 1179.73,560.11 1179.73,566.363C1179.73,572.616 1174.66,577.693 1168.4,577.693C1162.15,577.693 1157.07,572.616 1157.07,566.363C1157.07,560.11 1162.15,555.033 1168.4,555.033Z" style="fill:rgb(223,64,64);fill-rule:nonzero;"/>
            </g>
        </g>
    </g>
</svg>
