<?xml version="1.0" encoding="UTF-8" standalone="no"?><!DOCTYPE svg PUBLIC "-//W3C//DTD SVG 1.1//EN" "http://www.w3.org/Graphics/SVG/1.1/DTD/svg11.dtd"><svg width="100%" height="100%" viewBox="0 0 580 506" version="1.1" xmlns="http://www.w3.org/2000/svg" xmlns:xlink="http://www.w3.org/1999/xlink" xml:space="preserve" xmlns:serif="http://www.serif.com/" style="fill-rule:evenodd;clip-rule:evenodd;stroke-linejoin:round;stroke-miterlimit:2;"><g transform="matrix(3.12348,-0.097574,0.097574,3.12348,-239.827,-33.1806)"><g transform="matrix(0.899388,-0.437152,0.437152,0.899388,-16.1413,51.7942)"><text x="104.45px" y="60.963px" style="font-family:'BodoniSvtyTwoSCITCTT-Book', 'Bodoni 72 Smallcaps';font-size:50.667px;">D</text></g><g transform="matrix(0.974109,-0.22608,0.22608,0.974109,-6.91553,32.3015)"><text x="137.569px" y="46.344px" style="font-family:'BodoniSvtyTwoSCITCTT-Book', 'Bodoni 72 Smallcaps';font-size:50.667px;">i</text></g><g transform="matrix(0.997466,-0.0711515,0.0711515,0.997466,-2.70318,10.744)"><text x="149.459px" y="43.316px" style="font-family:'BodoniSvtyTwoSCITCTT-Book', 'Bodoni 72 Smallcaps';font-size:50.667px;">s</text></g><g transform="matrix(0.992344,0.123502,-0.123502,0.992344,6.45301,-20.4025)"><text x="167.794px" y="41.849px" style="font-family:'BodoniSvtyTwoSCITCTT-Book', 'Bodoni 72 Smallcaps';font-size:50.667px;">t</text></g><g transform="matrix(0.9492,0.314673,-0.314673,0.9492,23.6029,-57.2539)"><text x="189.127px" y="44.475px" style="font-family:'BodoniSvtyTwoSCITCTT-Book', 'Bodoni 72 Smallcaps';font-size:50.667px;">r</text></g><g transform="matrix(0.88542,0.464793,-0.464793,0.88542,47.9693,-91.8417)"><text x="210.261px" y="51.372px" style="font-family:'BodoniSvtyTwoSCITCTT-Book', 'Bodoni 72 Smallcaps';font-size:50.667px;">o</text></g></g><ellipse cx="290.383" cy="101.604" rx="16.39" ry="15.653" style="fill:#758189;"/><path d="M39.755,271.6c42.383,107.055 455.605,101.9 493.922,-4.155c-13.553,128.314 -482.213,127.631 -493.922,4.155Z"/><path d="M39.755,271.6c42.383,107.055 455.605,101.9 493.922,-4.155c-6.74,63.812 -126.038,95.721 -245.714,96.489c-120.968,0.777 -242.322,-30.264 -248.208,-92.334Z"/><path d="M39.755,271.6c21.305,53.815 136.319,79.275 250.313,77.818c112.776,-1.442 224.553,-29.23 243.609,-81.973c-6.74,63.812 -126.038,95.721 -245.714,96.489c-120.968,0.777 -242.322,-30.264 -248.208,-92.334Z"/><path d="M454.494,279.883c-66.867,53.884 -241.252,62.259 -337.309,7.967c21.626,-189.034 249.672,-216.17 323.287,-65.254c-102.015,-125.18 -247.974,-102.268 -294.965,34.311c-2.121,6.165 -5.023,15.076 -6.315,21.852c6.441,6.518 35.017,13.813 60.282,19.618c60.314,13.856 170.355,17.201 255.02,-18.494Z" style="fill:#76828b;"/><text x="-5.833px" y="503.72px" style="font-family:'BodoniSvtyTwoSCITCTT-Book', 'Bodoni 72 Smallcaps';font-size:233.333px;">Bistro</text></svg>