<?xml version="1.0" encoding="UTF-8" standalone="no"?>
<!DOCTYPE svg PUBLIC "-//W3C//DTD SVG 1.1//EN" "http://www.w3.org/Graphics/SVG/1.1/DTD/svg11.dtd">
<svg width="100%" height="100%" viewBox="0 0 1929 761" version="1.1" xmlns="http://www.w3.org/2000/svg" xmlns:xlink="http://www.w3.org/1999/xlink" xml:space="preserve" xmlns:serif="http://www.serif.com/" style="fill-rule:evenodd;clip-rule:evenodd;stroke-linecap:round;stroke-linejoin:round;stroke-miterlimit:1.5;">
    <g transform="matrix(1,0,0,1,-386.001,-367.78)">
        <rect id="Artboard1" x="0" y="0" width="2480.32" height="1748.03" style="fill:none;"/>
        <g id="Artboard11" serif:id="Artboard1">
            <g transform="matrix(1,0,0,1,0,3.56273)">
                <circle cx="649.183" cy="746.087" r="256.932" style="fill:none;stroke:black;stroke-width:12.5px;"/>
            </g>
            <g transform="matrix(1,0,0,1,-4.43903,-32.1459)">
                <g transform="matrix(400,0,0,400,539.405,923.527)">
                    <path d="M0.121,-0.575C0.121,-0.581 0.12,-0.586 0.119,-0.591C0.117,-0.595 0.113,-0.599 0.108,-0.602C0.103,-0.605 0.095,-0.608 0.086,-0.611C0.077,-0.613 0.065,-0.615 0.05,-0.618C0.043,-0.62 0.04,-0.626 0.04,-0.636L0.04,-0.646C0.04,-0.649 0.041,-0.652 0.042,-0.655C0.071,-0.653 0.096,-0.652 0.118,-0.651C0.14,-0.65 0.159,-0.65 0.174,-0.65L0.379,-0.65C0.41,-0.65 0.436,-0.651 0.458,-0.653C0.479,-0.655 0.494,-0.656 0.501,-0.656C0.508,-0.656 0.514,-0.653 0.517,-0.647C0.519,-0.642 0.521,-0.632 0.522,-0.618C0.523,-0.603 0.526,-0.588 0.529,-0.573C0.531,-0.562 0.533,-0.551 0.536,-0.54C0.539,-0.529 0.543,-0.516 0.548,-0.501C0.545,-0.5 0.542,-0.498 0.538,-0.497C0.533,-0.496 0.529,-0.495 0.525,-0.495C0.518,-0.495 0.513,-0.498 0.51,-0.504C0.502,-0.521 0.494,-0.536 0.487,-0.549C0.479,-0.561 0.47,-0.571 0.461,-0.579C0.451,-0.586 0.44,-0.592 0.427,-0.595C0.413,-0.598 0.398,-0.6 0.379,-0.6L0.247,-0.6L0.247,-0.347L0.385,-0.347C0.396,-0.347 0.405,-0.353 0.41,-0.364C0.415,-0.375 0.419,-0.391 0.422,-0.413C0.424,-0.422 0.43,-0.426 0.441,-0.426C0.443,-0.426 0.446,-0.426 0.451,-0.426C0.455,-0.425 0.458,-0.425 0.46,-0.424C0.459,-0.409 0.458,-0.391 0.457,-0.371C0.456,-0.35 0.455,-0.333 0.455,-0.319C0.455,-0.307 0.455,-0.293 0.456,-0.277C0.457,-0.26 0.458,-0.242 0.46,-0.221C0.458,-0.22 0.455,-0.219 0.451,-0.219C0.447,-0.218 0.444,-0.218 0.442,-0.218C0.431,-0.218 0.424,-0.223 0.422,-0.232C0.419,-0.253 0.415,-0.27 0.41,-0.281C0.405,-0.292 0.396,-0.297 0.385,-0.297L0.247,-0.297L0.247,-0.073C0.247,-0.066 0.249,-0.061 0.254,-0.057C0.259,-0.052 0.265,-0.049 0.273,-0.046C0.281,-0.043 0.29,-0.04 0.301,-0.039C0.312,-0.037 0.323,-0.035 0.335,-0.033C0.343,-0.032 0.347,-0.027 0.347,-0.016C0.347,-0.014 0.347,-0.011 0.347,-0.006C0.346,-0.001 0.346,0.002 0.345,0.005C0.336,0.005 0.326,0.005 0.317,0.005C0.308,0.004 0.298,0.004 0.289,0.003C0.272,0.002 0.253,0.001 0.234,0.001C0.214,0 0.194,-0 0.175,-0C0.166,-0 0.156,0 0.145,0.001L0.075,0.004C0.063,0.004 0.052,0.004 0.042,0.005C0.041,0.002 0.04,-0.001 0.04,-0.006L0.04,-0.015C0.04,-0.025 0.043,-0.03 0.05,-0.031C0.072,-0.036 0.089,-0.042 0.102,-0.047C0.115,-0.051 0.121,-0.061 0.121,-0.074L0.121,-0.575Z" style="fill:rgb(160,23,23);fill-rule:nonzero;"/>
                </g>
            </g>
            <g transform="matrix(1,0,0,1,701.024,3.56273)">
                <circle cx="649.183" cy="746.087" r="256.932" style="fill:none;stroke:black;stroke-width:12.5px;"/>
            </g>
            <g transform="matrix(1,0,0,1,696.202,-32.1459)">
                <g transform="matrix(400,0,0,400,547.005,923.527)">
                    <path d="M0.468,-0.488C0.462,-0.486 0.456,-0.485 0.449,-0.485C0.44,-0.485 0.433,-0.487 0.429,-0.491C0.425,-0.494 0.422,-0.498 0.421,-0.502C0.406,-0.54 0.386,-0.567 0.362,-0.584C0.337,-0.601 0.305,-0.609 0.264,-0.609C0.232,-0.609 0.205,-0.601 0.183,-0.586C0.16,-0.57 0.149,-0.546 0.149,-0.514C0.149,-0.489 0.158,-0.47 0.175,-0.455C0.192,-0.44 0.213,-0.426 0.239,-0.415C0.264,-0.404 0.292,-0.393 0.322,-0.382C0.351,-0.371 0.379,-0.358 0.405,-0.342C0.43,-0.326 0.452,-0.306 0.469,-0.281C0.486,-0.256 0.494,-0.225 0.494,-0.186C0.494,-0.161 0.49,-0.136 0.481,-0.112C0.472,-0.088 0.459,-0.067 0.44,-0.049C0.421,-0.03 0.398,-0.016 0.369,-0.005C0.34,0.007 0.306,0.012 0.266,0.012C0.222,0.012 0.183,0.007 0.148,-0.003C0.113,-0.012 0.085,-0.023 0.062,-0.034C0.06,-0.063 0.057,-0.091 0.053,-0.119C0.048,-0.146 0.043,-0.173 0.038,-0.199C0.045,-0.202 0.052,-0.203 0.061,-0.203C0.069,-0.203 0.075,-0.202 0.079,-0.199C0.083,-0.196 0.086,-0.19 0.089,-0.183C0.098,-0.158 0.107,-0.136 0.118,-0.118C0.129,-0.099 0.141,-0.084 0.155,-0.073C0.169,-0.061 0.185,-0.052 0.204,-0.047C0.222,-0.042 0.243,-0.039 0.267,-0.039C0.288,-0.039 0.305,-0.042 0.32,-0.048C0.335,-0.053 0.347,-0.061 0.356,-0.07C0.365,-0.079 0.372,-0.09 0.377,-0.103C0.382,-0.116 0.384,-0.129 0.384,-0.142C0.384,-0.171 0.376,-0.193 0.36,-0.21C0.343,-0.226 0.323,-0.24 0.299,-0.251C0.274,-0.262 0.248,-0.272 0.22,-0.282C0.191,-0.291 0.165,-0.304 0.141,-0.319C0.116,-0.334 0.096,-0.353 0.08,-0.377C0.063,-0.4 0.055,-0.432 0.055,-0.472C0.055,-0.499 0.06,-0.524 0.07,-0.547C0.079,-0.57 0.093,-0.59 0.112,-0.607C0.131,-0.624 0.153,-0.637 0.18,-0.647C0.206,-0.657 0.236,-0.662 0.27,-0.662C0.298,-0.662 0.326,-0.659 0.355,-0.653C0.383,-0.647 0.415,-0.637 0.451,-0.623C0.452,-0.603 0.455,-0.58 0.458,-0.556C0.46,-0.531 0.464,-0.508 0.468,-0.488Z" style="fill:rgb(160,23,23);fill-rule:nonzero;"/>
                </g>
            </g>
            <g transform="matrix(1,0,0,1,1402.05,3.56273)">
                <circle cx="649.183" cy="746.087" r="256.932" style="fill:none;stroke:black;stroke-width:12.5px;"/>
            </g>
            <g transform="matrix(0.93805,0,0,0.93805,1442.26,49.783)">
                <circle cx="649.183" cy="746.087" r="256.932" style="fill:none;stroke:black;stroke-width:8.88px;"/>
            </g>
            <g transform="matrix(1,0,0,1,1397.61,-32.1459)">
                <g transform="matrix(400,0,0,400,503.205,923.527)">
                    <path d="M0.644,-0.247C0.644,-0.209 0.64,-0.174 0.632,-0.143C0.624,-0.111 0.61,-0.084 0.591,-0.061C0.571,-0.038 0.545,-0.02 0.512,-0.007C0.479,0.006 0.437,0.012 0.387,0.012C0.328,0.012 0.28,0.005 0.244,-0.008C0.207,-0.021 0.179,-0.04 0.16,-0.063C0.14,-0.086 0.127,-0.113 0.12,-0.144C0.113,-0.175 0.11,-0.208 0.11,-0.243L0.11,-0.575C0.11,-0.589 0.106,-0.599 0.097,-0.605C0.088,-0.61 0.071,-0.615 0.044,-0.618C0.037,-0.619 0.033,-0.626 0.033,-0.637L0.033,-0.645C0.033,-0.648 0.034,-0.652 0.035,-0.655C0.054,-0.654 0.075,-0.653 0.097,-0.652C0.118,-0.651 0.144,-0.65 0.174,-0.65C0.197,-0.65 0.222,-0.651 0.247,-0.652C0.272,-0.653 0.295,-0.654 0.315,-0.655C0.316,-0.652 0.316,-0.648 0.317,-0.645C0.317,-0.642 0.317,-0.639 0.317,-0.637C0.317,-0.626 0.313,-0.619 0.306,-0.618C0.279,-0.615 0.26,-0.61 0.251,-0.604C0.241,-0.598 0.236,-0.588 0.236,-0.575L0.236,-0.265C0.236,-0.196 0.249,-0.143 0.275,-0.107C0.3,-0.071 0.344,-0.053 0.407,-0.053C0.471,-0.053 0.517,-0.07 0.544,-0.104C0.571,-0.137 0.584,-0.192 0.584,-0.268L0.584,-0.575C0.584,-0.588 0.579,-0.598 0.57,-0.604C0.561,-0.61 0.543,-0.615 0.517,-0.618C0.509,-0.62 0.505,-0.626 0.505,-0.637C0.505,-0.639 0.505,-0.642 0.506,-0.645C0.506,-0.648 0.506,-0.652 0.507,-0.655C0.526,-0.653 0.544,-0.652 0.561,-0.651C0.577,-0.65 0.594,-0.65 0.613,-0.65C0.634,-0.65 0.653,-0.65 0.67,-0.651C0.687,-0.652 0.703,-0.653 0.719,-0.655C0.72,-0.652 0.72,-0.648 0.721,-0.645C0.721,-0.642 0.721,-0.639 0.721,-0.637C0.721,-0.626 0.717,-0.62 0.709,-0.618C0.684,-0.615 0.667,-0.611 0.658,-0.605C0.649,-0.598 0.644,-0.588 0.644,-0.575L0.644,-0.247Z" style="fill:rgb(160,23,23);fill-rule:nonzero;"/>
                </g>
            </g>
            <g transform="matrix(1,0,0,1,1.69906,2)">
                <g transform="matrix(1,-0,-0,1,384.302,365.78)">
                    <path d="M830.753,112.344L846.952,151.015L806.296,140.772L832.738,138.786L830.753,112.344Z" style="fill:rgb(78,73,190);"/>
                    <path d="M384.986,151.871C606.868,-28.696 765.92,82.559 832.738,138.786" style="fill:none;stroke:rgb(78,73,190);stroke-width:12.5px;"/>
                </g>
            </g>
            <g transform="matrix(-1,0,0,-1,2001.24,1494.4)">
                <g transform="matrix(-1,-0,-0,-1,1615.24,1126.62)">
                    <path d="M400.185,648.498L383.986,609.827L424.641,620.07L398.199,622.056L400.185,648.498Z" style="fill:rgb(78,73,190);"/>
                    <path d="M845.952,608.971C624.07,789.538 465.018,678.283 398.199,622.056" style="fill:none;stroke:rgb(78,73,190);stroke-width:12.5px;"/>
                </g>
            </g>
            <g transform="matrix(0.403874,4.90814e-17,-4.90814e-17,-0.00309451,1301.09,751.099)">
                <g transform="matrix(2.47602,3.92716e-14,-3.92716e-14,-323.153,-2265.79,123871)">
                    <path d="M1374.75,363.201L1412.36,381.72L1374.98,400.7L1393.62,381.835L1374.75,363.201Z" style="fill:rgb(78,73,190);"/>
                    <path d="M1225.79,381.717C1303.24,382.2 1361.74,382.009 1393.62,381.835" style="fill:none;stroke:rgb(78,73,190);stroke-width:12.5px;"/>
                </g>
            </g>
        </g>
    </g>
</svg>
