<svg xmlns="http://www.w3.org/2000/svg" viewBox="0 0 288 115.84"><defs><style>.a{fill:#fff;}.b{fill:#34e82a;}</style></defs><path class="a" d="M221.63,116.16l-5.79,28.42h-62l0-7.25,9.44-10c19.3-20.36,34.46-36.5,34.46-53.27,0-10.4-4.07-16.87-11.17-16.87s-11.51,7.2-11.51,18l0,5.47H156.42a19.36,19.36,0,0,1-.63-5.21c0-16.82,16.43-25.37,31.88-25.37,15.24,0,30.63,7.3,30.63,24.73a28.27,28.27,0,0,1-3.12,12.43,54.53,54.53,0,0,1-7.88,11.55c-3.92,4.63-12.45,11.77-20,17.74-6,4.79-11.43,8.82-13.35,10.25h36.58l9.75-10.62Z" transform="translate(-36 -50.08)"/><path class="a" d="M36,158.8H46.72L52,151.68l0-85.36L46.75,59.2H36V52.09H87.14c39.6,0,57.07,22.44,57.07,55.63S117,165.91,86.82,165.91H36Zm53.22-2.67c22.29,0,29.66-14.1,29.66-42.8,0-30.14-11.86-54.13-32.54-54.13a27.13,27.13,0,0,0-8.5,1.28A27.17,27.17,0,0,0,75,61.77l0,89.91C78.28,155.07,84.9,156.13,89.22,156.13Z" transform="translate(-36 -50.08)"/><polygon class="a" points="288 80.27 280.74 115.84 196.11 115.84 196.11 108.7 206.8 108.7 212.15 101.59 212.15 16.24 206.8 9.13 196.11 9.13 196.11 2 253.99 2 253.99 9.13 240.04 9.13 235.05 16.24 235.05 105.2 261.94 105.2 285.34 80.27 288 80.27"/><path class="b" d="M217.86,155.25v4.44l-6.22,6.22H150.38v-4.43l6.23-6.23Z" transform="translate(-36 -50.08)"/></svg>