<svg width="1000" height="205" viewBox="0 0 1000 205" fill="none" xmlns="http://www.w3.org/2000/svg">
<path d="M137.899 28.7946C137.899 28.7946 129.07 47.663 124.571 57.2237C102.525 47.0725 73.6457 45.6384 49.3783 60.0357C33.0688 69.9057 20.1337 87.5087 18.784 106.377C18.3341 118.975 23.8174 132.753 22.0178 145.323C21.6977 152.055 19.9432 158.642 16.8719 164.641C12.8226 171.39 7.9579 177.239 0 177.689C1.79967 175.439 14.2848 169.253 9.36388 141.133C7.42361 129.885 -7.98602 102.103 6.91746 67.2062C20.415 35.2341 79.2696 -2.50266 137.899 28.7946Z" fill="#005039"/>
<path d="M70.4682 84.6405C78.3008 82.0257 86.7124 81.6748 94.7356 83.6282C101.885 84.7067 108.627 87.6392 114.291 92.1337C119.955 96.6282 124.342 102.528 127.017 109.245C132.866 123.586 137.112 135.144 147.066 147.376C141.812 146.818 136.606 145.878 131.488 144.564C135.369 116.163 108.542 115.01 101.119 125.639C103.987 128.635 107.512 130.924 111.416 132.324C115.32 133.725 119.496 134.199 123.615 133.709C122.04 161.829 129.913 187.531 129.463 187.446C123.08 186.575 93.7795 169.337 85.203 161.829C72.6053 164.079 62.7071 168.747 48.1692 170.743C47.7193 170.743 50.9812 160.001 50.3907 154.602C50.3907 139.755 39.1428 125.864 47.0726 107.642C51.9373 96.732 59.2203 88.6616 70.4682 84.6405Z" fill="#005039"/>
<path d="M81.0131 76.064C81.8567 76.064 83.1502 76.289 83.1783 76.064C83.9321 70.9973 86.416 66.3475 90.2082 62.9039C94.571 59.4507 99.9986 57.6216 105.562 57.7299C97.7878 55.4816 89.6652 54.6903 81.6036 55.396L81.0131 76.064Z" fill="#005039"/>
<path d="M25.4766 101.681C24.2669 108.427 24.0301 115.311 24.7736 122.124C25.5421 117.973 27.3841 114.095 30.1163 110.876C32.7254 108.305 36.2121 106.818 39.8739 106.715C40.163 105.794 40.3885 104.854 40.5488 103.903L25.4766 101.681Z" fill="#005039"/>
<path d="M42.3766 100.106C42.8265 98.9816 43.3608 97.9693 44.0075 96.7039L28.4854 90.6863C27.5918 92.7409 26.9042 94.8791 26.4326 97.0695L42.3766 100.106Z" fill="#005039"/>
<path d="M46.1164 94.1732C46.1164 94.1732 48.6191 91.0238 48.6472 91.0519L34.5873 80.3664C33.1033 82.2291 31.874 84.2811 30.9317 86.4683L46.1164 94.1732Z" fill="#005039"/>
<path d="M51.403 88.3524L54.5805 85.5404L42.2641 71.4805C40.2969 73.1601 38.5152 75.0455 36.9494 77.1045L51.403 88.3524Z" fill="#005039"/>
<path d="M57.8142 83.5157C59.0768 82.9257 60.2817 82.2197 61.4136 81.4067L52.2747 64.7598C49.8856 65.9292 47.624 67.3428 45.5259 68.9778L57.8142 83.5157Z" fill="#005039"/>
<path d="M64.5912 79.8039C65.9962 79.2165 67.4439 78.7371 68.9217 78.3698L63.7476 59.642C61.0725 60.4345 58.4823 61.4894 56.0147 62.7914L64.5912 79.8039Z" fill="#005039"/>
<path d="M72.4365 77.2732C72.4365 77.2732 76.3733 76.4296 76.4014 76.4296L76.7951 56.099C76.6264 56.099 72.071 56.9426 68.3592 58.0392L72.4365 77.2732Z" fill="#005039"/>
<path d="M200.607 0V204.515" stroke="black" stroke-width="0.84" stroke-miterlimit="10"/>
<path d="M227.602 51.2343H245.345C247.573 51.1932 249.791 51.5454 251.897 52.2747C253.629 52.8647 255.212 53.8242 256.537 55.0867C257.441 55.9721 258.156 57.0316 258.64 58.2012C259.123 59.3708 259.364 60.6262 259.349 61.8917C259.373 63.2139 259.154 64.5294 258.702 65.7722C258.308 66.8007 257.737 67.7523 257.015 68.5842C256.331 69.3872 255.536 70.088 254.653 70.665C253.817 71.1892 252.943 71.6498 252.038 72.0429C253.303 72.3694 254.537 72.8118 255.721 73.3645C256.859 73.8849 257.904 74.5878 258.814 75.4454C259.687 76.3538 260.375 77.4235 260.839 78.5948C261.391 79.8221 261.661 81.158 261.626 82.5035C261.65 84.1979 261.274 85.874 260.53 87.3963C259.794 88.8611 258.713 90.1252 257.38 91.08C255.92 92.1391 254.282 92.9295 252.544 93.4139C250.485 93.9899 248.354 94.2646 246.217 94.2294H227.545L227.602 51.2343ZM245.008 71.1712C246.508 71.1944 248.004 71.0051 249.451 70.6088C250.706 70.2503 251.887 69.6693 252.937 68.8935C253.916 68.1427 254.714 67.1817 255.271 66.0815C255.827 64.8742 256.106 63.558 256.087 62.2291C256.113 61.1094 255.872 59.9995 255.383 58.9919C254.894 57.9843 254.171 57.1081 253.275 56.4364C250.934 54.806 248.107 54.0224 245.261 54.215H230.751V71.2555L245.008 71.1712ZM246.414 91.4455C249.527 91.6056 252.61 90.7682 255.215 89.0554C256.258 88.3381 257.104 87.3696 257.674 86.2392C258.244 85.1088 258.52 83.8531 258.477 82.5878C258.552 81.3375 258.288 80.0901 257.714 78.9768C257.14 77.8635 256.277 76.9253 255.215 76.2609C252.238 74.6152 248.853 73.8543 245.458 74.0675H230.892V91.4455H246.414Z" fill="#231F20"/>
<path d="M271.525 62.932H274.533V71.8741C275.133 70.4816 275.918 69.1764 276.867 67.9936C277.771 66.8125 278.852 65.7785 280.073 64.9285C282.529 63.1834 285.499 62.3121 288.509 62.454V65.7721H288.2C286.434 65.7655 284.685 66.1095 283.054 66.7845C281.403 67.4649 279.917 68.4908 278.695 69.7933C277.394 71.2266 276.382 72.8974 275.714 74.7142C274.95 76.8806 274.578 79.166 274.618 81.463V94.3137H271.525V62.932Z" fill="#231F20"/>
<path d="M308.108 95.073C305.893 95.092 303.698 94.6416 301.669 93.7513C299.78 92.888 298.065 91.6873 296.608 90.2082C295.166 88.718 294.029 86.9604 293.261 85.0342C292.448 83.0443 292.037 80.9131 292.052 78.7635V78.5948C292.037 76.4452 292.448 74.314 293.261 72.3241C294.816 68.3946 297.843 65.2268 301.697 63.4945C303.726 62.6042 305.921 62.1538 308.137 62.1728C310.353 62.1486 312.549 62.5992 314.576 63.4945C316.567 64.32 318.374 65.5341 319.891 67.0657C321.338 68.5513 322.476 70.3101 323.237 72.2397C324.053 74.2288 324.464 76.3606 324.446 78.5104C324.464 80.6694 324.053 82.8104 323.237 84.8092C321.682 88.7387 318.656 91.9065 314.801 93.6389C312.701 94.5992 310.417 95.0886 308.108 95.073ZM308.108 92.261C309.841 92.2766 311.558 91.9322 313.15 91.2497C314.743 90.5672 316.176 89.5615 317.36 88.2961C318.569 87.0806 319.525 85.6374 320.172 84.05C320.817 82.3921 321.141 80.6268 321.128 78.8479V78.5948C321.133 76.7866 320.799 74.9935 320.144 73.3083C319.493 71.6979 318.538 70.2278 317.332 68.9778C316.144 67.7876 314.741 66.8335 313.198 66.1658C311.584 65.4629 309.84 65.1084 308.08 65.1254C306.3 65.1153 304.537 65.4793 302.906 66.194C301.382 66.8654 299.998 67.8195 298.829 69.0059C297.679 70.2455 296.781 71.6973 296.186 73.2801C295.541 74.9381 295.216 76.7034 295.23 78.4823C295.211 80.3008 295.545 82.1057 296.214 83.7969C296.848 85.4079 297.805 86.8721 299.026 88.0993C300.212 89.352 301.642 90.3478 303.229 91.025C304.815 91.7022 306.524 92.0463 308.249 92.036L308.108 92.261Z" fill="#231F20"/>
<path d="M342.893 95.0729C341.419 95.0626 339.953 94.8545 338.534 94.4543C337.147 94.0551 335.835 93.4279 334.653 92.5984C333.514 91.783 332.556 90.7391 331.842 89.5333C331.108 88.2201 330.739 86.7347 330.773 85.231C330.744 83.7167 331.092 82.219 331.785 80.8724C332.461 79.6001 333.424 78.5026 334.597 77.6668C335.895 76.746 337.354 76.0782 338.9 75.6984C340.737 75.2281 342.627 75.0012 344.524 75.0235C346.405 75.0043 348.285 75.1265 350.147 75.3891C351.72 75.6305 353.279 75.959 354.815 76.3733V75.0235C354.905 73.6949 354.699 72.363 354.213 71.1233C353.726 69.8836 352.972 68.7668 352.003 67.853C349.845 66.1675 347.145 65.3277 344.411 65.4909C342.624 65.4687 340.843 65.7055 339.125 66.1939C337.555 66.6542 336.03 67.2566 334.569 67.9936L333.472 65.3503C335.147 64.5175 336.899 63.8489 338.703 63.3538C340.626 62.8239 342.614 62.5683 344.608 62.5946C346.403 62.4763 348.204 62.719 349.904 63.3082C351.604 63.8974 353.169 64.8212 354.506 66.0252C355.611 67.2084 356.465 68.6033 357.016 70.1257C357.567 71.6482 357.804 73.2665 357.712 74.8829V94.5668H354.759V89.0834C354.19 89.8801 353.54 90.6152 352.819 91.2767C352.03 92.0203 351.151 92.6626 350.204 93.1889C349.15 93.7779 348.025 94.2314 346.857 94.5386C345.564 94.8843 344.231 95.0638 342.893 95.0729ZM343.089 92.2609C344.635 92.2607 346.171 92.0236 347.645 91.558C349.006 91.1257 350.281 90.4596 351.413 89.5896C352.479 88.7704 353.361 87.7356 354 86.5526C354.648 85.3532 354.977 84.0072 354.956 82.644V78.9884C353.634 78.6791 352.144 78.3417 350.344 78.0323C348.344 77.7234 346.322 77.573 344.299 77.5824C341.601 77.4141 338.921 78.1137 336.65 79.5789C335.774 80.152 335.057 80.937 334.565 81.8612C334.074 82.7854 333.824 83.8187 333.838 84.8654V85.006C333.806 86.0655 334.059 87.1141 334.569 88.043C335.071 88.9159 335.751 89.6729 336.566 90.2644C337.414 90.8925 338.366 91.3683 339.378 91.6704C340.58 92.0375 341.833 92.2084 343.089 92.1766V92.2609Z" fill="#231F20"/>
<path d="M381.754 95.073C379.823 95.0782 377.911 94.6958 376.13 93.9482C374.302 93.2167 372.638 92.1267 371.237 90.7425C369.722 89.2938 368.517 87.5528 367.694 85.6247C366.78 83.4549 366.329 81.1178 366.373 78.7635V78.5948C366.329 76.2405 366.78 73.9034 367.694 71.7336C368.505 69.8035 369.68 68.0471 371.153 66.5595C372.586 65.1687 374.277 64.0703 376.13 63.3258C377.911 62.5782 379.823 62.1957 381.754 62.201C383.212 62.1829 384.663 62.3916 386.056 62.8196C387.311 63.1998 388.504 63.7586 389.599 64.4787C390.624 65.1672 391.567 65.969 392.411 66.8688C393.24 67.7407 393.992 68.6814 394.661 69.6808V49.4065H397.67V94.3981H394.661V87.3119C393.946 88.2919 393.176 89.2308 392.355 90.1239C391.532 91.0705 390.587 91.9027 389.543 92.5984C388.453 93.2997 387.283 93.8663 386.056 94.2856C384.673 94.7759 383.221 95.0417 381.754 95.073ZM382.007 92.261C383.65 92.2574 385.276 91.9227 386.787 91.2768C389.929 89.9159 392.426 87.3987 393.761 84.2469C394.51 82.5269 394.884 80.6673 394.858 78.7916C394.896 76.8603 394.523 74.943 393.761 73.1677C393.117 71.5789 392.16 70.1352 390.949 68.9216C389.773 67.7306 388.379 66.7761 386.844 66.1096C385.333 65.4638 383.707 65.129 382.063 65.1254C380.406 65.1128 378.762 65.4282 377.227 66.0534C375.752 66.6482 374.419 67.5491 373.318 68.6966C372.093 69.9099 371.135 71.3657 370.506 72.9708C369.864 74.7751 369.55 76.6798 369.578 78.5948C369.538 80.5156 369.872 82.4258 370.562 84.2187C371.158 85.8162 372.066 87.2788 373.234 88.5211C374.347 89.71 375.685 90.6658 377.17 91.333C378.68 91.9353 380.298 92.2224 381.923 92.1766L382.007 92.261Z" fill="#231F20"/>
<path d="M447.695 95.0729C444.792 95.0833 441.92 94.4896 439.259 93.3295C436.663 92.2569 434.317 90.658 432.37 88.6335C430.428 86.5993 428.908 84.2004 427.899 81.5755C426.819 78.8164 426.275 75.8771 426.296 72.9146C426.287 69.9688 426.841 67.0484 427.927 64.3099C428.97 61.6786 430.496 59.2657 432.426 57.1956C434.38 55.0659 436.758 53.368 439.407 52.2107C442.056 51.0534 444.917 50.4622 447.807 50.475C449.564 50.4567 451.317 50.6264 453.038 50.9811C454.541 51.2751 456.004 51.7471 457.396 52.3871C458.707 53.0023 459.959 53.7365 461.136 54.5805C462.332 55.4522 463.477 56.391 464.567 57.3925L462.289 59.7264C461.348 58.831 460.353 57.9951 459.308 57.2237C458.294 56.4307 457.19 55.7606 456.018 55.2272C454.805 54.6431 453.532 54.1906 452.222 53.8775C450.754 53.5538 449.255 53.3935 447.751 53.3995C445.272 53.3684 442.816 53.8769 440.552 54.8898C438.424 55.8586 436.511 57.2451 434.929 58.9672C433.288 60.753 432 62.8329 431.132 65.0973C430.186 67.5062 429.709 70.0736 429.726 72.6615C429.705 75.2707 430.192 77.8591 431.16 80.2819C432.043 82.5537 433.34 84.6419 434.985 86.4402C436.615 88.1773 438.575 89.5728 440.749 90.5457C443.01 91.5674 445.467 92.0855 447.948 92.0641C450.752 92.1226 453.533 91.5357 456.075 90.3488C458.57 89.0537 460.84 87.3635 462.795 85.3435L464.932 87.4525C463.806 88.5266 462.623 89.5404 461.389 90.4894C460.19 91.4081 458.899 92.1998 457.537 92.8515C456.111 93.5383 454.611 94.0573 453.066 94.3981C451.307 94.8293 449.505 95.0558 447.695 95.0729Z" fill="#231F20"/>
<path d="M486.753 95.073C484.546 95.095 482.36 94.6443 480.342 93.7514C478.441 92.8949 476.715 91.6936 475.252 90.2083C473.81 88.718 472.674 86.9604 471.906 85.0342C471.093 83.0443 470.682 80.9131 470.697 78.7635V78.5948C470.682 76.4452 471.093 74.314 471.906 72.3241C473.461 68.3946 476.487 65.2268 480.342 63.4945C482.381 62.6044 484.585 62.1541 486.81 62.1729C489.016 62.1509 491.203 62.6015 493.221 63.4945C495.133 64.3304 496.863 65.5342 498.311 67.0376C499.758 68.5232 500.896 70.282 501.657 72.2116C502.516 74.2296 502.957 76.4014 502.95 78.5948C502.968 80.7537 502.557 82.8948 501.741 84.8936C500.968 86.8401 499.821 88.6168 498.367 90.1239C496.895 91.6393 495.149 92.8608 493.221 93.7232C491.185 94.6254 488.98 95.0855 486.753 95.073ZM486.753 92.261C488.525 92.274 490.279 91.9097 491.899 91.1925C493.435 90.5266 494.829 89.572 496.005 88.3805C497.145 87.1438 498.042 85.7033 498.648 84.1344C499.293 82.4764 499.617 80.7112 499.604 78.9322V78.5948C499.609 76.7866 499.275 74.9936 498.62 73.3083C497.979 71.6926 497.023 70.2205 495.808 68.9778C494.62 67.7877 493.217 66.8335 491.674 66.1659C489.283 65.1103 486.626 64.8139 484.062 65.3168C481.497 65.8197 479.148 67.0976 477.333 68.9778C476.175 70.2163 475.267 71.6679 474.662 73.252C474.017 74.91 473.692 76.6753 473.706 78.4542C473.698 80.2718 474.032 82.0746 474.69 83.7688C475.335 85.3742 476.29 86.8363 477.502 88.0712C478.691 89.3274 480.126 90.3252 481.718 91.0025C483.31 91.6798 485.024 92.022 486.753 92.0079V92.261Z" fill="#231F20"/>
<path d="M512.089 49.4065H515.098V94.3981H512.089V49.4065Z" fill="#231F20"/>
<path d="M526.346 49.4065H529.355V94.3981H526.346V49.4065Z" fill="#231F20"/>
<path d="M554.016 95.073C551.997 95.0806 549.998 94.6788 548.139 93.8919C546.286 93.1236 544.604 91.9958 543.19 90.5738C541.742 89.0882 540.605 87.3293 539.844 85.3998C538.987 83.2744 538.566 80.9985 538.606 78.7073C538.586 76.5376 538.967 74.383 539.731 72.3522C540.447 70.4369 541.515 68.6725 542.88 67.15C544.207 65.6174 545.834 64.3732 547.661 63.4945C549.506 62.6233 551.525 62.1811 553.566 62.201C555.563 62.1544 557.545 62.5573 559.365 63.3798C561.186 64.2024 562.798 65.4236 564.083 66.9532C565.322 68.4961 566.274 70.2484 566.895 72.1272C567.582 74.2135 567.924 76.3982 567.907 78.5948V79.2415C567.928 79.4378 567.928 79.6358 567.907 79.8321H541.896C542.045 83.2554 543.493 86.4934 545.946 88.8866C547.035 89.9403 548.326 90.7628 549.742 91.3049C551.175 91.868 552.701 92.1543 554.241 92.1485C556.411 92.2176 558.561 91.7235 560.483 90.7144C562.174 89.796 563.711 88.6196 565.039 87.2276L567.12 89.0553C565.563 90.77 563.74 92.2227 561.721 93.3577C559.35 94.6012 556.691 95.1931 554.016 95.073ZM564.701 77.1607C564.573 75.5992 564.252 74.0597 563.745 72.5772C563.251 71.1694 562.518 69.8568 561.58 68.6966C560.651 67.5248 559.481 66.5659 558.15 65.8846C556.674 65.1567 555.042 64.7996 553.397 64.8442C551.886 64.8372 550.39 65.1536 549.011 65.7722C547.67 66.3794 546.465 67.2496 545.468 68.3311C543.291 70.7353 542.001 73.8108 541.812 77.0482L564.701 77.1607Z" fill="#231F20"/>
<path d="M590.459 104.296C585.243 104.324 580.167 102.612 576.034 99.4315L577.805 96.9851C581.417 99.8586 585.9 101.416 590.515 101.4C592.205 101.417 593.885 101.16 595.493 100.641C596.939 100.165 598.264 99.3781 599.373 98.3348C600.49 97.2802 601.364 95.9942 601.932 94.5668C602.578 92.8805 602.893 91.0857 602.86 89.2803V84.7249C602.153 85.7191 601.373 86.659 600.526 87.5368C599.662 88.3906 598.72 89.1625 597.714 89.8426C596.605 90.5361 595.403 91.0664 594.143 91.4174C590.658 92.4413 586.922 92.1916 583.604 90.713C580.286 89.2344 577.602 86.6233 576.034 83.347C575.161 81.4322 574.719 79.3492 574.74 77.245C574.716 75.2006 575.125 73.1743 575.939 71.2989C576.753 69.4235 577.955 67.7414 579.464 66.3626C582.286 63.7348 585.985 62.2512 589.84 62.2009C591.305 62.1902 592.763 62.3891 594.171 62.7914C595.426 63.1548 596.634 63.6645 597.77 64.3099C598.788 64.9535 599.731 65.708 600.582 66.5595C601.396 67.392 602.157 68.2748 602.86 69.2027V62.932H605.869V89.4771C605.91 91.5493 605.557 93.6105 604.828 95.551C604.168 97.2633 603.152 98.816 601.848 100.106C600.441 101.49 598.753 102.554 596.899 103.228C594.83 103.953 592.651 104.315 590.459 104.296ZM590.009 89.0834C591.649 89.0848 593.276 88.7993 594.818 88.2398C596.35 87.6824 597.769 86.8537 599.008 85.7934C600.175 84.7374 601.129 83.468 601.819 82.0535C602.564 80.5312 602.94 78.855 602.916 77.1606V77.02C602.937 75.3169 602.561 73.6323 601.819 72.0991C601.13 70.6759 600.176 69.3972 599.008 68.331C597.768 67.2792 596.349 66.4599 594.818 65.9127C593.272 65.3736 591.646 65.098 590.009 65.0973C588.417 65.0934 586.837 65.3695 585.341 65.9127C583.895 66.4467 582.567 67.2587 581.433 68.3029C580.314 69.3464 579.424 70.6102 578.818 72.0147C578.156 73.5794 577.831 75.2654 577.861 76.9638C577.85 78.6359 578.185 80.2922 578.846 81.8285C579.478 83.2489 580.386 84.5296 581.517 85.5966C582.64 86.6628 583.957 87.5029 585.398 88.0711C586.854 88.7048 588.421 89.0487 590.009 89.0834Z" fill="#231F20"/>
<path d="M630.277 95.0729C628.258 95.0806 626.259 94.6788 624.4 93.8919C622.547 93.1235 620.865 91.9958 619.451 90.5738C618.003 89.0881 616.865 87.3293 616.104 85.3997C615.247 83.2353 614.826 80.9225 614.867 78.5947C614.846 76.4251 615.228 74.2704 615.992 72.2397C616.708 70.3244 617.776 68.56 619.141 67.0375C620.457 65.5647 622.053 64.3696 623.837 63.5225C625.692 62.6482 627.72 62.2059 629.771 62.229C631.827 62.1987 633.865 62.6311 635.732 63.4944C637.474 64.318 639.018 65.5073 640.259 66.9813C641.508 68.5171 642.462 70.2715 643.071 72.1553C643.762 74.2506 644.104 76.445 644.083 78.651V79.2977C644.083 79.2977 644.083 79.6352 644.083 79.8882H617.96C618.039 81.6913 618.479 83.4603 619.254 85.0904C619.939 86.5408 620.893 87.8481 622.066 88.9428C623.147 90.0066 624.441 90.8306 625.862 91.3611C627.284 91.9267 628.802 92.2131 630.333 92.2047C632.503 92.2738 634.653 91.7797 636.575 90.7706C638.266 89.8522 639.803 88.6758 641.131 87.2837L643.212 89.1115C641.641 90.8273 639.798 92.2716 637.757 93.3857C635.449 94.5811 632.873 95.1622 630.277 95.0729ZM640.962 77.1606C640.834 75.5992 640.513 74.0596 640.006 72.5771C639.523 71.1643 638.789 69.8499 637.841 68.6966C636.848 67.4959 635.596 66.5357 634.178 65.8879C632.761 65.2402 631.216 64.9218 629.658 64.9567C628.146 64.9497 626.651 65.2661 625.271 65.8846C623.931 66.4919 622.726 67.362 621.728 68.4435C619.552 70.8477 618.262 73.9232 618.073 77.1606H640.962Z" fill="#231F20"/>
<path d="M685.448 95.073C683.232 95.0946 681.036 94.6441 679.008 93.7513C677.119 92.888 675.404 91.6873 673.947 90.2082C672.496 88.7191 671.35 86.9617 670.572 85.0342C669.783 83.0381 669.382 80.9098 669.391 78.7635V78.5948C669.382 76.4484 669.783 74.3202 670.572 72.3241C671.366 70.3815 672.521 68.6068 673.975 67.0938C676.258 64.7347 679.206 63.1267 682.426 62.4838C685.646 61.8408 688.985 62.1933 691.999 63.4945C693.899 64.3379 695.618 65.5411 697.061 67.0376C698.518 68.5216 699.665 70.2804 700.435 72.2116C701.238 74.2046 701.649 76.3337 701.645 78.4823C701.648 80.6399 701.238 82.7781 700.435 84.7811C699.642 86.7237 698.487 88.4984 697.033 90.0114C695.577 91.5324 693.839 92.755 691.915 93.6107C689.887 94.5492 687.683 95.0476 685.448 95.073ZM685.448 92.261C687.228 92.2711 688.991 91.9071 690.622 91.1924C692.149 90.5265 693.534 89.5717 694.699 88.3805C695.848 87.1453 696.754 85.7048 697.37 84.1344C698.003 82.473 698.327 80.71 698.326 78.9322V78.5948C698.333 76.7839 697.989 74.9888 697.314 73.3083C696.664 71.6973 695.709 70.2269 694.502 68.9778C693.309 67.7809 691.896 66.8261 690.34 66.1658C688.799 65.4806 687.134 65.117 685.448 65.0973C683.667 65.0871 681.904 65.4512 680.274 66.1658C678.745 66.8305 677.361 67.7855 676.196 68.9778C675.047 70.2234 674.141 71.6731 673.525 73.252C672.892 74.9134 672.568 76.6764 672.569 78.4542C672.559 80.2746 672.903 82.0795 673.581 83.7688C674.225 85.3748 675.18 86.8372 676.393 88.0711C677.58 89.2754 678.995 90.2313 680.555 90.8831C682.084 91.6336 683.747 92.0733 685.448 92.1766V92.261Z" fill="#231F20"/>
<path d="M711.29 65.7159H706.734V62.9039H711.29V59.867C711.181 58.3838 711.374 56.8938 711.857 55.4873C712.34 54.0808 713.104 52.787 714.102 51.6841C714.97 50.8417 716.002 50.1871 717.134 49.7614C718.266 49.3356 719.474 49.1478 720.682 49.2096C721.53 49.1962 722.377 49.2621 723.212 49.4064C723.938 49.5246 724.653 49.7033 725.35 49.9407V52.7527C724.564 52.5044 723.766 52.2979 722.959 52.134C722.206 52.0177 721.444 51.9613 720.682 51.9653C716.464 51.9653 714.355 54.6086 714.355 59.8951V62.9039H725.293V65.7159H714.355V94.3137H711.318L711.29 65.7159Z" fill="#231F20"/>
<path d="M750.882 51.2343H768.626C770.854 51.1932 773.072 51.5454 775.178 52.2747C776.905 52.8575 778.48 53.8182 779.789 55.0867C780.697 55.9691 781.416 57.028 781.899 58.1983C782.383 59.3686 782.622 60.6255 782.601 61.8917C782.626 63.2139 782.407 64.5294 781.955 65.7722C781.56 66.8007 780.989 67.7523 780.267 68.5842C779.584 69.3872 778.788 70.088 777.905 70.665C777.066 71.184 776.193 71.6444 775.29 72.0429C776.556 72.3694 777.789 72.8118 778.974 73.3645C780.111 73.8849 781.156 74.5878 782.067 75.4454C782.959 76.2857 783.685 77.2876 784.204 78.398C784.756 79.6253 785.026 80.9612 784.991 82.3066C785.015 84.001 784.639 85.6772 783.895 87.1995C783.15 88.6582 782.071 89.9203 780.745 90.8831C779.285 91.9423 777.647 92.7326 775.909 93.2171C773.85 93.793 771.719 94.0677 769.582 94.0326H750.91L750.882 51.2343ZM768.288 71.1712C769.788 71.1926 771.284 71.0032 772.731 70.6088C773.987 70.2503 775.168 69.6693 776.218 68.8935C777.196 68.1497 777.986 67.1865 778.524 66.0815C779.106 64.8821 779.395 63.5619 779.367 62.2291C779.394 61.1094 779.153 59.9995 778.664 58.9919C778.175 57.9843 777.452 57.1081 776.556 56.4364C774.215 54.806 771.388 54.0224 768.541 54.215H754.06V71.2555L768.288 71.1712ZM769.694 91.4455C772.808 91.6056 775.891 90.7682 778.496 89.0554C779.539 88.3381 780.385 87.3696 780.955 86.2392C781.525 85.1088 781.801 83.8531 781.758 82.5878C781.803 81.3479 781.517 80.1184 780.929 79.026C780.341 77.9336 779.472 77.0179 778.411 76.3733C775.433 74.7306 772.049 73.9699 768.654 74.18H754.06V91.558L769.694 91.4455Z" fill="#231F20"/>
<path d="M806.672 95.073C804.865 95.097 803.07 94.7724 801.385 94.1169C799.884 93.4632 798.534 92.5058 797.42 91.3049C796.316 90.1259 795.473 88.7269 794.946 87.1994C794.391 85.5217 794.116 83.7643 794.13 81.9973V62.9321H797.139V81.5755C796.99 84.405 797.914 87.1868 799.726 89.3647C800.676 90.3495 801.831 91.1122 803.109 91.5983C804.388 92.0845 805.758 92.282 807.122 92.1766C808.586 92.1806 810.037 91.9038 811.396 91.3612C812.687 90.8238 813.862 90.0407 814.855 89.0553C815.863 88.0487 816.648 86.8416 817.161 85.5122C817.734 84.0725 818.021 82.5346 818.004 80.985V62.9321H821.013V94.3137H818.004V88.4929C816.925 90.3419 815.457 91.9346 813.702 93.1608C811.613 94.5109 809.157 95.179 806.672 95.073Z" fill="#231F20"/>
<path d="M841.878 94.9324C839.525 94.9193 837.193 94.4909 834.988 93.667C832.84 92.8662 830.829 91.7374 829.027 90.3207L830.827 87.9305C832.464 89.2083 834.284 90.2321 836.226 90.9675C838.092 91.684 840.076 92.0464 842.075 92.036C843.997 92.1095 845.892 91.5569 847.474 90.4613C848.164 89.9681 848.723 89.3126 849.101 88.5525C849.478 87.7924 849.663 86.9511 849.639 86.1027V85.9621C849.656 85.1337 849.421 84.3195 848.964 83.6282C848.468 82.9469 847.848 82.365 847.136 81.9129C846.293 81.4061 845.397 80.9913 844.465 80.6756L841.344 79.6914C840.078 79.3259 838.785 78.9603 837.491 78.5385C836.27 78.1565 835.099 77.6277 834.004 76.9638C833.012 76.3734 832.166 75.5658 831.53 74.6018C830.86 73.5657 830.526 72.3479 830.574 71.1149V70.9743C830.558 69.7784 830.818 68.5949 831.333 67.5156C831.839 66.438 832.567 65.4796 833.47 64.7036C834.428 63.8874 835.536 63.2665 836.732 62.8758C838.085 62.4362 839.499 62.2178 840.922 62.2291C842.89 62.2512 844.843 62.5736 846.714 63.1851C848.613 63.7681 850.413 64.6305 852.057 65.744L850.454 68.2748C849.007 67.3101 847.437 66.544 845.786 65.9971C844.181 65.4195 842.487 65.1245 840.781 65.1254C838.917 65.033 837.079 65.5895 835.579 66.7001C834.97 67.1524 834.477 67.7423 834.14 68.4216C833.803 69.101 833.631 69.8504 833.639 70.6087C833.623 71.424 833.892 72.2192 834.398 72.8583C834.922 73.5223 835.572 74.0765 836.31 74.4893C837.206 74.9751 838.148 75.3708 839.122 75.6703C840.191 76.0359 841.287 76.3733 842.384 76.6826C843.481 76.9919 844.915 77.47 846.152 77.8918C847.326 78.2958 848.442 78.8537 849.47 79.5508C850.413 80.1893 851.216 81.0119 851.832 81.9691C852.459 83.0321 852.771 84.2509 852.732 85.4841C852.746 86.7885 852.457 88.0783 851.888 89.2522C851.333 90.346 850.547 91.3056 849.583 92.0641C848.558 92.8749 847.396 93.494 846.152 93.8919C844.796 94.4771 843.351 94.8289 841.878 94.9324Z" fill="#231F20"/>
<path d="M861.168 50.6437H864.908V54.7492H861.168V50.6437ZM861.534 62.9321H864.542V94.3137H861.534V62.9321Z" fill="#231F20"/>
<path d="M875.622 62.9321H878.63V68.781C879.71 66.932 881.178 65.3393 882.933 64.1131C885.023 62.7664 887.478 62.0986 889.963 62.2009C891.771 62.166 893.568 62.491 895.249 63.157C896.751 63.7491 898.106 64.6624 899.219 65.833C900.331 67.0036 901.174 68.4032 901.689 69.9339C902.245 71.6111 902.521 73.3689 902.504 75.136V94.3137H899.495V75.7828C899.628 72.9555 898.706 70.1795 896.908 67.9936C895.956 67.0135 894.8 66.2539 893.522 65.7682C892.244 65.2824 890.876 65.0822 889.513 65.1816C888.036 65.168 886.572 65.4551 885.21 66.0252C883.931 66.57 882.767 67.3525 881.78 68.331C880.772 69.3377 879.986 70.5448 879.474 71.8741C878.898 73.3133 878.612 74.8516 878.63 76.4014V94.5387H875.622V62.9321Z" fill="#231F20"/>
<path d="M926.406 95.0729C924.387 95.0806 922.388 94.6788 920.529 93.8919C918.676 93.1235 916.994 91.9958 915.58 90.5738C914.132 89.0881 912.995 87.3293 912.234 85.3997C911.377 83.2743 910.956 80.9984 910.996 78.7072C910.976 76.5376 911.357 74.3829 912.121 72.3521C912.837 70.4369 913.905 68.6725 915.271 67.15C916.586 65.6771 918.183 64.4821 919.967 63.635C921.812 62.7639 923.831 62.3217 925.872 62.3415C927.938 62.3079 929.985 62.7404 931.861 63.6069C933.603 64.4305 935.147 65.6198 936.388 67.0937C937.639 68.6289 938.592 70.3835 939.2 72.2678C939.914 74.3581 940.266 76.5548 940.241 78.7635V79.4102C940.262 79.6065 940.262 79.8044 940.241 80.0007H914.23C914.379 83.4241 915.827 86.662 918.279 89.0553C919.369 90.1089 920.66 90.9315 922.075 91.4736C923.508 92.0367 925.035 92.323 926.575 92.3172C928.744 92.3824 930.894 91.8886 932.817 90.8831C934.508 89.9647 936.045 88.7883 937.373 87.3962L939.453 89.224C937.877 90.9335 936.035 92.3769 933.998 93.4982C931.647 94.6738 929.031 95.2165 926.406 95.0729ZM937.091 77.1606C936.963 75.5992 936.642 74.0596 936.135 72.5771C935.652 71.1643 934.919 69.8499 933.97 68.6966C933.041 67.5248 931.871 66.5659 930.54 65.8846C929.064 65.1567 927.432 64.7995 925.787 64.8442C924.276 64.8372 922.78 65.1536 921.401 65.7721C920.06 66.3794 918.855 67.2495 917.858 68.331C915.681 70.7352 914.392 73.8108 914.202 77.0482L937.091 77.1606Z" fill="#231F20"/>
<path d="M959.053 94.9324C956.691 94.922 954.349 94.4936 952.136 93.667C949.987 92.8662 947.977 91.7374 946.174 90.3207L947.974 87.9305C949.611 89.2083 951.431 90.2321 953.373 90.9675C955.239 91.684 957.223 92.0464 959.222 92.036C961.144 92.1095 963.039 91.5569 964.621 90.4613C965.317 89.9734 965.88 89.3189 966.258 88.5576C966.636 87.7962 966.818 86.9523 966.786 86.1027V85.9621C966.803 85.1337 966.568 84.3195 966.111 83.6282C965.615 82.9469 964.995 82.365 964.283 81.9129C963.45 81.4061 962.563 80.9913 961.64 80.6756L958.491 79.6914C957.225 79.3259 955.932 78.9603 954.638 78.5385C953.423 78.1619 952.261 77.6328 951.18 76.9638C950.173 76.3817 949.316 75.5729 948.677 74.6018C948.007 73.5657 947.673 72.3479 947.721 71.1149V70.9743C947.705 69.7784 947.965 68.5949 948.48 67.5156C948.986 66.438 949.714 65.4796 950.617 64.7036C951.579 63.8932 952.686 63.2729 953.879 62.8758C955.232 62.4362 956.647 62.2178 958.069 62.2291C960.037 62.2512 961.991 62.5736 963.862 63.1851C965.76 63.7681 967.56 64.6305 969.204 65.744L967.601 68.2748C966.162 67.3149 964.602 66.5491 962.962 65.9971C961.346 65.4217 959.643 65.1269 957.928 65.1254C956.064 65.033 954.226 65.5895 952.726 66.7001C952.117 67.1524 951.624 67.7423 951.287 68.4216C950.95 69.101 950.778 69.8504 950.786 70.6087C950.77 71.424 951.039 72.2192 951.545 72.8583C952.073 73.5289 952.734 74.084 953.485 74.4893C954.378 74.9822 955.321 75.3781 956.297 75.6703C957.366 76.0359 958.463 76.3733 959.559 76.6826C960.656 76.9919 962.09 77.47 963.327 77.8918C964.502 78.2958 965.617 78.8537 966.645 79.5508C967.588 80.1893 968.391 81.0119 969.007 81.9691C969.634 83.0321 969.946 84.2509 969.907 85.4841C969.921 86.7885 969.632 88.0783 969.064 89.2522C968.514 90.3495 967.726 91.3102 966.758 92.0641C965.734 92.8749 964.571 93.494 963.327 93.8919C961.972 94.4781 960.526 94.8299 959.053 94.9324Z" fill="#231F20"/>
<path d="M989.141 94.9324C986.788 94.9222 984.455 94.4938 982.252 93.667C980.101 92.8726 978.089 91.7432 976.29 90.3207L978.062 87.9305C979.721 89.2055 981.559 90.2288 983.517 90.9675C985.383 91.6866 987.367 92.0491 989.366 92.036C991.28 92.1095 993.166 91.5566 994.737 90.4613C995.436 89.9748 996.003 89.3214 996.386 88.5603C996.769 87.7991 996.956 86.9544 996.93 86.1028V85.9622C996.948 85.1337 996.712 84.3196 996.255 83.6282C995.756 82.94 995.125 82.3571 994.399 81.9129C993.566 81.4062 992.679 80.9913 991.756 80.6757L988.607 79.6915C987.341 79.3259 986.076 78.9603 984.783 78.5385C983.561 78.1565 982.39 77.6278 981.296 76.9638C980.301 76.3663 979.447 75.5605 978.793 74.6018C978.136 73.5599 977.803 72.3463 977.837 71.1149V70.9743C977.831 69.7763 978.1 68.5929 978.624 67.5156C979.122 66.4406 979.841 65.4825 980.733 64.7036C981.695 63.8932 982.802 63.273 983.995 62.8758C985.348 62.4386 986.763 62.2202 988.185 62.2291C990.162 62.2536 992.125 62.5759 994.006 63.1852C995.897 63.7623 997.69 64.6252 999.32 65.7441L997.718 68.2748C996.278 67.315 994.718 66.5491 993.078 65.9971C991.472 65.4195 989.779 65.1245 988.072 65.1254C986.208 65.0307 984.369 65.5874 982.87 66.7001C982.262 67.1525 981.768 67.7424 981.431 68.4217C981.094 69.101 980.922 69.8504 980.93 70.6088C980.918 71.4189 981.175 72.2102 981.661 72.8583C982.202 73.5164 982.86 74.0693 983.601 74.4893C984.497 74.9752 985.439 75.3708 986.413 75.6703C987.482 76.0359 988.551 76.3733 989.675 76.6826C990.8 76.992 992.178 77.47 993.415 77.8918C994.592 78.2901 995.709 78.8484 996.733 79.5509C997.686 80.1864 998.499 81.0092 999.124 81.9692C999.74 83.0351 1000.04 84.2537 999.995 85.4841C1000.02 86.7863 999.739 88.0759 999.18 89.2522C998.625 90.346 997.838 91.3056 996.874 92.0642C995.843 92.8811 994.671 93.5007 993.415 93.8919C992.06 94.4782 990.614 94.83 989.141 94.9324Z" fill="#231F20"/>
<path d="M643.268 121.309V142.708C643.268 146.251 644.421 151.312 650.72 151.312C656.344 151.312 658.565 147.348 658.565 142.286V121.309C658.588 120.842 658.476 120.378 658.241 119.974C658.007 119.57 657.66 119.242 657.243 119.031H662.867C662.459 119.247 662.122 119.578 661.897 119.982C661.672 120.387 661.57 120.847 661.602 121.309L661.461 142.174C661.461 150.863 656.569 154.237 649.989 154.237C644.365 154.237 637.11 151.425 637.11 142.539V121.309C637.097 120.817 636.941 120.34 636.661 119.935C636.382 119.531 635.99 119.217 635.535 119.031H644.843C644.385 119.213 643.992 119.527 643.712 119.932C643.431 120.337 643.277 120.816 643.268 121.309Z" fill="#005039"/>
<path d="M694.305 121.309C694.349 120.846 694.251 120.38 694.025 119.974C693.799 119.567 693.456 119.239 693.04 119.031H698.439C698.025 119.242 697.684 119.571 697.459 119.977C697.233 120.383 697.134 120.846 697.174 121.309V155.052C697.174 155.052 673.919 126.398 673.919 125.836V151.453C673.907 151.925 674.031 152.389 674.275 152.793C674.519 153.197 674.874 153.522 675.296 153.731H669.897C670.291 153.497 670.615 153.163 670.838 152.763C671.06 152.363 671.172 151.911 671.163 151.453V124.149C671.163 122.18 671.163 122.124 670.291 120.943C669.685 120.186 668.952 119.539 668.126 119.031H676.562L694.446 141.527L694.305 121.309Z" fill="#005039"/>
<path d="M714.017 119.031C713.596 119.232 713.248 119.56 713.021 119.968C712.794 120.376 712.7 120.845 712.752 121.309V151.453C712.723 151.914 712.827 152.373 713.052 152.777C713.276 153.181 713.611 153.512 714.017 153.731H705.272C705.67 153.502 705.997 153.168 706.22 152.767C706.443 152.366 706.553 151.912 706.537 151.453V121.309C706.577 120.846 706.478 120.383 706.252 119.977C706.027 119.571 705.685 119.242 705.272 119.031H714.017Z" fill="#005039"/>
<path d="M743.459 121.562C743.909 120.24 743.712 119.509 742.446 119.031H748.38C747.917 119.287 747.513 119.637 747.193 120.058C746.874 120.479 746.646 120.963 746.524 121.477C745.708 123.446 734.039 154.799 734.039 154.799C734.039 154.799 721.385 123.361 720.485 121.477C719.942 120.359 718.999 119.485 717.842 119.031H728.555C727.318 119.509 727.206 120.578 727.543 121.843C727.543 122.293 735.726 143.298 735.726 143.298C735.726 143.298 743.431 121.927 743.459 121.562Z" fill="#005039"/>
<path d="M772.619 123.586C772.208 122.976 771.643 122.485 770.981 122.164C770.32 121.843 769.584 121.703 768.851 121.759C767.417 121.759 760.64 121.759 760.64 121.759V133.485H767.951C768.359 133.417 768.743 133.248 769.067 132.992C769.392 132.737 769.646 132.403 769.807 132.022V137.421C769.672 137.042 769.439 136.705 769.134 136.444C768.828 136.183 768.459 136.006 768.063 135.931H760.752V150.947C762.833 151.19 764.929 151.275 767.023 151.2C771.241 151.2 773.181 151.2 774.981 147.994L773.94 153.871H752.935C753.367 153.666 753.733 153.344 753.992 152.942C754.25 152.539 754.391 152.072 754.397 151.594V121.309C754.405 120.827 754.27 120.354 754.01 119.949C753.75 119.544 753.376 119.225 752.935 119.031H772.619V123.586Z" fill="#005039"/>
<path d="M794.046 136.128C795.197 136.276 796.295 136.702 797.245 137.368C798.195 138.034 798.969 138.921 799.501 139.952C799.501 139.952 805.322 149.625 807.009 151.678C807.875 152.583 808.932 153.285 810.102 153.731H803.832C802.978 153.692 802.144 153.459 801.394 153.05C800.643 152.641 799.996 152.066 799.501 151.369C797.336 148.135 795.199 144.395 793.456 141.527C792.19 139.502 791.065 137.281 789.013 137.281C788.422 137.281 786.847 137.281 786.847 137.281V151.341C786.84 151.811 786.965 152.275 787.209 152.678C787.452 153.081 787.805 153.407 788.225 153.618H779.452C779.854 153.394 780.185 153.062 780.409 152.659C780.632 152.257 780.739 151.8 780.717 151.341V121.309C780.761 120.846 780.663 120.38 780.437 119.974C780.211 119.567 779.868 119.239 779.452 119.031H789.941C799.951 119.031 802.201 124.149 802.201 127.467C802.185 129.673 801.335 131.791 799.823 133.397C798.311 135.004 796.247 135.979 794.046 136.128ZM786.847 121.562V134.834C786.847 134.834 788.225 134.834 789.041 134.834C789.972 134.879 790.902 134.723 791.767 134.376C792.632 134.03 793.413 133.501 794.056 132.826C794.698 132.151 795.189 131.346 795.493 130.465C795.797 129.584 795.908 128.648 795.818 127.72C795.864 126.887 795.739 126.054 795.449 125.272C795.159 124.49 794.711 123.776 794.134 123.174C793.556 122.573 792.861 122.097 792.091 121.776C791.321 121.455 790.493 121.296 789.659 121.309C788.225 121.477 786.847 121.562 786.847 121.562Z" fill="#005039"/>
<path d="M832.598 143.495C832.577 144.943 832.267 146.371 831.688 147.698C831.109 149.024 830.271 150.222 829.224 151.222C828.177 152.222 826.942 153.003 825.59 153.521C824.238 154.038 822.797 154.282 821.35 154.237C818.067 154.188 814.848 153.318 811.986 151.706L811.762 143.27C812.661 146.898 815.614 151.706 820.619 151.706C821.443 151.767 822.27 151.652 823.045 151.369C823.821 151.086 824.527 150.641 825.117 150.064C825.708 149.487 826.169 148.791 826.469 148.022C826.77 147.253 826.904 146.429 826.862 145.604C826.862 140.711 822.672 139.98 818.257 137.506C813.842 135.031 811.986 132.022 811.986 128.142C812.022 126.805 812.326 125.488 812.881 124.271C813.436 123.055 814.231 121.962 815.218 121.059C816.205 120.156 817.364 119.461 818.625 119.016C819.886 118.571 821.225 118.385 822.56 118.469C825.119 118.454 827.638 119.103 829.871 120.353L830.096 127.889C829.659 126.039 828.638 124.378 827.185 123.153C825.732 121.927 823.923 121.202 822.025 121.084C821.359 121.041 820.69 121.137 820.063 121.366C819.436 121.595 818.863 121.953 818.382 122.416C817.9 122.879 817.52 123.437 817.266 124.055C817.013 124.673 816.89 125.337 816.907 126.005C816.907 129.126 818.988 130.279 823.516 132.472C828.043 134.666 832.598 136.409 832.598 143.495Z" fill="#005039"/>
<path d="M846.152 119.031C845.731 119.232 845.383 119.56 845.156 119.968C844.929 120.376 844.835 120.845 844.887 121.309V151.453C844.858 151.914 844.962 152.373 845.186 152.777C845.411 153.181 845.746 153.512 846.152 153.731H837.294C837.689 153.5 838.013 153.166 838.231 152.765C838.449 152.363 838.553 151.909 838.532 151.453V121.309C838.574 120.849 838.478 120.388 838.258 119.982C838.038 119.577 837.703 119.246 837.294 119.031H846.152Z" fill="#005039"/>
<path d="M867.298 121.562V151.453C867.289 151.911 867.401 152.363 867.623 152.763C867.845 153.163 868.17 153.497 868.564 153.731H859.79C860.185 153.5 860.509 153.166 860.727 152.765C860.945 152.363 861.049 151.909 861.027 151.453V121.562C857.456 121.562 853.294 121.927 853.294 121.927C852.113 121.927 851.298 123.08 850.848 123.952V119.031H877.393V123.952C877.221 123.447 876.92 122.994 876.521 122.64C876.122 122.285 875.638 122.039 875.115 121.927C875.115 121.927 870.841 121.562 867.298 121.562Z" fill="#005039"/>
<path d="M909.14 119.031C907.707 119.601 906.556 120.712 905.935 122.124L898.174 137.646V151.453C898.228 151.948 898.413 152.42 898.709 152.82C899.006 153.22 899.403 153.535 899.861 153.731H890.188C890.64 153.531 891.032 153.215 891.323 152.815C891.614 152.415 891.795 151.945 891.847 151.453V137.843L882.286 121.477C881.758 120.388 880.862 119.522 879.755 119.031H890.722C889.513 119.509 888.669 119.79 889.935 122.18L896.824 134.834L903.207 121.646C903.387 121.432 903.505 121.173 903.549 120.897C903.594 120.62 903.562 120.338 903.458 120.078C903.354 119.818 903.182 119.592 902.96 119.422C902.737 119.253 902.473 119.147 902.195 119.115L909.14 119.031Z" fill="#005039"/>
<path d="M254.597 119.481H262.695C262.287 119.688 261.95 120.013 261.729 120.415C261.509 120.816 261.414 121.275 261.458 121.73V151.453C261.423 151.912 261.521 152.37 261.741 152.774C261.96 153.178 262.292 153.51 262.695 153.731H254.259C254.658 153.505 254.985 153.172 255.204 152.769C255.423 152.367 255.524 151.911 255.496 151.453V126.145C255.471 125.761 255.471 125.376 255.496 124.992L255.046 126.145L243.574 154.518L231.988 126.989L231.651 125.639V151.509C231.63 151.979 231.747 152.445 231.986 152.849C232.226 153.254 232.578 153.58 233.001 153.787H227.686C228.08 153.556 228.404 153.222 228.622 152.821C228.841 152.419 228.945 151.966 228.923 151.509V121.73C228.88 121.258 228.719 120.804 228.453 120.41C228.188 120.017 227.827 119.697 227.405 119.481H235.841L245.401 142.595L254.597 119.481Z" fill="#005039"/>
<path d="M279.089 119.481C278.675 119.682 278.334 120.006 278.112 120.409C277.891 120.812 277.8 121.274 277.852 121.73V151.453C277.81 151.913 277.905 152.374 278.125 152.779C278.345 153.185 278.681 153.516 279.089 153.731H270.428C270.827 153.505 271.154 153.172 271.373 152.769C271.592 152.367 271.693 151.911 271.665 151.453V121.73C271.705 121.275 271.609 120.818 271.389 120.418C271.168 120.017 270.834 119.691 270.428 119.481H279.089Z" fill="#005039"/>
<path d="M315.757 129.351C314.985 127.099 313.53 125.144 311.594 123.758C309.659 122.372 307.34 121.624 304.959 121.618C296.776 121.618 292.136 127.945 292.136 136.043C292.136 142.961 295.426 151.453 305.268 151.453C307.639 151.411 309.942 150.652 311.875 149.277C313.807 147.902 315.278 145.975 316.094 143.748C316.094 143.551 315.673 151.003 315.673 151.003C311.994 153.168 307.793 154.286 303.525 154.237C301.19 154.313 298.865 153.915 296.689 153.065C294.514 152.215 292.533 150.932 290.869 149.294C289.204 147.656 287.89 145.696 287.006 143.534C286.121 141.373 285.686 139.054 285.725 136.718C285.675 134.319 286.121 131.936 287.034 129.716C287.946 127.497 289.306 125.489 291.029 123.819C292.752 122.149 294.801 120.852 297.048 120.009C299.295 119.165 301.691 118.794 304.087 118.919C307.991 118.889 311.845 119.785 315.335 121.534C315.335 121.534 315.841 129.548 315.757 129.351Z" fill="#005039"/>
<path d="M343.764 119.481H352.425C351.998 119.674 351.64 119.993 351.399 120.395C351.158 120.797 351.045 121.263 351.075 121.73V151.453C351.055 151.923 351.171 152.388 351.411 152.793C351.651 153.198 352.003 153.523 352.425 153.731H343.764C344.171 153.512 344.506 153.181 344.73 152.777C344.954 152.373 345.058 151.914 345.03 151.453V136.043H330.154V151.453C330.112 151.913 330.207 152.374 330.428 152.779C330.648 153.185 330.983 153.516 331.392 153.731H322.703C323.104 153.506 323.436 153.174 323.659 152.772C323.883 152.37 323.99 151.913 323.968 151.453V121.73C324.002 121.273 323.9 120.815 323.674 120.415C323.449 120.015 323.111 119.69 322.703 119.481H331.363C330.95 119.682 330.608 120.006 330.387 120.409C330.165 120.812 330.074 121.274 330.126 121.73V133.569H345.001V121.73C345.045 121.275 344.951 120.816 344.73 120.415C344.509 120.013 344.173 119.688 343.764 119.481Z" fill="#005039"/>
<path d="M368.763 119.481C368.349 119.682 368.008 120.006 367.786 120.409C367.565 120.812 367.473 121.274 367.525 121.73V151.453C367.483 151.913 367.579 152.374 367.799 152.779C368.019 153.185 368.354 153.516 368.763 153.731H360.13C360.529 153.505 360.856 153.172 361.075 152.769C361.294 152.367 361.395 151.911 361.367 151.453V121.73C361.407 121.275 361.311 120.818 361.091 120.418C360.87 120.017 360.536 119.691 360.13 119.481H368.763Z" fill="#005039"/>
<path d="M405.15 121.534L405.487 129.548C404.748 127.27 403.315 125.281 401.389 123.859C399.462 122.437 397.139 121.654 394.745 121.618C386.619 121.618 381.923 127.945 381.923 136.043C381.923 142.961 385.185 151.453 395.083 151.453C397.221 151.498 399.328 150.932 401.157 149.822V141.049C401.192 140.583 401.094 140.116 400.876 139.703C400.657 139.29 400.325 138.947 399.919 138.715H408.355C407.954 138.952 407.626 139.296 407.408 139.708C407.19 140.119 407.089 140.584 407.118 141.049V148.5C407.101 148.876 407.159 149.251 407.29 149.604C407.42 149.956 407.62 150.279 407.877 150.553C403.333 152.868 398.325 154.127 393.227 154.237C390.885 154.321 388.551 153.928 386.366 153.083C384.181 152.237 382.19 150.956 380.515 149.318C378.84 147.68 377.515 145.718 376.621 143.552C375.727 141.386 375.283 139.061 375.315 136.718C375.272 134.309 375.727 131.917 376.651 129.691C377.575 127.466 378.949 125.455 380.685 123.784C382.422 122.114 384.484 120.819 386.744 119.982C389.003 119.145 391.411 118.783 393.817 118.918C397.743 118.933 401.615 119.827 405.15 121.534Z" fill="#005039"/>
<path d="M440.075 151.284C440.286 151.833 440.607 152.333 441.018 152.754C441.429 153.174 441.921 153.507 442.465 153.731H432.37C433.607 153.028 433.832 152.325 433.523 151.284C433.354 150.778 432.117 147.685 430.711 144.283H418.985C417.97 146.548 417.079 148.867 416.313 151.228C415.863 152.437 416.116 153.14 417.41 153.731H410.802C411.769 153.146 412.55 152.298 413.051 151.284C413.951 149.344 426.549 118.412 426.549 118.412C426.549 118.412 439.203 149.344 440.075 151.284ZM429.558 141.639C427.28 136.015 424.665 129.295 424.665 129.295C424.665 129.295 421.431 137.731 419.884 141.639H429.558Z" fill="#005039"/>
<path d="M469.516 121.73C469.556 121.275 469.46 120.818 469.239 120.418C469.019 120.017 468.685 119.691 468.279 119.481H473.593C473.187 119.693 472.851 120.018 472.626 120.418C472.401 120.817 472.298 121.273 472.328 121.73V155.137C472.328 155.137 449.382 126.623 449.382 126.23V151.537C449.361 152.007 449.478 152.473 449.718 152.877C449.957 153.282 450.31 153.608 450.732 153.815H445.417C445.808 153.58 446.128 153.245 446.346 152.845C446.563 152.444 446.67 151.993 446.655 151.537V124.542C446.655 122.602 446.655 122.546 445.811 121.393C445.221 120.62 444.486 119.97 443.646 119.481H451.885L469.516 141.639V121.73Z" fill="#005039"/>
<path d="M512.792 143.664C512.771 145.104 512.461 146.525 511.88 147.843C511.298 149.16 510.458 150.348 509.409 151.334C508.359 152.32 507.122 153.086 505.771 153.584C504.42 154.083 502.983 154.305 501.544 154.237C498.328 154.194 495.171 153.364 492.349 151.819L492.124 143.383C493.024 146.982 495.892 151.819 500.841 151.819C501.656 151.875 502.474 151.758 503.241 151.476C504.007 151.194 504.706 150.754 505.29 150.183C505.874 149.612 506.331 148.924 506.63 148.164C506.93 147.404 507.065 146.589 507.028 145.773C507.028 140.936 502.866 140.29 498.592 137.815C494.317 135.34 492.265 132.5 492.265 128.704C492.266 127.367 492.541 126.043 493.072 124.816C493.604 123.588 494.381 122.482 495.355 121.566C496.329 120.649 497.481 119.942 498.738 119.487C499.996 119.031 501.334 118.838 502.669 118.918C505.195 118.922 507.681 119.56 509.896 120.774L510.121 128.226C509.684 126.402 508.671 124.766 507.233 123.561C505.795 122.356 504.008 121.645 502.135 121.534C501.472 121.482 500.806 121.57 500.181 121.793C499.555 122.017 498.983 122.369 498.503 122.828C498.022 123.287 497.644 123.843 497.393 124.458C497.142 125.073 497.023 125.734 497.045 126.398C497.045 129.463 499.098 130.644 503.597 132.782C508.096 134.919 512.792 136.662 512.792 143.664Z" fill="#005039"/>
<path d="M531.857 121.984V151.453C531.842 151.909 531.949 152.36 532.166 152.76C532.384 153.161 532.704 153.496 533.095 153.731H524.659C525.062 153.51 525.393 153.178 525.613 152.774C525.832 152.37 525.931 151.912 525.896 151.453V121.984C522.353 121.984 518.247 122.349 518.247 122.349C517.094 122.349 516.307 123.502 515.857 124.346V119.481H542.037V124.346C541.615 123.502 540.94 122.433 539.787 122.349C539.703 122.349 535.372 121.984 531.857 121.984Z" fill="#005039"/>
<path d="M566.867 151.284C567.078 151.833 567.399 152.333 567.81 152.754C568.221 153.174 568.713 153.507 569.257 153.731H558.909C560.146 153.028 560.399 152.325 560.062 151.284C560.062 150.778 558.684 147.685 557.25 144.283H545.524C544.118 147.685 542.965 150.666 542.852 151.228C542.402 152.437 542.655 153.14 543.949 153.731H537.538C538.517 153.161 539.301 152.308 539.787 151.284C540.715 149.344 553.285 118.412 553.285 118.412C553.285 118.412 565.995 149.344 566.867 151.284ZM556.322 141.639C554.1 136.015 551.457 129.295 551.457 129.295C551.457 129.295 548.223 137.731 546.677 141.639H556.322Z" fill="#005039"/>
<path d="M581.742 121.984V151.453C581.727 151.909 581.833 152.36 582.051 152.76C582.268 153.161 582.589 153.496 582.979 153.731H574.543C574.942 153.505 575.27 153.172 575.488 152.769C575.707 152.367 575.808 151.911 575.78 151.453V121.984C572.237 121.984 568.132 122.349 568.132 122.349C566.979 122.349 566.163 123.502 565.742 124.346V119.481H591.949V124.346C591.499 123.502 590.853 122.433 589.7 122.349C589.587 122.349 585.229 121.984 581.742 121.984Z" fill="#005039"/>
<path d="M616.357 123.896C615.946 123.295 615.384 122.812 614.728 122.496C614.071 122.181 613.344 122.043 612.617 122.096C611.183 122.096 604.519 122.096 604.519 122.096V133.681H611.718C612.096 133.603 612.449 133.434 612.748 133.189C613.047 132.945 613.282 132.631 613.433 132.275V137.646C613.301 137.273 613.073 136.942 612.772 136.685C612.47 136.428 612.107 136.255 611.718 136.184H604.519V150.863C606.571 151.106 608.64 151.191 610.705 151.116C614.867 151.116 616.779 151.116 618.551 147.938L617.538 153.731H596.983C597.421 153.536 597.791 153.215 598.046 152.81C598.301 152.404 598.43 151.932 598.417 151.453V121.73C598.421 121.257 598.288 120.792 598.033 120.393C597.779 119.994 597.414 119.677 596.983 119.481H616.217L616.357 123.896Z" fill="#005039"/>
</svg>
